<svg id="svg" version="1.1" xmlns="http://www.w3.org/2000/svg" xmlns:xlink="http://www.w3.org/1999/xlink" width="400" height="400" viewBox="0, 0, 400,400"><g id="svgg"><path id="path0" d="M191.800 12.400 C 191.664 12.620,191.243 12.800,190.865 12.800 C 190.205 12.800,189.040 13.840,188.923 14.533 C 188.827 15.101,188.400 15.361,188.400 14.851 C 188.400 14.490,188.260 14.499,187.844 14.884 C 187.440 15.259,187.413 15.484,187.744 15.707 C 188.064 15.923,188.002 16.132,187.537 16.406 C 187.146 16.637,186.955 17.108,187.072 17.554 C 187.181 17.970,187.071 18.432,186.829 18.582 C 186.517 18.775,186.394 24.806,186.407 39.243 C 186.420 52.263,186.566 59.544,186.813 59.392 C 187.026 59.260,187.200 59.523,187.200 59.976 C 187.200 60.429,187.380 60.800,187.600 60.800 C 187.820 60.800,188.006 61.115,188.013 61.500 C 188.032 62.572,189.078 63.732,189.781 63.463 C 190.167 63.315,190.400 63.447,190.400 63.813 C 190.400 64.136,190.745 64.400,191.167 64.400 C 191.588 64.400,192.038 64.625,192.167 64.900 C 192.353 65.300,192.447 65.300,192.633 64.900 C 192.762 64.625,193.176 64.400,193.553 64.400 C 193.931 64.400,194.482 64.625,194.779 64.900 C 195.210 65.300,195.261 65.300,195.035 64.900 C 194.863 64.596,194.990 64.400,195.358 64.400 C 196.208 64.400,198.008 63.536,197.813 63.222 C 197.724 63.078,198.019 62.731,198.468 62.451 C 199.087 62.064,199.210 62.060,198.980 62.432 C 198.783 62.751,198.842 62.821,199.149 62.632 C 199.409 62.471,199.595 62.128,199.563 61.870 C 199.443 60.895,199.664 59.802,199.875 60.329 C 200.119 60.940,202.000 59.401,202.000 58.590 C 202.000 58.331,202.524 57.718,203.165 57.227 C 203.806 56.736,204.547 55.811,204.812 55.172 C 205.076 54.533,205.433 54.097,205.605 54.203 C 205.980 54.435,206.400 53.443,206.400 52.324 C 206.400 51.769,206.588 51.587,207.000 51.745 C 207.330 51.871,207.600 51.820,207.600 51.632 C 207.600 51.443,208.226 50.593,208.991 49.744 C 209.756 48.895,210.386 47.975,210.391 47.700 C 210.396 47.425,210.550 47.200,210.732 47.200 C 210.915 47.200,211.320 46.705,211.632 46.100 C 211.945 45.495,213.055 44.157,214.100 43.126 C 215.145 42.095,216.000 41.060,216.000 40.826 C 216.000 40.592,216.367 40.033,216.815 39.585 C 217.263 39.137,217.521 38.596,217.389 38.383 C 217.257 38.169,217.439 37.883,217.794 37.747 C 218.788 37.365,220.653 35.359,220.484 34.852 C 220.401 34.603,220.528 34.400,220.767 34.400 C 221.005 34.400,221.200 34.201,221.200 33.958 C 221.200 33.714,221.652 33.160,222.204 32.726 C 222.756 32.291,223.098 31.759,222.965 31.544 C 222.832 31.328,223.460 30.428,224.361 29.545 C 225.263 28.661,226.000 27.592,226.000 27.169 C 226.000 26.746,226.180 26.400,226.400 26.400 C 226.620 26.400,226.800 25.849,226.800 25.176 C 226.800 24.463,226.967 24.056,227.200 24.200 C 227.438 24.347,227.600 23.871,227.600 23.024 C 227.600 22.241,227.420 21.600,227.200 21.600 C 226.980 21.600,226.800 21.150,226.800 20.600 C 226.800 20.034,226.569 19.600,226.268 19.600 C 225.975 19.600,225.511 19.195,225.237 18.700 C 224.577 17.508,222.099 15.905,221.888 16.533 C 221.768 16.889,221.501 16.889,220.765 16.533 C 219.358 15.853,218.032 15.625,217.788 16.020 C 217.670 16.210,217.311 16.264,216.989 16.141 C 216.668 16.017,216.495 15.770,216.605 15.591 C 216.716 15.413,216.002 15.267,215.019 15.267 C 214.036 15.267,213.060 15.161,212.850 15.031 C 212.640 14.901,212.377 15.021,212.266 15.298 C 212.130 15.634,212.053 15.596,212.032 15.180 C 212.012 14.802,211.627 14.560,211.043 14.560 C 210.364 14.560,210.141 14.740,210.276 15.180 C 210.415 15.635,210.306 15.605,209.864 15.067 C 209.470 14.585,208.805 14.359,207.932 14.407 C 205.992 14.515,205.730 14.438,206.400 13.956 C 206.882 13.610,206.842 13.581,206.200 13.810 C 205.760 13.967,205.130 14.059,204.800 14.015 C 204.470 13.971,203.427 13.920,202.482 13.903 C 201.373 13.883,200.825 13.711,200.938 13.418 C 201.058 13.104,200.256 12.969,198.357 12.982 C 196.841 12.992,195.601 12.885,195.601 12.744 C 195.600 12.603,194.970 12.414,194.200 12.324 C 193.207 12.208,192.800 12.319,192.800 12.704 C 192.800 13.003,192.617 13.134,192.393 12.996 C 192.170 12.858,192.091 12.577,192.217 12.372 C 192.344 12.168,192.357 12.000,192.247 12.000 C 192.137 12.000,191.936 12.180,191.800 12.400 M293.347 37.613 C 293.119 37.841,291.370 38.033,289.459 38.040 C 287.212 38.048,286.074 38.196,286.236 38.459 C 286.377 38.686,286.159 38.830,285.744 38.786 C 283.939 38.596,281.969 38.826,282.200 39.200 C 282.347 39.439,281.863 39.600,281.000 39.600 C 280.137 39.600,279.653 39.761,279.800 40.000 C 279.940 40.227,279.604 40.400,279.024 40.400 C 278.461 40.400,278.000 40.220,278.000 40.000 C 278.000 39.780,277.809 39.600,277.576 39.600 C 277.343 39.600,277.264 39.780,277.400 40.000 C 277.543 40.231,277.164 40.400,276.504 40.400 C 275.875 40.400,275.118 40.625,274.821 40.900 C 274.388 41.302,274.341 41.296,274.583 40.870 C 274.830 40.435,274.738 40.432,274.068 40.851 C 273.619 41.131,273.331 41.489,273.429 41.647 C 273.526 41.804,272.755 41.933,271.714 41.933 C 270.674 41.933,269.757 42.128,269.678 42.367 C 269.598 42.605,269.019 42.800,268.390 42.800 C 267.762 42.800,267.136 42.980,267.000 43.200 C 266.864 43.420,266.313 43.600,265.776 43.600 C 265.239 43.600,264.800 43.795,264.800 44.033 C 264.800 44.272,264.577 44.392,264.304 44.301 C 264.031 44.210,263.557 44.386,263.252 44.691 C 262.947 44.996,262.450 45.151,262.148 45.036 C 261.847 44.920,261.600 45.061,261.600 45.348 C 261.600 46.015,260.126 46.649,258.688 46.600 C 257.851 46.572,257.634 46.712,257.810 47.169 C 257.938 47.503,257.914 47.648,257.758 47.491 C 257.602 47.335,257.197 47.430,256.860 47.703 C 256.371 48.100,256.307 48.099,256.547 47.700 C 256.712 47.425,256.687 47.200,256.491 47.200 C 256.295 47.200,255.891 47.656,255.593 48.214 C 255.258 48.839,254.826 49.142,254.467 49.004 C 254.147 48.881,253.549 49.084,253.140 49.455 C 252.730 49.825,252.291 50.024,252.164 49.897 C 251.944 49.677,251.057 50.286,249.684 51.600 C 249.339 51.930,248.999 52.155,248.929 52.100 C 248.858 52.045,248.575 52.003,248.300 52.006 C 247.967 52.010,248.000 52.142,248.400 52.400 C 248.818 52.670,248.848 52.805,248.500 52.844 C 247.138 52.997,245.200 53.919,245.200 54.414 C 245.200 54.652,245.020 54.736,244.800 54.600 C 244.580 54.464,244.400 54.543,244.400 54.776 C 244.400 55.009,244.040 55.200,243.600 55.200 C 243.067 55.200,242.800 55.467,242.800 56.000 C 242.800 56.533,242.533 56.800,242.000 56.800 C 241.560 56.800,241.200 56.980,241.200 57.200 C 241.200 57.420,240.795 57.603,240.300 57.606 C 239.756 57.610,239.584 57.729,239.866 57.909 C 240.217 58.132,240.207 58.376,239.826 58.896 C 239.548 59.277,239.212 59.479,239.079 59.346 C 238.783 59.049,234.800 61.924,234.800 62.434 C 234.800 62.635,234.485 62.814,234.100 62.832 C 233.622 62.853,233.571 62.931,233.939 63.078 C 234.319 63.229,234.098 63.638,233.188 64.470 C 232.479 65.117,231.652 65.552,231.350 65.436 C 231.045 65.319,230.800 65.475,230.800 65.786 C 230.800 66.094,230.437 66.461,229.994 66.602 C 229.551 66.743,229.292 67.026,229.420 67.232 C 229.547 67.437,229.369 67.714,229.025 67.846 C 228.681 67.978,228.400 68.336,228.400 68.643 C 228.400 68.949,228.226 69.200,228.013 69.200 C 227.799 69.200,227.728 69.468,227.853 69.795 C 228.001 70.180,227.645 70.639,226.843 71.095 C 226.037 71.554,225.604 72.114,225.603 72.700 C 225.601 73.195,225.420 73.600,225.200 73.600 C 224.980 73.600,224.800 73.870,224.800 74.200 C 224.800 74.530,224.620 74.800,224.400 74.800 C 224.180 74.800,224.000 75.160,224.000 75.600 C 224.000 76.040,223.820 76.400,223.600 76.400 C 223.380 76.400,223.200 76.760,223.200 77.200 C 223.200 77.640,223.007 78.000,222.771 78.000 C 222.536 78.000,222.376 78.405,222.416 78.900 C 222.533 80.352,222.424 80.862,222.045 80.628 C 221.850 80.507,221.482 80.661,221.226 80.969 C 220.921 81.336,220.900 81.615,221.165 81.779 C 221.435 81.945,221.422 82.354,221.126 83.002 C 220.883 83.537,220.550 83.893,220.387 83.792 C 220.224 83.691,219.997 83.967,219.883 84.404 C 219.769 84.842,219.832 85.200,220.025 85.200 C 220.217 85.200,220.265 85.485,220.132 85.834 C 219.981 86.226,219.790 86.307,219.628 86.046 C 219.485 85.814,219.118 86.471,218.812 87.506 C 218.506 88.541,217.921 89.747,217.512 90.187 C 216.797 90.954,216.796 91.009,217.483 91.547 C 218.146 92.066,218.148 92.090,217.500 91.866 C 217.042 91.708,216.800 91.828,216.800 92.213 C 216.800 92.536,216.641 92.800,216.447 92.800 C 216.252 92.800,216.007 93.250,215.902 93.800 C 215.797 94.350,215.877 94.800,216.079 94.800 C 216.282 94.800,216.334 94.983,216.196 95.207 C 216.058 95.430,215.777 95.509,215.572 95.383 C 215.368 95.256,215.200 95.523,215.200 95.976 C 215.200 96.429,215.001 96.800,214.757 96.800 C 214.514 96.800,214.413 97.057,214.533 97.371 C 214.654 97.685,214.489 98.160,214.167 98.428 C 213.844 98.695,213.667 99.001,213.773 99.107 C 213.879 99.212,213.580 100.042,213.109 100.950 C 212.638 101.857,212.241 103.140,212.226 103.800 C 212.211 104.477,211.999 104.962,211.740 104.913 C 211.244 104.820,210.684 106.382,210.632 108.000 C 210.614 108.557,210.385 108.958,210.114 108.905 C 209.847 108.852,209.725 109.059,209.842 109.364 C 209.959 109.669,209.862 110.038,209.627 110.183 C 209.392 110.328,209.200 110.872,209.200 111.390 C 209.200 111.909,209.065 112.393,208.900 112.467 C 208.412 112.684,206.800 116.013,206.800 116.804 C 206.800 117.205,206.622 117.593,206.403 117.667 C 206.185 117.740,205.966 118.295,205.916 118.900 C 205.866 119.505,205.685 120.000,205.513 120.000 C 205.341 120.000,205.200 120.461,205.200 121.024 C 205.200 121.604,205.027 121.940,204.800 121.800 C 204.580 121.664,204.400 121.913,204.400 122.353 C 204.400 122.793,204.220 123.264,204.000 123.400 C 203.780 123.536,203.600 124.187,203.600 124.847 C 203.600 125.647,203.447 125.953,203.142 125.764 C 202.825 125.568,202.747 125.811,202.888 126.550 C 203.001 127.138,202.909 127.733,202.685 127.871 C 202.434 128.026,202.401 127.922,202.600 127.600 C 202.814 127.254,202.767 127.173,202.462 127.362 C 202.208 127.519,202.000 128.087,202.000 128.624 C 202.000 129.161,201.820 129.600,201.600 129.600 C 201.375 129.600,201.200 130.725,201.200 132.176 C 201.200 133.593,201.380 134.864,201.600 135.000 C 201.820 135.136,202.000 135.687,202.000 136.224 C 202.000 137.008,202.204 137.200,203.037 137.200 C 203.737 137.200,204.143 137.459,204.283 137.996 C 204.397 138.433,204.638 138.700,204.818 138.589 C 204.998 138.478,205.260 138.573,205.400 138.800 C 205.540 139.027,205.808 139.118,205.996 139.003 C 206.183 138.887,206.722 139.284,207.195 139.884 C 207.667 140.484,208.446 140.981,208.927 140.988 C 209.407 140.995,209.755 141.225,209.700 141.500 C 209.645 141.775,209.735 141.981,209.900 141.957 C 210.585 141.858,211.974 142.518,211.772 142.845 C 211.651 143.040,211.754 143.200,212.000 143.200 C 212.246 143.200,212.348 143.361,212.226 143.558 C 211.938 144.024,213.134 144.482,213.736 144.137 C 213.991 143.991,214.068 144.017,213.907 144.195 C 213.464 144.686,215.174 145.985,215.898 145.707 C 216.317 145.546,216.434 145.622,216.242 145.932 C 216.068 146.213,216.202 146.400,216.576 146.400 C 216.919 146.400,217.200 146.580,217.200 146.800 C 217.200 147.020,217.483 147.200,217.829 147.200 C 218.574 147.200,219.669 148.197,219.314 148.552 C 219.178 148.689,219.592 148.813,220.233 148.828 C 221.246 148.853,221.295 148.901,220.600 149.200 C 219.851 149.522,219.848 149.546,220.553 149.572 C 220.967 149.587,221.642 149.988,222.053 150.461 C 222.755 151.271,222.802 151.277,222.832 150.561 C 222.855 149.995,222.923 149.952,223.096 150.393 C 223.432 151.249,224.085 151.780,225.000 151.940 C 225.440 152.017,225.932 152.287,226.094 152.540 C 226.256 152.793,226.391 152.853,226.394 152.673 C 226.406 152.049,228.857 154.099,229.210 155.027 C 229.460 155.685,229.810 155.914,230.393 155.801 C 230.849 155.714,231.136 155.780,231.032 155.948 C 230.928 156.117,231.463 156.479,232.221 156.753 C 232.980 157.027,233.600 157.420,233.600 157.626 C 233.600 157.832,233.870 158.000,234.200 158.000 C 234.530 158.000,235.147 158.315,235.571 158.700 C 237.021 160.016,237.566 160.400,237.983 160.400 C 238.212 160.400,238.400 160.580,238.400 160.800 C 238.400 161.020,238.627 161.200,238.904 161.200 C 239.181 161.200,239.942 161.695,240.594 162.300 C 241.247 162.905,241.785 163.338,241.790 163.261 C 241.810 162.983,244.395 164.609,244.397 164.900 C 244.399 165.065,244.584 165.200,244.809 165.200 C 245.500 165.200,248.399 167.278,248.187 167.621 C 248.077 167.799,248.198 168.075,248.455 168.234 C 248.748 168.415,248.816 168.350,248.638 168.062 C 248.469 167.788,248.607 167.600,248.976 167.600 C 249.322 167.600,249.600 167.938,249.600 168.357 C 249.600 169.272,250.530 169.710,251.151 169.089 C 251.483 168.757,251.600 168.817,251.600 169.320 C 251.600 169.694,251.870 170.000,252.200 170.000 C 252.530 170.000,252.800 170.151,252.800 170.336 C 252.800 170.520,253.246 170.875,253.792 171.124 C 254.491 171.442,254.707 171.776,254.524 172.253 C 254.352 172.701,254.418 172.836,254.717 172.651 C 255.035 172.455,255.162 173.033,255.144 174.584 C 255.129 175.801,254.956 176.696,254.759 176.574 C 254.561 176.453,254.397 176.858,254.394 177.476 C 254.389 178.349,254.301 178.466,254.000 178.000 C 253.787 177.670,253.609 177.591,253.606 177.825 C 253.603 178.058,253.222 178.655,252.760 179.151 C 252.281 179.664,252.004 180.372,252.115 180.796 C 252.250 181.312,252.139 181.475,251.755 181.327 C 251.450 181.210,251.200 181.324,251.200 181.581 C 251.200 181.837,250.992 181.919,250.738 181.762 C 250.472 181.597,250.384 181.651,250.531 181.888 C 250.671 182.114,250.347 182.772,249.812 183.350 C 249.276 183.927,248.947 184.400,249.080 184.400 C 249.213 184.400,248.935 184.736,248.461 185.147 C 247.988 185.558,247.600 186.076,247.600 186.298 C 247.600 186.520,247.332 186.924,247.004 187.196 C 246.677 187.468,246.525 187.878,246.666 188.107 C 246.812 188.343,246.731 188.405,246.479 188.249 C 245.975 187.937,244.614 189.776,244.949 190.317 C 245.307 190.897,244.033 192.387,243.389 192.140 C 242.946 191.970,242.800 192.232,242.800 193.200 C 242.800 194.218,242.666 194.434,242.155 194.238 C 241.694 194.061,241.577 194.163,241.743 194.595 C 241.901 195.009,241.726 195.200,241.187 195.200 C 240.609 195.200,240.400 195.472,240.400 196.224 C 240.400 196.787,240.235 197.145,240.032 197.020 C 239.454 196.662,238.406 197.951,238.685 198.677 C 238.853 199.115,238.781 199.235,238.468 199.042 C 238.026 198.769,237.804 199.300,237.986 200.200 C 238.030 200.420,237.933 200.467,237.770 200.303 C 237.355 199.888,236.352 200.799,236.666 201.307 C 236.816 201.550,236.730 201.604,236.458 201.436 C 236.003 201.155,235.130 202.719,235.443 203.255 C 235.524 203.395,235.278 203.755,234.896 204.055 C 234.291 204.529,234.252 204.519,234.600 203.981 C 234.820 203.641,234.596 203.821,234.102 204.381 C 233.608 204.941,233.203 205.610,233.202 205.867 C 233.201 206.123,232.742 206.667,232.182 207.075 C 231.622 207.483,231.132 208.237,231.094 208.752 C 231.052 209.304,230.665 209.823,230.150 210.019 C 229.117 210.412,228.701 211.001,228.643 212.154 C 228.619 212.619,228.375 213.000,228.100 213.000 C 227.825 213.000,227.616 213.164,227.636 213.364 C 227.656 213.564,227.386 213.888,227.036 214.084 C 225.725 214.818,226.385 215.789,229.292 217.400 C 232.251 219.040,235.369 220.784,238.200 222.382 C 239.080 222.879,239.980 223.427,240.200 223.600 C 240.420 223.773,241.275 224.294,242.100 224.757 C 242.925 225.221,244.275 225.987,245.100 226.459 C 245.925 226.931,247.590 227.859,248.800 228.520 C 250.010 229.181,251.478 230.055,252.062 230.461 C 252.646 230.867,253.243 231.200,253.390 231.200 C 254.280 231.200,258.560 234.765,260.413 237.050 C 261.386 238.250,263.485 242.822,264.018 244.904 C 264.581 247.101,264.544 248.079,262.805 276.600 C 262.564 280.560,262.191 286.860,261.978 290.600 C 261.764 294.340,261.409 300.370,261.189 304.000 C 260.969 307.630,260.609 313.660,260.389 317.400 C 260.169 321.140,259.886 325.325,259.759 326.700 C 259.519 329.309,259.657 329.600,260.661 328.596 C 260.993 328.264,261.428 328.094,261.628 328.217 C 261.827 328.341,261.883 328.160,261.751 327.816 C 261.577 327.362,261.687 327.259,262.155 327.438 C 262.510 327.574,262.800 327.530,262.800 327.340 C 262.800 327.151,263.350 326.752,264.023 326.454 C 264.696 326.156,265.154 325.821,265.042 325.709 C 264.721 325.388,265.875 324.400,266.571 324.400 C 266.917 324.400,267.200 324.205,267.200 323.967 C 267.200 323.728,267.425 323.609,267.700 323.702 C 267.975 323.794,268.438 323.584,268.730 323.235 C 269.045 322.857,269.141 322.828,268.968 323.162 C 268.776 323.531,268.835 323.626,269.138 323.438 C 269.392 323.281,269.600 322.809,269.600 322.389 C 269.600 321.941,269.807 321.705,270.101 321.817 C 270.377 321.923,271.678 321.302,272.993 320.438 C 274.308 319.573,275.550 318.969,275.753 319.095 C 275.957 319.221,275.995 319.116,275.838 318.862 C 275.669 318.588,275.807 318.400,276.176 318.400 C 276.519 318.400,276.800 318.170,276.800 317.889 C 276.800 317.291,278.377 315.843,278.689 316.155 C 278.806 316.272,279.445 316.087,280.110 315.743 C 281.626 314.959,283.424 313.202,282.718 313.194 C 282.314 313.189,282.319 313.112,282.744 312.843 C 283.044 312.653,283.629 312.587,284.044 312.696 C 284.556 312.830,284.800 312.684,284.800 312.243 C 284.800 311.857,285.457 311.331,286.417 310.947 C 287.306 310.591,287.944 310.211,287.836 310.102 C 287.599 309.866,288.603 308.803,289.071 308.793 C 289.252 308.789,289.815 308.349,290.322 307.814 C 290.891 307.214,291.490 306.936,291.887 307.089 C 292.308 307.250,292.434 307.178,292.249 306.880 C 292.076 306.600,292.360 306.325,292.984 306.168 C 293.543 306.028,294.000 305.663,294.000 305.357 C 294.000 305.050,294.168 304.800,294.373 304.800 C 294.578 304.800,294.866 304.424,295.012 303.963 C 295.184 303.421,295.521 303.191,295.970 303.308 C 296.780 303.520,297.740 302.891,298.110 301.907 C 298.266 301.489,298.613 301.307,298.981 301.448 C 299.339 301.585,299.696 301.416,299.839 301.042 C 299.975 300.689,300.347 300.400,300.666 300.400 C 300.986 300.400,301.136 300.220,301.000 300.000 C 300.864 299.780,301.033 299.600,301.376 299.600 C 301.719 299.600,302.000 299.409,302.000 299.176 C 302.000 298.943,302.157 298.850,302.348 298.968 C 302.848 299.277,304.400 297.828,304.400 297.053 C 304.400 296.694,304.658 296.400,304.973 296.400 C 305.288 296.400,305.930 295.860,306.400 295.200 C 306.870 294.540,307.515 294.000,307.834 294.000 C 308.153 294.000,309.006 293.415,309.730 292.700 C 311.463 290.987,312.723 290.000,313.178 290.000 C 313.380 290.000,313.666 289.624,313.812 289.163 C 313.990 288.601,314.317 288.390,314.809 288.518 C 315.345 288.658,315.476 288.543,315.301 288.085 C 315.129 287.638,315.238 287.529,315.687 287.701 C 316.104 287.861,316.735 287.417,317.575 286.371 C 318.270 285.507,319.118 284.800,319.462 284.800 C 319.871 284.800,320.001 284.578,319.838 284.155 C 319.666 283.706,319.764 283.577,320.162 283.730 C 320.477 283.851,320.833 283.691,320.954 283.375 C 321.076 283.059,321.430 282.800,321.741 282.800 C 322.052 282.800,322.401 282.440,322.516 282.000 C 322.631 281.560,323.031 281.200,323.405 281.200 C 323.884 281.200,324.007 280.996,323.822 280.512 C 323.676 280.134,323.672 279.939,323.813 280.079 C 324.176 280.442,325.608 279.165,326.024 278.108 C 326.217 277.617,326.605 277.302,326.887 277.408 C 327.169 277.514,327.831 276.966,328.358 276.191 C 328.884 275.416,329.401 274.868,329.505 274.972 C 329.772 275.238,330.800 274.153,330.800 273.605 C 330.800 273.356,330.980 273.264,331.200 273.400 C 331.420 273.536,331.600 273.446,331.600 273.200 C 331.600 272.954,331.764 272.854,331.965 272.978 C 332.166 273.103,333.081 272.483,333.998 271.602 C 334.915 270.721,335.554 270.000,335.419 270.000 C 335.283 270.000,335.583 269.574,336.086 269.053 C 336.589 268.532,337.135 268.182,337.300 268.276 C 337.465 268.370,337.600 268.077,337.600 267.624 C 337.600 267.067,337.859 266.800,338.400 266.800 C 338.963 266.800,339.200 266.533,339.201 265.900 C 339.202 265.346,339.663 264.692,340.400 264.200 C 341.059 263.760,341.598 263.179,341.599 262.909 C 341.599 262.639,342.095 262.103,342.700 261.716 C 343.305 261.330,344.250 260.539,344.800 259.959 C 346.821 257.825,347.999 256.400,347.741 256.400 C 347.595 256.400,347.798 256.044,348.191 255.609 C 348.585 255.175,349.067 254.918,349.263 255.039 C 349.459 255.160,349.573 255.111,349.516 254.930 C 349.366 254.450,351.499 252.438,351.835 252.742 C 351.991 252.884,352.022 252.607,351.904 252.128 C 351.666 251.161,352.847 249.600,353.816 249.600 C 354.137 249.600,354.405 249.465,354.412 249.300 C 354.419 249.135,355.409 247.928,356.612 246.617 C 357.815 245.306,358.800 244.001,358.800 243.717 C 358.800 243.433,358.980 243.200,359.200 243.200 C 359.420 243.200,359.600 242.767,359.600 242.237 C 359.600 241.472,359.764 241.318,360.400 241.484 C 361.014 241.645,361.200 241.496,361.200 240.847 C 361.200 240.381,361.380 240.000,361.600 240.000 C 361.820 240.000,362.000 239.610,362.000 239.133 C 362.000 238.657,362.119 238.386,362.264 238.531 C 362.410 238.676,362.739 238.391,362.997 237.898 C 363.255 237.404,363.676 237.045,363.933 237.100 C 364.190 237.155,364.400 237.020,364.400 236.800 C 364.400 235.823,365.196 234.761,365.700 235.066 C 365.865 235.165,366.000 234.967,366.000 234.624 C 366.000 234.017,366.274 233.627,368.227 231.445 C 368.742 230.870,369.037 230.397,368.882 230.394 C 368.727 230.391,368.854 230.227,369.164 230.031 C 369.474 229.834,369.774 229.252,369.831 228.737 C 369.887 228.222,369.948 227.665,369.967 227.500 C 369.985 227.335,370.135 227.221,370.300 227.247 C 371.155 227.382,371.551 227.137,371.345 226.600 C 371.193 226.206,371.358 226.000,371.824 226.000 C 372.214 226.000,372.421 225.887,372.283 225.749 C 372.023 225.490,373.057 223.200,373.434 223.200 C 373.551 223.200,373.519 223.408,373.362 223.662 C 373.198 223.926,373.251 224.016,373.485 223.871 C 373.709 223.733,373.801 223.138,373.688 222.550 C 373.548 221.813,373.626 221.569,373.940 221.763 C 374.214 221.932,374.595 221.596,374.892 220.923 C 375.165 220.305,375.705 219.565,376.094 219.277 C 376.482 218.990,376.800 218.405,376.800 217.977 C 376.800 217.550,376.980 217.200,377.200 217.200 C 377.420 217.200,377.600 216.989,377.600 216.731 C 377.600 216.474,377.898 215.934,378.262 215.531 C 378.693 215.055,378.755 214.800,378.438 214.800 C 378.171 214.800,378.066 214.617,378.204 214.393 C 378.342 214.170,378.613 214.085,378.807 214.204 C 379.000 214.324,379.088 214.057,379.002 213.611 C 378.916 213.165,379.028 212.800,379.252 212.800 C 379.869 212.800,380.800 211.735,380.800 211.029 C 380.800 210.683,380.980 210.400,381.200 210.400 C 381.420 210.400,381.600 210.040,381.600 209.600 C 381.600 209.160,381.780 208.800,382.000 208.800 C 382.220 208.800,382.400 208.440,382.400 208.000 C 382.400 207.560,382.599 207.200,382.843 207.200 C 383.086 207.200,383.179 206.923,383.050 206.585 C 382.912 206.227,383.075 205.869,383.439 205.730 C 383.807 205.589,383.986 205.189,383.873 204.759 C 383.765 204.345,384.088 203.557,384.617 202.941 C 385.131 202.343,385.517 201.662,385.476 201.427 C 385.434 201.192,385.614 201.041,385.875 201.092 C 386.146 201.144,386.288 200.856,386.205 200.423 C 386.124 200.005,386.306 199.568,386.610 199.452 C 386.913 199.335,387.093 198.881,387.008 198.443 C 386.900 197.882,387.024 197.711,387.427 197.866 C 387.742 197.987,388.000 197.886,388.000 197.643 C 388.000 197.399,387.786 197.200,387.524 197.200 C 387.261 197.200,387.396 196.936,387.824 196.613 C 388.251 196.290,388.420 196.017,388.200 196.007 C 387.980 195.996,388.070 195.813,388.400 195.600 C 388.897 195.279,388.863 195.211,388.200 195.203 C 387.531 195.196,387.596 195.065,388.600 194.400 C 389.617 193.726,389.678 193.601,389.000 193.575 L 388.200 193.544 389.000 193.200 C 389.440 193.011,389.643 192.844,389.451 192.828 C 389.259 192.813,389.303 192.558,389.548 192.263 C 389.793 191.968,389.876 191.609,389.732 191.466 C 389.589 191.322,389.725 190.889,390.036 190.502 C 390.768 189.591,391.602 188.094,391.594 187.705 C 391.591 187.537,391.413 187.670,391.200 188.000 C 390.987 188.330,390.809 188.399,390.806 188.154 C 390.803 187.909,391.160 187.250,391.600 186.691 C 392.040 186.131,392.400 185.297,392.400 184.837 C 392.400 184.377,392.580 184.000,392.800 184.000 C 393.020 184.000,393.200 183.719,393.200 183.376 C 393.200 183.025,393.008 182.871,392.760 183.025 C 392.486 183.194,392.512 182.939,392.828 182.348 C 393.107 181.827,393.305 181.355,393.268 181.300 C 393.230 181.245,393.213 180.885,393.228 180.500 C 393.252 179.901,393.306 179.916,393.600 180.600 C 393.865 181.217,393.957 180.988,394.000 179.600 C 394.043 178.212,394.135 177.983,394.400 178.600 C 394.726 179.360,394.982 178.102,394.907 176.100 C 394.897 175.825,395.011 175.600,395.159 175.600 C 395.308 175.600,395.460 175.198,395.497 174.706 C 395.534 174.214,395.752 173.749,395.982 173.673 C 396.212 173.596,396.400 172.749,396.400 171.790 C 396.400 170.832,396.580 169.936,396.800 169.800 C 397.020 169.664,397.200 168.944,397.200 168.200 C 397.200 167.456,397.395 166.727,397.633 166.579 C 397.896 166.417,397.995 165.470,397.886 164.178 C 397.754 162.613,397.852 161.989,398.253 161.835 C 398.584 161.708,398.800 161.020,398.800 160.093 C 398.800 159.250,399.001 158.359,399.247 158.113 C 399.755 157.605,400.267 131.240,399.792 130.083 C 399.637 129.707,399.542 128.209,399.581 126.752 C 399.630 124.882,399.496 124.046,399.124 123.903 C 398.762 123.764,398.613 122.944,398.647 121.259 C 398.673 119.916,398.539 118.914,398.348 119.032 C 398.156 119.151,398.000 118.607,398.000 117.824 C 398.000 117.041,397.856 116.400,397.680 116.400 C 397.503 116.400,397.120 115.054,396.828 113.408 C 396.473 111.412,396.147 110.506,395.848 110.685 C 395.602 110.833,395.634 110.665,395.919 110.312 C 396.269 109.881,396.301 109.586,396.019 109.412 C 395.789 109.269,395.597 108.758,395.594 108.276 C 395.589 107.564,395.515 107.512,395.200 108.000 C 394.773 108.660,394.678 108.360,394.788 106.700 C 394.828 106.095,394.667 105.600,394.430 105.600 C 394.194 105.600,394.000 105.096,394.000 104.480 C 394.000 103.864,393.821 103.181,393.602 102.962 C 393.384 102.744,393.165 102.086,393.117 101.501 C 393.068 100.917,392.956 100.511,392.867 100.600 C 392.677 100.790,391.600 99.774,391.600 99.405 C 391.600 99.266,391.808 99.281,392.062 99.438 C 392.316 99.595,391.957 98.900,391.265 97.894 C 390.413 96.657,390.167 96.011,390.503 95.897 C 390.899 95.764,390.899 95.608,390.503 95.128 C 390.230 94.797,390.135 94.398,390.291 94.242 C 390.448 94.086,390.237 94.088,389.824 94.246 C 389.198 94.486,389.110 94.389,389.298 93.667 C 389.455 93.067,389.343 92.800,388.936 92.800 C 388.526 92.800,388.424 92.553,388.603 91.990 C 388.777 91.442,388.694 91.216,388.345 91.290 C 388.037 91.356,387.817 90.989,387.798 90.372 C 387.780 89.806,387.363 88.913,386.873 88.386 C 386.382 87.859,386.069 87.197,386.178 86.914 C 386.286 86.631,386.243 86.400,386.082 86.400 C 385.921 86.400,385.605 85.995,385.380 85.500 C 385.155 85.005,384.752 84.645,384.485 84.700 C 384.192 84.760,384.000 84.335,384.000 83.627 C 384.000 82.805,383.760 82.378,383.200 82.200 C 382.760 82.060,382.400 81.675,382.400 81.344 C 382.400 80.701,381.209 79.319,380.829 79.521 C 380.703 79.588,380.535 79.325,380.455 78.938 C 380.231 77.852,379.154 76.381,378.761 76.624 C 378.567 76.744,378.516 76.562,378.647 76.221 C 378.802 75.818,378.659 75.600,378.243 75.600 C 377.889 75.600,377.600 75.368,377.600 75.084 C 377.600 74.454,374.710 71.200,374.151 71.200 C 373.930 71.200,373.502 70.570,373.200 69.800 C 372.898 69.030,372.494 68.400,372.302 68.400 C 372.110 68.400,372.067 68.216,372.206 67.990 C 372.345 67.765,372.221 67.630,371.930 67.690 C 371.638 67.751,371.449 67.562,371.510 67.270 C 371.570 66.979,371.463 66.838,371.271 66.956 C 371.079 67.075,370.417 66.644,369.800 66.000 C 369.183 65.356,368.544 64.911,368.381 65.012 C 368.217 65.113,367.985 64.938,367.864 64.624 C 367.744 64.309,367.860 63.955,368.122 63.836 C 368.385 63.717,368.150 63.661,367.600 63.710 C 366.945 63.769,366.638 63.616,366.711 63.266 C 366.773 62.972,366.458 62.636,366.011 62.519 C 365.272 62.326,365.024 61.915,365.153 61.100 C 365.197 60.821,364.583 60.648,363.912 60.749 C 363.754 60.773,363.432 60.434,363.198 59.996 C 362.964 59.558,362.495 59.200,362.157 59.200 C 361.423 59.200,360.334 58.199,360.686 57.848 C 360.822 57.711,360.648 57.600,360.300 57.600 C 359.952 57.600,359.603 57.410,359.526 57.178 C 359.406 56.817,358.686 56.552,357.500 56.431 C 357.335 56.414,357.200 56.130,357.200 55.800 C 357.200 55.453,356.821 55.188,356.300 55.172 C 355.486 55.146,355.473 55.115,356.160 54.845 C 356.925 54.546,355.832 53.867,354.016 53.514 C 353.326 53.380,352.438 52.686,352.590 52.400 C 352.648 52.290,352.141 51.750,351.463 51.200 C 350.785 50.650,350.359 50.408,350.516 50.663 C 350.731 51.012,350.564 51.013,349.835 50.669 C 349.303 50.418,348.935 50.106,349.016 49.974 C 349.097 49.843,348.542 49.491,347.782 49.193 C 347.022 48.895,346.400 48.494,346.400 48.302 C 346.400 48.110,346.206 48.073,345.969 48.219 C 345.733 48.365,345.169 48.088,344.717 47.603 C 344.065 46.903,343.825 46.833,343.554 47.261 C 343.287 47.682,343.211 47.652,343.206 47.123 C 343.202 46.661,342.944 46.495,342.395 46.601 C 341.931 46.690,341.228 46.384,340.736 45.878 C 340.267 45.395,340.020 45.242,340.189 45.538 C 340.406 45.922,340.279 46.035,339.747 45.933 C 339.336 45.854,339.000 45.582,339.000 45.328 C 339.000 45.074,338.865 44.732,338.700 44.567 C 338.535 44.402,338.400 44.477,338.400 44.733 C 338.400 45.336,337.334 45.340,336.962 44.738 C 336.774 44.435,336.869 44.376,337.238 44.568 C 337.547 44.728,337.451 44.576,337.024 44.230 C 336.596 43.883,335.831 43.600,335.324 43.600 C 334.816 43.600,334.397 43.375,334.394 43.100 C 334.390 42.762,334.267 42.790,334.015 43.189 C 333.696 43.693,333.605 43.679,333.380 43.091 C 333.235 42.714,332.962 42.500,332.774 42.616 C 332.586 42.732,332.065 42.641,331.616 42.414 C 331.167 42.186,330.442 41.820,330.005 41.600 C 329.568 41.380,328.488 41.200,327.605 41.200 C 326.722 41.200,326.000 41.020,326.000 40.800 C 326.000 40.580,325.655 40.400,325.233 40.400 C 324.812 40.400,324.407 40.225,324.333 40.012 C 324.260 39.799,323.171 39.591,321.914 39.551 C 320.657 39.511,319.709 39.348,319.807 39.189 C 319.905 39.030,319.542 38.900,319.000 38.900 C 318.388 38.900,318.110 39.070,318.266 39.350 C 318.407 39.603,318.282 39.581,317.979 39.300 C 317.682 39.025,316.835 38.800,316.096 38.800 C 315.357 38.800,314.852 38.640,314.972 38.445 C 315.094 38.247,313.110 38.062,310.496 38.027 C 307.913 37.992,305.740 37.792,305.667 37.582 C 305.469 37.015,304.001 37.119,303.994 37.700 C 303.990 38.039,303.851 38.007,303.563 37.600 C 303.244 37.148,303.089 37.124,302.936 37.500 C 302.692 38.101,298.800 38.195,298.800 37.600 C 298.800 37.069,293.879 37.081,293.347 37.613 M88.968 50.749 C 89.321 51.319,88.452 51.460,85.201 51.362 C 83.298 51.305,82.100 51.439,81.921 51.728 C 81.766 51.978,81.001 52.128,80.220 52.061 C 79.397 51.990,78.800 52.120,78.800 52.369 C 78.800 52.619,77.962 52.800,76.800 52.800 C 75.700 52.800,74.800 52.980,74.800 53.200 C 74.800 53.420,74.260 53.600,73.600 53.600 C 72.910 53.600,72.397 53.812,72.394 54.100 C 72.390 54.433,72.258 54.400,72.000 54.000 C 71.742 53.600,71.610 53.567,71.606 53.900 C 71.603 54.188,71.090 54.400,70.400 54.400 C 69.740 54.400,69.200 54.580,69.200 54.800 C 69.200 55.020,68.761 55.200,68.224 55.200 C 67.687 55.200,67.136 55.380,67.000 55.600 C 66.864 55.820,66.324 56.000,65.800 56.000 C 65.276 56.000,64.736 56.180,64.600 56.400 C 64.464 56.620,63.868 56.803,63.276 56.806 C 62.434 56.811,62.331 56.897,62.800 57.200 C 63.284 57.513,63.224 57.589,62.490 57.594 C 61.911 57.598,61.453 57.936,61.229 58.522 C 61.037 59.030,60.186 59.969,59.339 60.610 C 57.227 62.210,48.547 70.907,46.377 73.600 C 45.402 74.810,44.384 76.032,44.116 76.315 C 43.848 76.598,43.313 77.363,42.928 78.015 C 42.543 78.667,42.086 79.200,41.914 79.200 C 41.741 79.200,41.600 79.397,41.600 79.637 C 41.600 79.877,41.229 80.552,40.777 81.137 C 37.988 84.737,32.678 94.652,30.438 100.440 C 29.723 102.288,28.972 104.113,28.769 104.495 C 28.566 104.877,28.400 105.541,28.400 105.971 C 28.400 106.401,28.220 106.864,28.000 107.000 C 27.780 107.136,27.600 107.599,27.600 108.029 C 27.600 108.459,27.442 109.123,27.249 109.505 C 26.680 110.633,26.000 112.996,26.000 113.848 C 26.000 114.284,25.838 114.811,25.641 115.020 C 25.444 115.229,25.183 116.120,25.061 117.000 C 24.940 117.880,24.643 119.590,24.401 120.800 C 23.312 126.244,23.069 129.707,23.054 140.000 C 23.037 151.571,23.337 154.977,25.205 164.400 C 25.444 165.610,25.741 167.276,25.863 168.103 C 25.985 168.929,26.245 169.705,26.442 169.826 C 26.639 169.948,26.800 170.656,26.800 171.400 C 26.800 172.144,26.980 172.864,27.200 173.000 C 27.420 173.136,27.600 173.689,27.600 174.229 C 27.600 174.769,27.762 175.523,27.959 175.905 C 28.156 176.287,28.718 177.950,29.207 179.600 C 29.695 181.250,30.236 182.960,30.407 183.400 C 30.579 183.840,30.936 184.830,31.200 185.600 C 31.782 187.293,32.371 188.760,32.847 189.695 C 33.041 190.077,33.200 190.566,33.200 190.783 C 33.200 190.999,33.666 192.217,34.236 193.488 C 34.806 194.760,35.839 197.060,36.532 198.600 C 38.853 203.760,44.226 214.071,45.595 215.993 C 46.038 216.615,46.400 217.232,46.400 217.364 C 46.400 217.785,55.673 231.795,56.044 231.933 C 56.240 232.007,56.400 232.230,56.400 232.429 C 56.400 232.628,56.660 233.108,56.978 233.495 C 57.295 233.883,58.420 235.370,59.478 236.800 C 62.108 240.358,61.703 239.851,67.662 247.043 C 75.563 256.581,77.342 258.523,87.210 268.391 C 95.797 276.976,98.053 279.089,105.400 285.420 C 107.160 286.936,108.870 288.456,109.200 288.797 C 109.530 289.137,110.430 289.920,111.200 290.535 C 111.970 291.151,113.230 292.169,114.000 292.799 C 118.064 296.121,122.572 299.699,125.600 302.008 C 127.470 303.434,129.090 304.699,129.200 304.819 C 129.310 304.940,130.030 305.471,130.800 306.000 C 131.570 306.529,132.290 307.072,132.400 307.207 C 132.510 307.342,133.500 308.059,134.600 308.800 C 135.700 309.541,136.690 310.259,136.800 310.395 C 137.129 310.803,153.776 322.229,155.217 323.036 C 155.645 323.275,156.325 323.770,156.729 324.136 C 157.133 324.501,157.674 324.800,157.931 324.800 C 158.189 324.800,158.400 324.980,158.400 325.200 C 158.400 325.420,158.670 325.600,159.000 325.600 C 159.330 325.600,159.600 325.780,159.600 326.000 C 159.600 326.220,159.782 326.400,160.004 326.400 C 160.226 326.400,161.891 327.361,163.704 328.535 C 167.639 331.084,175.172 335.600,175.488 335.600 C 175.611 335.600,175.926 335.893,176.188 336.252 C 176.578 336.785,176.682 336.440,176.757 334.364 C 176.807 332.967,177.001 331.638,177.187 331.412 C 177.510 331.020,177.758 328.865,178.202 322.600 C 178.312 321.060,178.581 319.740,178.801 319.667 C 179.020 319.593,179.200 318.569,179.200 317.390 C 179.200 316.212,179.373 315.140,179.585 315.009 C 179.797 314.878,179.961 313.583,179.950 312.131 C 179.939 310.679,180.100 309.380,180.307 309.245 C 180.515 309.110,180.717 307.837,180.757 306.415 C 180.797 304.993,181.018 303.712,181.249 303.570 C 181.480 303.427,181.653 303.196,181.634 303.055 C 181.434 301.563,181.684 297.912,181.956 298.342 C 182.166 298.675,182.323 297.676,182.360 295.759 C 182.393 294.041,182.611 292.517,182.844 292.373 C 183.078 292.228,183.253 291.996,183.234 291.855 C 183.062 290.569,183.268 287.195,183.510 287.344 C 183.680 287.449,183.866 286.432,183.923 285.083 C 183.981 283.701,184.239 282.496,184.513 282.322 C 184.868 282.096,184.837 282.009,184.400 282.000 C 184.015 281.992,183.956 281.882,184.235 281.694 C 184.474 281.532,184.710 280.325,184.759 279.012 C 184.808 277.698,184.989 276.438,185.161 276.212 C 185.333 275.985,185.510 274.990,185.554 274.000 C 185.659 271.644,185.784 270.883,186.122 270.545 C 186.275 270.392,186.400 269.227,186.400 267.957 C 186.400 266.687,186.569 265.543,186.775 265.416 C 187.320 265.079,187.118 263.600,186.527 263.600 C 186.246 263.600,186.126 263.337,186.254 263.002 C 186.381 262.674,186.645 262.504,186.842 262.626 C 187.039 262.748,187.200 262.466,187.200 262.000 C 187.200 261.534,187.021 261.264,186.801 261.399 C 186.546 261.557,186.553 261.250,186.820 260.547 C 187.162 259.647,187.094 259.254,186.446 258.377 C 185.835 257.551,185.762 257.196,186.127 256.824 C 186.492 256.453,186.467 256.372,186.019 256.471 C 185.699 256.542,185.411 256.330,185.380 256.000 C 185.348 255.670,185.294 255.205,185.261 254.967 C 185.200 254.534,180.072 249.287,174.934 244.400 C 171.106 240.759,169.157 236.415,170.875 235.353 C 171.054 235.243,171.200 234.803,171.200 234.376 C 171.200 233.949,171.393 233.600,171.629 233.600 C 172.294 233.600,173.280 232.453,173.002 232.003 C 172.865 231.781,172.943 231.600,173.176 231.600 C 173.409 231.600,173.601 231.375,173.601 231.100 C 173.602 230.825,174.131 230.246,174.778 229.813 C 175.735 229.171,175.865 228.916,175.476 228.436 C 175.214 228.112,175.180 227.947,175.400 228.070 C 175.620 228.194,176.211 227.868,176.714 227.347 C 177.217 226.826,177.435 226.400,177.198 226.400 C 176.933 226.400,176.966 226.187,177.284 225.844 C 177.658 225.442,177.881 225.414,178.094 225.744 C 178.273 226.022,178.390 225.887,178.394 225.396 C 178.397 224.954,178.760 224.368,179.200 224.093 C 179.640 223.818,180.000 223.314,180.000 222.973 C 180.000 222.606,180.189 222.469,180.462 222.638 C 180.721 222.798,180.816 222.749,180.678 222.527 C 180.356 222.005,181.546 220.320,182.027 220.617 C 182.232 220.744,182.400 220.430,182.400 219.920 C 182.400 219.410,182.760 218.768,183.200 218.493 C 183.640 218.218,184.000 217.725,184.000 217.397 C 184.000 217.068,184.256 216.800,184.568 216.800 C 184.881 216.800,185.255 216.260,185.400 215.600 C 185.545 214.940,185.919 214.400,186.232 214.400 C 186.745 214.400,186.976 213.913,186.847 213.100 C 186.821 212.935,187.025 212.845,187.300 212.900 C 187.575 212.955,187.755 212.775,187.700 212.500 C 187.645 212.225,187.891 212.000,188.247 212.000 C 188.702 212.000,188.830 211.757,188.678 211.177 C 188.512 210.541,188.579 210.451,188.977 210.781 C 189.378 211.114,189.448 210.986,189.297 210.198 C 189.143 209.390,189.234 209.238,189.757 209.439 C 190.246 209.626,190.345 209.522,190.153 209.021 C 189.973 208.552,190.151 208.286,190.748 208.129 C 191.217 208.007,191.600 207.658,191.600 207.353 C 191.600 207.049,191.780 206.800,192.000 206.800 C 192.220 206.800,192.355 206.575,192.300 206.300 C 192.245 206.025,192.425 205.845,192.700 205.900 C 192.975 205.955,193.155 205.775,193.100 205.500 C 193.045 205.225,193.238 205.049,193.530 205.110 C 193.821 205.170,193.945 205.034,193.804 204.807 C 193.664 204.580,193.830 204.287,194.172 204.155 C 194.515 204.024,194.706 203.771,194.596 203.594 C 194.296 203.108,194.832 201.972,195.242 202.226 C 195.439 202.348,195.600 202.167,195.600 201.824 C 195.600 201.481,195.889 201.200,196.243 201.200 C 196.645 201.200,196.801 200.979,196.659 200.611 C 196.535 200.286,196.673 199.881,196.967 199.711 C 197.260 199.540,198.018 198.778,198.650 198.018 C 199.283 197.258,199.575 196.773,199.300 196.941 C 199.022 197.111,198.800 197.059,198.800 196.824 C 198.800 196.591,199.094 196.400,199.453 196.400 C 200.197 196.400,202.194 194.266,201.627 194.076 C 201.424 194.008,201.811 193.423,202.488 192.776 C 203.215 192.082,203.490 191.597,203.159 191.594 C 202.689 191.589,202.691 191.530,203.172 191.226 C 203.486 191.027,203.816 190.535,203.903 190.132 C 204.433 187.705,204.434 187.263,203.908 186.772 C 203.596 186.481,203.417 185.845,203.510 185.360 C 203.682 184.460,202.298 182.635,201.812 183.121 C 201.672 183.261,201.681 183.055,201.831 182.664 C 202.030 182.146,201.873 181.892,201.252 181.729 C 200.783 181.607,200.400 181.337,200.400 181.130 C 200.400 180.922,200.232 180.857,200.026 180.984 C 199.820 181.111,199.229 180.807,198.712 180.308 C 198.195 179.808,197.148 179.050,196.386 178.622 C 195.624 178.195,194.760 177.608,194.468 177.319 C 194.175 177.029,193.770 176.895,193.568 177.020 C 193.365 177.145,193.200 177.057,193.200 176.824 C 193.200 176.591,192.883 176.400,192.496 176.400 C 192.109 176.400,191.568 176.040,191.293 175.600 C 191.018 175.160,190.617 174.800,190.401 174.800 C 190.186 174.800,189.641 174.485,189.192 174.100 C 188.742 173.715,188.200 173.378,187.987 173.350 C 187.774 173.323,187.409 173.278,187.176 173.250 C 186.943 173.222,186.864 173.020,187.000 172.800 C 187.136 172.580,187.044 172.400,186.795 172.400 C 186.185 172.400,185.176 171.358,185.486 171.048 C 185.622 170.911,185.409 170.800,185.014 170.800 C 184.618 170.800,183.958 170.412,183.547 169.939 C 183.105 169.430,182.800 169.291,182.800 169.600 C 182.800 169.899,182.462 169.733,182.010 169.212 C 181.481 168.602,180.946 168.373,180.387 168.519 C 179.867 168.655,179.611 168.567,179.706 168.283 C 179.861 167.818,177.969 166.000,177.331 166.000 C 177.136 166.000,176.717 165.640,176.400 165.200 C 176.083 164.760,175.539 164.400,175.192 164.400 C 174.844 164.400,174.344 164.184,174.080 163.920 C 173.721 163.561,173.600 163.558,173.600 163.907 C 173.600 164.165,173.331 164.272,173.002 164.146 C 172.674 164.019,172.512 163.743,172.642 163.531 C 172.936 163.056,171.547 161.985,171.043 162.297 C 170.841 162.422,170.788 162.343,170.925 162.122 C 171.181 161.706,169.940 160.932,168.679 160.721 C 168.282 160.654,167.967 160.465,167.979 160.300 C 168.010 159.852,166.643 158.505,166.326 158.671 C 166.175 158.750,165.598 158.362,165.044 157.808 C 164.490 157.253,163.798 156.800,163.506 156.800 C 163.215 156.800,162.717 156.440,162.400 156.000 C 162.083 155.560,161.586 155.200,161.295 155.200 C 161.004 155.200,160.549 155.009,160.283 154.776 C 159.848 154.395,159.167 153.937,156.606 152.306 C 156.169 152.028,155.572 151.482,155.279 151.093 C 154.985 150.705,154.602 150.475,154.426 150.584 C 154.251 150.692,153.785 150.425,153.391 149.991 C 152.998 149.556,152.344 149.200,151.938 149.200 C 151.477 149.200,151.200 148.912,151.200 148.433 C 151.200 148.012,150.997 147.599,150.749 147.516 C 150.502 147.434,150.264 147.014,150.221 146.583 C 150.178 146.152,149.997 145.473,149.819 145.073 C 149.623 144.636,149.674 144.166,149.947 143.893 C 150.196 143.644,150.400 142.396,150.400 141.120 C 150.400 139.840,150.579 138.800,150.800 138.800 C 151.020 138.800,151.200 138.001,151.200 137.024 C 151.200 136.047,151.350 135.155,151.533 135.042 C 151.716 134.928,152.105 133.298,152.397 131.418 C 152.690 129.538,153.064 128.000,153.229 128.000 C 153.394 128.000,153.484 127.689,153.428 127.308 C 153.372 126.928,153.495 125.893,153.702 125.008 C 153.909 124.124,154.142 122.813,154.219 122.095 C 154.296 121.376,154.489 120.580,154.647 120.324 C 154.805 120.069,154.945 119.216,154.958 118.430 C 154.971 117.643,155.153 116.879,155.363 116.732 C 155.573 116.584,155.779 115.749,155.822 114.876 C 155.864 114.002,156.036 113.065,156.204 112.793 C 156.372 112.522,156.570 111.647,156.643 110.850 C 156.716 110.052,156.945 108.592,157.152 107.603 C 157.359 106.615,157.431 105.650,157.313 105.459 C 157.194 105.267,157.331 104.966,157.616 104.790 C 157.921 104.601,158.108 103.808,158.071 102.856 C 158.036 101.969,158.186 101.132,158.404 100.998 C 158.622 100.863,158.800 99.953,158.800 98.976 C 158.800 97.999,158.980 97.200,159.200 97.200 C 159.420 97.200,159.600 96.311,159.600 95.224 C 159.600 94.137,159.780 93.136,160.000 93.000 C 160.220 92.864,160.400 91.953,160.400 90.976 C 160.400 89.999,160.542 89.200,160.715 89.200 C 160.888 89.200,161.058 88.486,161.093 87.614 C 161.128 86.742,161.346 85.674,161.578 85.241 C 162.227 84.029,162.130 76.136,161.464 75.880 C 161.114 75.745,160.985 75.211,161.092 74.337 C 161.218 73.316,161.157 73.142,160.834 73.600 C 160.487 74.094,160.411 74.037,160.406 73.276 C 160.403 72.764,160.222 72.463,160.000 72.600 C 159.780 72.736,159.600 72.464,159.600 71.995 C 159.600 71.031,158.418 69.561,158.375 70.471 C 158.361 70.762,158.182 70.583,157.978 70.074 C 157.774 69.565,157.438 69.253,157.231 69.381 C 157.024 69.509,156.742 69.430,156.604 69.207 C 156.466 68.983,156.556 68.800,156.805 68.800 C 157.076 68.800,157.016 68.559,156.657 68.200 C 156.327 67.870,155.886 67.600,155.678 67.600 C 155.469 67.600,155.083 67.341,154.820 67.024 C 154.557 66.707,154.085 66.546,153.771 66.667 C 153.457 66.787,153.200 66.676,153.200 66.419 C 153.200 66.163,153.032 66.056,152.828 66.183 C 152.623 66.309,152.342 66.230,152.204 66.007 C 152.066 65.783,152.188 65.593,152.476 65.584 C 152.764 65.575,152.490 65.292,151.867 64.954 C 151.244 64.616,150.516 64.423,150.250 64.525 C 149.583 64.782,148.260 63.751,148.584 63.227 C 148.735 62.981,148.497 62.779,148.024 62.750 C 147.571 62.723,147.020 62.655,146.800 62.600 C 146.580 62.545,146.119 62.477,145.776 62.450 C 145.433 62.423,145.264 62.220,145.400 62.000 C 145.536 61.780,145.364 61.600,145.018 61.600 C 144.343 61.600,143.116 60.967,141.916 60.000 C 141.506 59.670,140.683 59.395,140.086 59.388 C 139.448 59.381,139.041 59.174,139.100 58.888 C 139.155 58.620,138.840 58.400,138.400 58.400 C 137.960 58.400,137.600 58.199,137.600 57.953 C 137.600 57.702,137.247 57.599,136.793 57.718 C 136.349 57.834,135.721 57.664,135.397 57.340 C 135.073 57.016,134.446 56.724,134.004 56.690 C 133.562 56.657,133.200 56.507,133.200 56.358 C 133.200 56.208,132.921 55.978,132.579 55.847 C 132.178 55.693,132.058 55.771,132.241 56.066 C 132.553 56.571,132.088 56.345,130.363 55.152 C 129.577 54.609,129.213 54.547,128.863 54.897 C 128.512 55.248,128.400 55.243,128.400 54.880 C 128.400 54.598,127.822 54.400,127.000 54.400 C 126.230 54.400,125.599 54.265,125.597 54.100 C 125.592 53.616,123.536 52.800,122.320 52.800 C 121.704 52.800,121.200 52.620,121.200 52.400 C 121.200 52.180,120.426 52.000,119.480 52.000 C 118.534 52.000,117.518 51.775,117.221 51.500 C 116.790 51.100,116.739 51.100,116.965 51.500 C 117.156 51.838,116.947 51.998,116.324 51.994 C 115.596 51.989,115.525 51.909,115.991 51.614 C 116.392 51.361,115.776 51.245,114.071 51.253 C 112.690 51.259,111.338 51.080,111.066 50.855 C 110.433 50.329,88.644 50.224,88.968 50.749 M352.600 250.800 C 352.202 251.240,351.994 251.600,352.138 251.600 C 352.282 251.600,352.760 251.240,353.200 250.800 C 353.640 250.360,353.848 250.000,353.662 250.000 C 353.476 250.000,352.998 250.360,352.600 250.800 M206.647 353.277 C 206.859 353.619,206.279 353.743,205.060 353.614 C 204.196 353.523,202.800 354.878,202.800 355.807 C 202.800 356.159,202.665 356.365,202.500 356.266 C 202.335 356.166,201.968 356.335,201.684 356.642 C 201.401 356.949,201.249 357.200,201.348 357.200 C 201.447 357.200,201.292 358.091,201.005 359.180 C 200.618 360.650,200.601 361.209,200.941 361.349 C 201.259 361.479,201.246 361.547,200.900 361.568 C 200.625 361.586,200.400 361.930,200.400 362.333 C 200.400 362.737,200.274 363.192,200.120 363.346 C 199.967 363.500,199.816 364.208,199.785 364.919 C 199.754 365.630,199.502 366.636,199.224 367.154 C 198.807 367.935,198.813 368.041,199.260 367.771 C 199.673 367.523,199.665 367.613,199.226 368.154 C 198.727 368.768,198.727 368.909,199.226 369.224 C 199.543 369.425,199.598 369.590,199.347 369.594 C 198.937 369.599,197.898 372.750,198.062 373.490 C 198.100 373.661,198.009 374.250,197.861 374.800 C 197.712 375.350,197.526 376.340,197.448 377.000 C 197.369 377.660,197.209 378.470,197.091 378.800 C 196.345 380.890,196.345 380.942,197.084 380.357 C 197.747 379.831,197.747 379.862,197.076 380.911 C 196.686 381.523,196.463 382.179,196.581 382.369 C 196.699 382.560,196.519 382.822,196.180 382.952 C 195.705 383.135,195.660 383.365,195.983 383.968 C 196.212 384.397,196.387 384.984,196.372 385.274 C 196.356 385.563,196.189 385.440,196.000 385.000 C 195.706 384.316,195.652 384.376,195.628 385.420 C 195.613 386.091,195.375 386.882,195.100 387.179 C 194.693 387.617,194.712 387.655,195.200 387.382 C 195.671 387.118,195.710 387.170,195.380 387.623 C 194.256 389.166,195.418 396.362,196.616 395.281 C 196.787 395.126,196.814 395.315,196.676 395.700 C 196.507 396.171,196.625 396.400,197.036 396.400 C 197.372 396.400,197.549 396.559,197.429 396.754 C 197.040 397.383,199.324 397.927,202.480 397.959 C 204.174 397.975,205.669 397.811,205.803 397.594 C 205.938 397.377,206.472 397.200,206.990 397.200 C 207.509 397.200,208.024 396.975,208.135 396.700 C 208.296 396.300,208.343 396.300,208.368 396.700 C 208.386 396.975,208.715 397.197,209.100 397.194 C 209.661 397.189,209.689 397.117,209.241 396.834 C 208.856 396.590,209.120 396.480,210.093 396.480 C 210.868 396.480,211.896 396.270,212.377 396.012 C 213.047 395.654,213.385 395.656,213.826 396.021 C 214.234 396.360,214.400 396.368,214.400 396.049 C 214.400 395.802,214.648 395.600,214.951 395.600 C 215.254 395.600,215.724 395.332,215.996 395.004 C 216.556 394.331,217.355 394.602,216.948 395.328 C 216.769 395.646,216.858 395.637,217.221 395.300 C 217.518 395.025,218.174 394.800,218.680 394.800 C 219.186 394.800,219.600 394.620,219.600 394.400 C 219.600 394.180,220.140 394.000,220.800 394.000 C 221.589 394.000,222.000 393.799,222.000 393.413 C 222.000 393.046,222.233 392.915,222.620 393.063 C 223.121 393.255,223.189 393.095,222.971 392.226 C 222.753 391.357,222.856 391.110,223.511 390.939 C 224.470 390.688,225.004 388.800,224.116 388.800 C 223.642 388.800,223.652 388.691,224.171 388.171 C 224.918 387.425,224.967 386.951,224.338 386.562 C 224.052 386.385,223.985 386.452,224.162 386.738 C 224.319 386.992,224.257 387.200,224.024 387.200 C 223.466 387.200,223.485 386.675,224.063 386.097 C 224.414 385.746,224.402 385.484,224.014 385.017 C 223.732 384.678,223.605 384.400,223.731 384.400 C 223.858 384.400,223.622 383.643,223.208 382.718 C 222.793 381.792,222.543 380.892,222.651 380.718 C 222.759 380.543,222.702 380.400,222.524 380.400 C 222.346 380.400,222.176 379.975,222.146 379.457 C 222.116 378.938,221.798 377.895,221.438 377.137 C 221.079 376.380,220.711 375.409,220.621 374.980 C 220.530 374.551,220.098 373.180,219.661 371.934 C 219.224 370.687,218.971 369.562,219.100 369.434 C 219.228 369.305,219.123 369.200,218.867 369.200 C 218.610 369.200,218.400 368.744,218.400 368.187 C 218.400 367.631,218.157 367.082,217.859 366.967 C 217.538 366.844,217.391 366.380,217.497 365.824 C 217.596 365.309,217.382 364.439,217.023 363.891 C 216.663 363.342,216.414 362.737,216.469 362.547 C 216.525 362.356,216.369 361.840,216.124 361.400 C 215.879 360.960,215.638 360.420,215.589 360.200 C 214.829 356.840,212.352 353.600,210.541 353.600 C 210.023 353.600,209.600 353.413,209.600 353.184 C 209.600 352.950,208.908 352.808,208.024 352.861 C 207.157 352.912,206.538 353.099,206.647 353.277 " stroke="none" fill="#fc5c7c" fill-rule="evenodd"></path><path id="path1" d="M57.446 59.376 C 57.587 59.744,57.359 59.843,56.670 59.711 C 56.133 59.609,55.572 59.722,55.423 59.962 C 55.275 60.203,54.803 60.400,54.376 60.400 C 53.949 60.400,53.600 60.580,53.600 60.800 C 53.600 61.020,53.240 61.200,52.800 61.200 C 52.360 61.200,52.000 61.380,52.000 61.600 C 52.000 61.820,51.764 62.000,51.475 62.000 C 51.187 62.000,50.564 62.360,50.092 62.800 C 49.620 63.240,48.956 63.600,48.617 63.600 C 48.278 63.600,48.000 63.780,48.000 64.000 C 48.000 64.220,47.752 64.400,47.449 64.400 C 47.146 64.400,46.671 64.673,46.394 65.007 C 46.117 65.341,45.285 65.902,44.545 66.253 C 43.805 66.604,43.200 67.051,43.200 67.246 C 43.200 67.441,43.002 67.600,42.760 67.600 C 42.519 67.600,41.825 68.131,41.218 68.781 C 40.611 69.430,39.870 70.015,39.570 70.081 C 39.271 70.146,38.204 71.010,37.200 72.000 C 36.196 72.990,35.164 73.842,34.908 73.893 C 33.698 74.134,24.000 83.842,24.000 84.811 C 24.000 85.023,23.100 86.115,22.000 87.239 C 20.900 88.362,20.000 89.493,20.000 89.752 C 20.000 90.011,19.640 90.483,19.200 90.800 C 18.760 91.117,18.400 91.707,18.400 92.112 C 18.400 92.516,18.247 92.753,18.060 92.637 C 17.873 92.522,17.470 92.916,17.163 93.514 C 16.856 94.111,16.289 94.891,15.903 95.247 C 15.516 95.603,15.200 96.105,15.200 96.364 C 15.200 96.622,14.846 97.213,14.414 97.677 C 13.981 98.141,13.723 98.675,13.839 98.863 C 13.956 99.052,13.769 99.314,13.425 99.446 C 13.081 99.578,12.800 100.026,12.800 100.443 C 12.800 100.859,12.620 101.200,12.400 101.200 C 12.180 101.200,12.000 101.560,12.000 102.000 C 12.000 102.440,11.820 102.800,11.600 102.800 C 11.380 102.800,11.200 103.160,11.200 103.600 C 11.200 104.040,11.020 104.400,10.800 104.400 C 10.580 104.400,10.400 104.760,10.400 105.200 C 10.400 105.640,10.220 106.000,10.000 106.000 C 9.780 106.000,9.600 106.360,9.600 106.800 C 9.600 107.240,9.440 107.600,9.245 107.600 C 9.049 107.600,8.771 108.230,8.626 109.000 C 8.482 109.770,8.192 110.400,7.982 110.400 C 7.772 110.400,7.600 111.030,7.600 111.800 C 7.600 112.570,7.420 113.200,7.200 113.200 C 6.980 113.200,6.800 113.470,6.800 113.800 C 6.800 114.130,6.620 114.400,6.400 114.400 C 6.180 114.400,6.000 114.940,6.000 115.600 C 6.000 116.260,5.820 116.800,5.600 116.800 C 5.380 116.800,5.200 117.340,5.200 118.000 C 5.200 118.660,5.020 119.200,4.800 119.200 C 4.580 119.200,4.400 119.639,4.400 120.176 C 4.400 120.713,4.220 121.264,4.000 121.400 C 3.780 121.536,3.600 122.177,3.600 122.824 C 3.600 123.471,3.420 124.000,3.200 124.000 C 2.980 124.000,2.800 124.619,2.800 125.376 C 2.800 126.133,2.620 126.864,2.400 127.000 C 2.180 127.136,2.000 127.856,2.000 128.600 C 2.000 129.344,1.820 130.064,1.600 130.200 C 1.380 130.336,1.200 131.211,1.200 132.144 C 1.200 133.077,0.989 134.051,0.731 134.309 C 0.399 134.641,0.207 138.519,0.078 147.512 C -0.116 161.063,0.245 172.489,0.838 171.552 C 1.058 171.205,1.190 171.992,1.194 173.676 C 1.197 175.148,1.380 176.464,1.600 176.600 C 1.820 176.736,2.000 177.546,2.000 178.400 C 2.000 179.254,2.180 180.064,2.400 180.200 C 2.620 180.336,2.800 181.247,2.800 182.224 C 2.800 183.201,2.980 184.000,3.200 184.000 C 3.420 184.000,3.600 184.619,3.600 185.376 C 3.600 186.133,3.780 186.864,4.000 187.000 C 4.220 187.136,4.400 187.787,4.400 188.447 C 4.400 189.145,4.567 189.544,4.800 189.400 C 5.042 189.251,5.200 189.796,5.200 190.776 C 5.200 191.669,5.380 192.400,5.600 192.400 C 5.820 192.400,6.000 192.760,6.000 193.200 C 6.000 193.640,6.180 194.000,6.400 194.000 C 6.620 194.000,6.800 194.540,6.800 195.200 C 6.800 195.890,7.012 196.403,7.300 196.406 C 7.633 196.410,7.600 196.542,7.200 196.800 C 6.800 197.058,6.767 197.190,7.100 197.194 C 7.375 197.197,7.600 197.560,7.600 198.000 C 7.600 198.440,7.756 198.800,7.946 198.800 C 8.136 198.800,8.403 199.612,8.539 200.605 C 8.675 201.598,9.149 203.161,9.593 204.080 C 10.037 204.999,10.400 206.076,10.400 206.475 C 10.400 206.874,10.580 207.200,10.800 207.200 C 11.020 207.200,11.200 207.560,11.200 208.000 C 11.200 208.440,11.380 208.800,11.600 208.800 C 11.820 208.800,12.000 209.072,12.000 209.405 C 12.000 209.738,12.180 210.368,12.400 210.805 C 12.620 211.242,12.980 211.958,13.200 212.395 C 13.420 212.832,13.600 213.462,13.600 213.795 C 13.600 214.128,13.780 214.400,14.000 214.400 C 14.220 214.400,14.400 214.760,14.400 215.200 C 14.400 215.640,14.580 216.000,14.800 216.000 C 15.020 216.000,15.200 216.360,15.200 216.800 C 15.200 217.240,15.380 217.600,15.600 217.600 C 15.820 217.600,16.000 217.945,16.000 218.367 C 16.000 218.788,16.135 219.193,16.300 219.267 C 16.465 219.340,17.047 220.300,17.593 221.400 C 18.139 222.500,18.904 223.691,19.293 224.047 C 19.682 224.403,20.000 224.988,20.000 225.347 C 20.000 225.706,20.180 226.000,20.400 226.000 C 20.620 226.000,20.800 226.360,20.800 226.800 C 20.800 227.240,20.980 227.600,21.200 227.600 C 21.420 227.600,21.600 227.920,21.600 228.312 C 21.600 228.703,21.960 229.283,22.400 229.600 C 22.840 229.917,23.200 230.497,23.200 230.888 C 23.200 231.280,23.380 231.600,23.600 231.600 C 23.820 231.600,24.000 231.960,24.000 232.400 C 24.000 232.840,24.153 233.200,24.339 233.200 C 24.526 233.200,25.003 233.920,25.400 234.800 C 25.797 235.680,26.359 236.400,26.648 236.400 C 26.938 236.400,27.086 236.631,26.978 236.914 C 26.869 237.197,27.100 237.782,27.490 238.214 C 27.881 238.646,28.470 239.540,28.800 240.200 C 29.130 240.860,29.895 241.877,30.500 242.460 C 31.105 243.044,31.600 243.769,31.600 244.072 C 31.600 244.375,31.960 244.883,32.400 245.200 C 32.840 245.517,33.200 246.057,33.200 246.400 C 33.200 246.743,33.560 247.283,34.000 247.600 C 34.440 247.917,34.800 248.385,34.800 248.640 C 34.800 248.895,35.520 249.845,36.400 250.752 C 37.280 251.659,38.000 252.598,38.000 252.840 C 38.000 253.081,38.540 253.783,39.200 254.400 C 39.860 255.017,40.403 255.674,40.406 255.860 C 40.409 256.047,41.129 256.996,42.006 257.968 C 42.883 258.940,43.600 259.880,43.600 260.057 C 43.600 260.234,44.410 261.189,45.400 262.179 C 46.390 263.169,47.200 264.151,47.200 264.362 C 47.200 264.573,48.640 266.199,50.400 267.976 C 52.160 269.752,53.600 271.318,53.600 271.456 C 53.600 271.805,55.249 273.200,55.661 273.200 C 55.848 273.200,56.000 273.413,56.000 273.674 C 56.000 273.934,56.899 275.014,57.999 276.074 C 59.098 277.133,59.895 278.000,59.770 278.000 C 59.645 278.000,59.813 278.270,60.143 278.600 C 60.473 278.930,60.966 279.200,61.238 279.200 C 61.510 279.200,61.623 279.311,61.488 279.446 C 61.056 279.877,72.794 291.177,73.424 290.936 C 73.813 290.786,74.000 290.988,74.000 291.557 C 74.000 292.021,74.189 292.400,74.420 292.400 C 74.651 292.400,76.461 294.020,78.443 296.000 C 80.425 297.980,82.220 299.600,82.432 299.600 C 82.644 299.600,83.807 300.590,85.017 301.800 C 87.164 303.947,87.941 304.510,87.360 303.500 C 87.202 303.225,87.866 303.818,88.836 304.817 C 89.806 305.817,91.316 307.167,92.191 307.817 C 93.066 308.468,94.308 309.495,94.950 310.100 C 95.593 310.705,96.272 311.200,96.459 311.200 C 96.646 311.200,97.541 311.920,98.448 312.800 C 99.355 313.680,100.273 314.400,100.488 314.400 C 100.703 314.400,101.383 314.940,102.000 315.600 C 102.617 316.260,103.337 316.800,103.600 316.800 C 103.863 316.800,104.583 317.340,105.200 318.000 C 105.817 318.660,106.537 319.200,106.800 319.200 C 107.063 319.200,107.783 319.740,108.400 320.400 C 109.017 321.060,109.697 321.600,109.912 321.600 C 110.126 321.600,110.530 321.875,110.809 322.211 C 111.550 323.104,114.752 325.200,115.375 325.200 C 115.669 325.200,116.335 325.738,116.855 326.396 C 117.375 327.054,118.115 327.594,118.500 327.596 C 118.885 327.598,119.200 327.780,119.200 328.000 C 119.200 328.220,119.481 328.400,119.824 328.400 C 120.167 328.400,120.336 328.580,120.200 328.800 C 120.064 329.020,120.207 329.200,120.517 329.200 C 120.827 329.200,121.646 329.740,122.337 330.400 C 123.028 331.060,123.825 331.600,124.108 331.600 C 124.391 331.600,124.883 331.960,125.200 332.400 C 125.517 332.840,126.107 333.200,126.512 333.200 C 126.916 333.200,127.136 333.380,127.000 333.600 C 126.864 333.820,127.033 334.000,127.376 334.000 C 127.719 334.000,128.000 334.180,128.000 334.400 C 128.000 334.620,128.270 334.800,128.600 334.800 C 128.930 334.800,129.200 334.980,129.200 335.200 C 129.200 335.420,129.425 335.600,129.700 335.600 C 129.975 335.601,130.729 336.056,131.375 336.612 C 132.022 337.168,132.966 337.727,133.473 337.854 C 133.980 337.981,134.308 338.225,134.202 338.396 C 134.097 338.567,134.548 338.930,135.205 339.202 C 135.862 339.474,136.400 339.855,136.400 340.049 C 136.400 340.242,136.760 340.400,137.200 340.400 C 137.640 340.400,138.000 340.577,138.000 340.792 C 138.000 341.008,138.495 341.307,139.100 341.456 C 139.705 341.606,140.470 342.015,140.800 342.367 C 141.130 342.718,141.940 343.273,142.600 343.600 C 143.260 343.927,144.088 344.507,144.441 344.890 C 144.793 345.272,145.195 345.471,145.335 345.332 C 145.474 345.193,146.065 345.556,146.648 346.139 C 147.232 346.723,147.955 347.200,148.255 347.200 C 148.555 347.200,148.800 347.380,148.800 347.600 C 148.800 347.820,149.078 348.000,149.417 348.000 C 149.756 348.000,150.420 348.360,150.892 348.800 C 151.364 349.240,151.987 349.600,152.275 349.600 C 152.564 349.600,152.800 349.780,152.800 350.000 C 152.800 350.220,153.078 350.400,153.417 350.400 C 153.756 350.400,154.420 350.760,154.892 351.200 C 155.364 351.640,155.987 352.000,156.275 352.000 C 156.564 352.000,156.800 352.180,156.800 352.400 C 156.800 352.620,157.160 352.800,157.600 352.800 C 158.040 352.800,158.401 352.935,158.403 353.100 C 158.407 353.465,160.349 354.400,161.103 354.400 C 161.402 354.400,161.554 354.551,161.440 354.735 C 161.327 354.919,161.963 355.459,162.855 355.935 C 164.490 356.808,170.800 357.246,170.800 356.486 C 170.800 356.314,171.342 355.852,172.005 355.461 C 173.979 354.295,174.712 352.306,175.032 347.254 C 175.188 344.791,175.469 342.681,175.658 342.564 C 175.846 342.448,176.000 341.294,176.000 340.000 C 176.000 338.706,176.200 337.524,176.444 337.373 C 176.698 337.216,175.885 336.556,174.544 335.831 C 170.074 333.412,148.347 319.548,145.800 317.488 C 145.580 317.310,142.428 315.057,138.796 312.482 C 132.292 307.871,129.193 305.611,128.800 305.191 C 128.690 305.074,127.250 303.969,125.600 302.737 C 106.946 288.806,81.315 264.780,68.971 249.655 C 68.547 249.136,68.013 248.506,67.785 248.255 C 67.557 248.005,66.152 246.270,64.662 244.400 C 63.172 242.530,61.738 240.730,61.475 240.400 C 57.927 235.946,50.000 224.692,50.000 224.107 C 50.000 223.896,49.640 223.398,49.200 223.000 C 48.760 222.602,48.400 222.111,48.400 221.910 C 48.400 221.709,47.860 220.759,47.200 219.800 C 46.540 218.841,46.000 217.936,46.000 217.790 C 46.000 217.643,45.624 216.995,45.164 216.350 C 42.420 212.496,35.727 198.865,32.532 190.624 C 31.759 188.631,30.939 186.550,30.710 186.000 C 29.989 184.270,29.720 183.481,28.800 180.400 C 28.308 178.750,27.758 177.040,27.580 176.600 C 26.873 174.863,24.755 165.648,23.810 160.200 C 20.871 143.266,21.927 123.775,26.561 109.400 C 26.916 108.300,27.397 106.770,27.630 106.000 C 27.862 105.230,28.197 104.240,28.373 103.800 C 28.549 103.360,28.873 102.550,29.093 102.000 C 29.313 101.450,29.674 100.550,29.896 100.000 C 32.740 92.950,41.136 78.421,43.997 75.600 C 44.109 75.490,45.095 74.320,46.189 73.000 C 49.142 69.437,53.011 65.441,56.486 62.363 C 59.482 59.709,59.660 59.320,58.025 59.005 C 57.511 58.906,57.314 59.032,57.446 59.376 M224.652 216.448 C 224.293 216.866,224.000 217.411,224.000 217.658 C 224.000 217.904,223.685 218.399,223.300 218.757 C 222.915 219.116,222.375 219.809,222.100 220.299 C 221.504 221.360,221.420 226.800,222.000 226.800 C 222.220 226.800,222.400 227.078,222.400 227.418 C 222.400 228.262,224.199 229.999,225.082 230.006 C 225.692 230.011,225.710 230.071,225.200 230.400 C 224.669 230.743,224.671 230.788,225.212 230.794 C 225.548 230.797,226.083 231.160,226.400 231.600 C 226.717 232.040,227.432 232.403,227.988 232.406 C 228.788 232.411,228.874 232.493,228.400 232.800 C 227.994 233.062,227.963 233.190,228.304 233.194 C 228.581 233.197,229.372 233.740,230.063 234.400 C 230.754 235.060,231.474 235.600,231.663 235.600 C 231.852 235.600,232.572 236.140,233.263 236.800 C 233.954 237.460,234.696 238.000,234.912 238.000 C 235.129 238.000,235.642 238.388,236.053 238.861 C 236.464 239.335,236.800 239.592,236.800 239.433 C 236.800 239.273,237.048 239.381,237.351 239.671 C 237.654 239.962,238.306 240.470,238.800 240.800 C 239.294 241.130,239.933 241.625,240.220 241.900 C 240.508 242.175,240.928 242.400,241.153 242.400 C 241.840 242.400,243.421 244.210,243.541 245.132 C 243.843 247.473,243.414 254.776,242.903 256.000 C 242.765 256.330,242.620 257.140,242.581 257.800 C 242.542 258.460,242.289 260.926,242.019 263.279 C 241.748 265.633,241.644 267.748,241.787 267.979 C 241.930 268.211,241.857 268.400,241.624 268.400 C 241.366 268.400,241.200 269.496,241.200 271.200 C 241.200 272.800,241.029 274.000,240.800 274.000 C 240.572 274.000,240.400 275.192,240.400 276.776 C 240.400 278.303,240.220 279.664,240.000 279.800 C 239.414 280.162,239.510 280.898,240.100 280.565 C 240.500 280.339,240.500 280.390,240.100 280.821 C 239.825 281.118,239.600 282.303,239.600 283.456 C 239.600 284.609,239.420 285.664,239.200 285.800 C 238.980 285.936,238.800 287.567,238.800 289.424 C 238.800 291.408,238.635 292.800,238.400 292.800 C 238.174 292.800,238.000 293.933,238.000 295.400 C 238.000 296.867,237.826 298.000,237.600 298.000 C 237.369 298.000,237.200 299.259,237.200 300.976 C 237.200 302.613,237.046 304.048,236.858 304.164 C 236.670 304.280,236.484 305.596,236.444 307.088 C 236.403 308.579,236.197 309.860,235.985 309.933 C 235.773 310.007,235.600 311.402,235.600 313.033 C 235.600 314.744,235.431 316.000,235.200 316.000 C 234.967 316.000,234.800 317.333,234.800 319.200 C 234.800 321.067,234.633 322.400,234.400 322.400 C 234.169 322.400,234.000 323.667,234.000 325.400 C 234.000 327.133,233.831 328.400,233.600 328.400 C 233.363 328.400,233.200 329.867,233.200 332.000 C 233.200 334.133,233.363 335.600,233.600 335.600 C 233.820 335.600,234.000 335.878,234.000 336.218 C 234.000 337.018,235.782 338.800,236.582 338.800 C 236.922 338.800,237.200 338.980,237.200 339.200 C 237.200 340.024,243.366 339.677,244.308 338.800 C 244.780 338.360,245.444 338.000,245.783 338.000 C 246.122 338.000,246.400 337.820,246.400 337.600 C 246.400 337.380,246.760 337.200,247.200 337.200 C 247.640 337.200,248.000 337.042,248.000 336.849 C 248.000 336.655,248.540 336.273,249.200 336.000 C 249.860 335.727,250.400 335.345,250.400 335.151 C 250.400 334.958,250.678 334.800,251.017 334.800 C 251.356 334.800,252.020 334.440,252.492 334.000 C 252.964 333.560,253.587 333.200,253.875 333.200 C 254.164 333.200,254.400 333.020,254.400 332.800 C 254.400 332.580,254.636 332.400,254.925 332.400 C 255.213 332.400,255.836 332.040,256.308 331.600 C 256.780 331.160,257.350 330.800,257.574 330.800 C 258.600 330.800,259.214 328.816,259.382 324.963 C 259.477 322.783,259.747 317.760,259.983 313.800 C 260.218 309.840,260.592 303.540,260.813 299.800 C 261.034 296.060,261.398 289.940,261.623 286.200 C 262.052 279.048,262.505 271.014,263.159 258.928 C 263.376 254.929,263.670 251.031,263.814 250.267 C 264.163 248.403,263.223 243.821,261.872 240.800 C 259.811 236.193,256.811 233.578,248.000 228.708 C 245.956 227.578,244.840 226.939,239.868 224.051 C 237.926 222.923,236.258 222.000,236.162 222.000 C 236.065 222.000,234.684 221.217,233.093 220.261 C 225.277 215.562,225.373 215.606,224.652 216.448 " stroke="none" fill="#fc4454" fill-rule="evenodd"></path><path id="path2" d="M147.900 1.892 C 147.075 1.978,146.400 2.217,146.400 2.424 C 146.400 2.631,146.040 2.800,145.600 2.800 C 145.160 2.800,144.800 2.980,144.800 3.200 C 144.800 3.420,144.440 3.600,144.000 3.600 C 143.560 3.600,143.199 3.735,143.199 3.900 C 143.198 4.065,142.208 4.650,141.000 5.200 C 139.792 5.750,138.802 6.335,138.801 6.500 C 138.801 6.665,138.440 6.800,138.000 6.800 C 137.560 6.800,137.200 6.980,137.200 7.200 C 137.200 7.420,136.942 7.600,136.627 7.600 C 136.312 7.600,135.939 7.963,135.798 8.406 C 135.657 8.849,135.375 9.108,135.171 8.982 C 134.967 8.856,134.800 9.033,134.800 9.376 C 134.800 9.719,134.620 10.000,134.400 10.000 C 134.167 10.000,134.000 11.333,134.000 13.200 C 134.000 16.417,134.039 16.528,135.860 18.436 C 137.115 19.752,139.721 22.000,139.990 22.000 C 140.169 22.000,140.871 22.495,141.549 23.100 C 143.612 24.939,143.953 25.200,144.295 25.200 C 144.476 25.200,144.883 25.560,145.200 26.000 C 145.517 26.440,145.964 26.800,146.192 26.800 C 146.421 26.800,146.832 27.160,147.107 27.600 C 147.382 28.040,147.875 28.400,148.203 28.400 C 148.532 28.400,148.800 28.580,148.800 28.800 C 148.800 29.382,154.638 29.298,155.695 28.700 C 157.821 27.497,158.800 26.002,158.800 23.958 C 158.800 22.661,158.969 21.998,159.300 21.994 C 159.657 21.990,159.670 21.904,159.348 21.694 C 158.927 21.420,158.394 17.075,158.416 14.097 C 158.421 13.381,158.247 12.462,158.029 12.054 C 157.811 11.647,157.595 10.613,157.548 9.757 C 157.502 8.901,157.332 8.020,157.171 7.800 C 157.010 7.580,156.815 6.950,156.739 6.400 C 156.663 5.850,156.420 5.197,156.200 4.949 C 155.980 4.701,155.535 4.116,155.212 3.649 C 154.888 3.182,154.408 2.800,154.145 2.800 C 153.882 2.800,153.607 2.646,153.533 2.459 C 153.367 2.032,149.899 1.683,147.900 1.892 M342.060 262.642 C 341.762 262.978,341.599 263.332,341.695 263.429 C 341.792 263.526,342.198 263.244,342.598 262.802 C 342.997 262.361,343.161 262.007,342.962 262.015 C 342.763 262.024,342.357 262.305,342.060 262.642 M258.967 368.116 C 258.288 368.822,257.523 369.793,257.267 370.274 C 256.694 371.345,256.639 376.800,257.200 376.800 C 257.420 376.800,257.600 377.078,257.600 377.418 C 257.600 378.114,259.340 380.000,259.982 380.000 C 260.212 380.000,260.400 380.180,260.400 380.400 C 260.400 380.620,260.593 380.800,260.829 380.800 C 261.421 380.800,262.418 381.849,262.114 382.152 C 261.900 382.366,262.200 382.443,263.016 382.384 C 263.135 382.376,263.931 383.096,264.785 383.984 C 265.639 384.873,266.531 385.600,266.769 385.600 C 267.006 385.600,267.200 385.780,267.200 386.000 C 267.200 386.220,267.380 386.400,267.599 386.400 C 267.819 386.400,268.666 387.030,269.482 387.799 C 270.298 388.569,271.288 389.301,271.683 389.426 C 272.077 389.551,272.400 389.805,272.400 389.989 C 272.400 391.391,277.915 391.902,280.374 390.728 C 282.069 389.918,293.735 378.818,292.923 378.788 C 292.745 378.781,292.915 378.592,293.300 378.368 C 293.685 378.144,294.000 377.699,294.000 377.380 C 294.000 377.061,294.180 376.800,294.400 376.800 C 294.631 376.800,294.800 375.533,294.800 373.800 C 294.800 372.067,294.631 370.800,294.400 370.800 C 294.180 370.800,294.000 370.524,294.000 370.187 C 294.000 369.849,293.376 368.949,292.613 368.187 L 291.227 366.800 275.713 366.816 L 260.200 366.832 258.967 368.116 " stroke="none" fill="#fc7c94" fill-rule="evenodd"></path><path id="path3" d="M60.327 58.018 C 60.251 58.248,59.786 58.466,59.294 58.503 C 58.263 58.581,58.121 59.007,59.012 59.349 C 59.457 59.520,58.775 60.335,56.512 62.340 C 53.013 65.439,49.149 69.429,46.189 73.000 C 45.095 74.320,44.109 75.490,43.997 75.600 C 41.153 78.404,32.460 93.443,29.950 99.900 C 29.757 100.395,29.396 101.295,29.146 101.900 C 28.240 104.098,28.045 104.624,27.630 106.000 C 27.397 106.770,26.916 108.300,26.561 109.400 C 21.927 123.775,20.871 143.266,23.810 160.200 C 24.755 165.648,26.873 174.863,27.580 176.600 C 27.758 177.040,28.308 178.750,28.800 180.400 C 29.644 183.230,29.878 183.908,30.764 186.100 C 30.964 186.595,31.759 188.631,32.532 190.624 C 35.727 198.865,42.420 212.496,45.164 216.350 C 45.624 216.995,46.000 217.643,46.000 217.790 C 46.000 217.936,46.540 218.841,47.200 219.800 C 47.860 220.759,48.400 221.709,48.400 221.910 C 48.400 222.111,48.760 222.602,49.200 223.000 C 49.640 223.398,50.000 223.896,50.000 224.107 C 50.000 224.692,57.927 235.946,61.475 240.400 C 66.444 246.636,68.405 249.070,69.004 249.745 C 69.227 249.995,71.381 252.450,73.793 255.200 C 86.391 269.568,109.159 290.459,125.600 302.737 C 127.250 303.969,128.690 305.074,128.800 305.191 C 129.193 305.611,132.292 307.871,138.796 312.482 C 142.428 315.057,145.580 317.310,145.800 317.488 C 148.299 319.509,171.547 334.340,174.884 336.043 C 176.092 336.659,176.332 336.689,176.145 336.202 C 176.018 335.871,175.768 335.600,175.589 335.600 C 175.189 335.600,168.172 331.428,163.704 328.535 C 161.891 327.361,160.226 326.400,160.004 326.400 C 159.782 326.400,159.600 326.220,159.600 326.000 C 159.600 325.780,159.330 325.600,159.000 325.600 C 158.670 325.600,158.400 325.420,158.400 325.200 C 158.400 324.980,158.189 324.800,157.931 324.800 C 157.674 324.800,157.133 324.501,156.729 324.136 C 156.325 323.770,155.645 323.275,155.217 323.036 C 153.776 322.229,137.129 310.803,136.800 310.395 C 136.690 310.259,135.700 309.541,134.600 308.800 C 133.500 308.059,132.510 307.342,132.400 307.207 C 132.290 307.072,131.570 306.529,130.800 306.000 C 130.030 305.471,129.310 304.940,129.200 304.819 C 129.090 304.699,127.470 303.434,125.600 302.008 C 122.572 299.699,118.064 296.121,114.000 292.799 C 113.230 292.169,111.970 291.151,111.200 290.535 C 110.430 289.920,109.530 289.137,109.200 288.797 C 108.870 288.456,107.160 286.936,105.400 285.420 C 98.053 279.089,95.797 276.976,87.210 268.391 C 77.342 258.523,75.563 256.581,67.662 247.043 C 61.703 239.851,62.108 240.358,59.478 236.800 C 58.420 235.370,57.295 233.883,56.978 233.495 C 56.660 233.108,56.400 232.628,56.400 232.429 C 56.400 232.230,56.240 232.007,56.044 231.933 C 55.673 231.795,46.400 217.785,46.400 217.364 C 46.400 217.232,46.038 216.615,45.595 215.993 C 44.226 214.071,38.853 203.760,36.532 198.600 C 35.839 197.060,34.806 194.760,34.236 193.488 C 33.666 192.217,33.200 190.999,33.200 190.783 C 33.200 190.566,33.041 190.077,32.847 189.695 C 32.371 188.760,31.782 187.293,31.200 185.600 C 30.936 184.830,30.579 183.840,30.407 183.400 C 30.236 182.960,29.695 181.250,29.207 179.600 C 28.718 177.950,28.156 176.287,27.959 175.905 C 27.762 175.523,27.600 174.769,27.600 174.229 C 27.600 173.689,27.420 173.136,27.200 173.000 C 26.980 172.864,26.800 172.144,26.800 171.400 C 26.800 170.656,26.639 169.948,26.442 169.826 C 26.245 169.705,25.985 168.929,25.863 168.103 C 25.741 167.276,25.444 165.610,25.205 164.400 C 23.337 154.977,23.037 151.571,23.054 140.000 C 23.069 129.707,23.312 126.244,24.401 120.800 C 24.643 119.590,24.940 117.880,25.061 117.000 C 25.183 116.120,25.444 115.229,25.641 115.020 C 25.838 114.811,26.000 114.284,26.000 113.848 C 26.000 112.996,26.680 110.633,27.249 109.505 C 27.442 109.123,27.600 108.459,27.600 108.029 C 27.600 107.599,27.780 107.136,28.000 107.000 C 28.220 106.864,28.400 106.401,28.400 105.971 C 28.400 105.541,28.566 104.877,28.769 104.495 C 28.972 104.113,29.723 102.288,30.438 100.440 C 32.678 94.652,37.988 84.737,40.777 81.137 C 41.229 80.552,41.600 79.877,41.600 79.637 C 41.600 79.397,41.741 79.200,41.914 79.200 C 42.086 79.200,42.543 78.667,42.928 78.015 C 43.313 77.363,43.848 76.598,44.116 76.315 C 44.384 76.032,45.404 74.810,46.381 73.600 C 48.546 70.921,56.702 62.731,59.257 60.672 C 61.124 59.166,62.011 57.600,60.996 57.600 C 60.705 57.600,60.404 57.788,60.327 58.018 M368.800 64.702 C 368.800 64.899,369.290 65.497,369.888 66.030 C 370.686 66.742,370.819 66.787,370.388 66.202 C 369.450 64.928,368.800 64.314,368.800 64.702 M225.600 215.590 C 225.600 215.804,226.166 216.272,226.858 216.630 C 227.550 216.988,229.894 218.342,232.067 219.640 C 234.241 220.938,236.090 222.000,236.178 222.000 C 236.265 222.000,237.926 222.923,239.868 224.051 C 244.840 226.939,245.956 227.578,248.000 228.708 C 256.811 233.578,259.811 236.193,261.872 240.800 C 263.223 243.821,264.163 248.403,263.814 250.267 C 263.670 251.031,263.376 254.929,263.159 258.928 C 262.505 271.014,262.052 279.048,261.623 286.200 C 259.390 323.374,259.086 329.508,259.633 326.400 C 259.846 325.190,260.193 321.140,260.404 317.400 C 260.616 313.660,260.969 307.630,261.189 304.000 C 261.409 300.370,261.764 294.340,261.978 290.600 C 262.191 286.860,262.564 280.560,262.805 276.600 C 264.544 248.079,264.581 247.101,264.018 244.904 C 263.485 242.822,261.386 238.250,260.413 237.050 C 258.560 234.765,254.280 231.200,253.390 231.200 C 253.243 231.200,252.646 230.867,252.062 230.461 C 251.478 230.055,250.010 229.181,248.800 228.520 C 247.590 227.859,245.925 226.931,245.100 226.459 C 244.275 225.987,242.925 225.221,242.100 224.757 C 241.275 224.294,240.420 223.773,240.200 223.600 C 239.817 223.298,238.740 222.677,234.800 220.486 C 229.450 217.509,226.586 215.802,226.467 215.518 C 226.277 215.067,225.600 215.123,225.600 215.590 " stroke="none" fill="#fc556d" fill-rule="evenodd"></path><path id="path4" d="M216.600 15.600 C 216.464 15.820,216.498 16.014,216.676 16.031 C 216.854 16.047,217.325 16.123,217.722 16.198 C 218.305 16.309,218.354 16.226,217.973 15.768 C 217.420 15.101,216.944 15.043,216.600 15.600 M224.813 17.839 C 224.832 18.387,225.963 19.771,226.198 19.535 C 226.312 19.421,226.044 18.912,225.603 18.403 C 225.161 17.894,224.806 17.640,224.813 17.839 M291.800 37.600 C 291.091 37.905,291.125 37.947,292.100 37.972 C 292.705 37.987,293.200 37.820,293.200 37.600 C 293.200 37.131,292.893 37.131,291.800 37.600 M298.800 37.600 C 298.800 37.820,299.700 38.000,300.800 38.000 C 301.900 38.000,302.800 37.820,302.800 37.600 C 302.800 37.380,301.900 37.200,300.800 37.200 C 299.700 37.200,298.800 37.380,298.800 37.600 M305.600 37.623 C 305.600 37.830,306.500 38.000,307.600 38.000 C 308.700 38.000,309.600 37.837,309.600 37.638 C 309.600 37.440,308.700 37.270,307.600 37.261 C 306.500 37.253,305.600 37.416,305.600 37.623 M278.000 40.003 C 278.000 40.221,278.480 40.400,279.067 40.400 C 280.241 40.400,280.042 39.917,278.790 39.726 C 278.355 39.659,278.000 39.784,278.000 40.003 M271.799 41.599 C 271.936 41.819,272.427 42.000,272.890 42.000 C 273.903 42.000,273.514 41.497,272.365 41.322 C 271.899 41.251,271.657 41.369,271.799 41.599 M337.050 44.283 C 336.924 44.409,336.917 44.666,337.034 44.856 C 337.315 45.310,338.400 45.300,338.400 44.843 C 338.400 44.401,337.362 43.971,337.050 44.283 M260.087 45.735 C 259.586 46.014,259.289 46.355,259.427 46.494 C 259.743 46.810,261.600 45.991,261.600 45.536 C 261.600 45.078,261.169 45.135,260.087 45.735 M339.000 45.600 C 339.136 45.820,339.517 46.000,339.847 46.000 C 340.177 46.000,340.336 45.820,340.200 45.600 C 340.064 45.380,339.683 45.200,339.353 45.200 C 339.023 45.200,338.864 45.380,339.000 45.600 M87.700 50.834 C 87.205 51.021,86.800 51.274,86.800 51.395 C 86.800 51.638,88.791 51.342,89.076 51.058 C 89.468 50.665,88.544 50.515,87.700 50.834 M352.656 52.316 C 352.456 52.646,353.210 53.354,353.916 53.500 C 354.584 53.638,354.526 53.486,353.614 52.705 C 353.181 52.334,352.750 52.159,352.656 52.316 M357.200 55.708 C 357.200 56.042,357.470 56.418,357.800 56.545 C 358.130 56.671,358.400 56.623,358.400 56.436 C 358.400 56.250,358.130 55.874,357.800 55.600 C 357.312 55.195,357.200 55.215,357.200 55.708 M360.667 57.867 C 360.541 57.992,360.708 58.365,361.038 58.695 C 361.368 59.025,361.741 59.192,361.867 59.067 C 361.992 58.941,361.825 58.568,361.495 58.238 C 361.165 57.908,360.792 57.741,360.667 57.867 M139.000 58.800 C 138.864 59.020,138.808 59.214,138.876 59.231 C 140.193 59.557,140.417 59.503,139.973 58.968 C 139.413 58.293,139.323 58.277,139.000 58.800 M238.800 58.776 C 238.800 59.447,239.509 59.613,239.746 58.998 C 239.885 58.635,239.744 58.400,239.387 58.400 C 239.064 58.400,238.800 58.569,238.800 58.776 M148.400 63.512 C 148.400 63.994,149.945 64.813,150.169 64.450 C 150.282 64.267,149.931 63.915,149.387 63.667 C 148.844 63.420,148.400 63.350,148.400 63.512 M232.928 63.954 C 232.819 64.369,232.341 64.897,231.865 65.127 C 231.389 65.358,231.214 65.558,231.475 65.573 C 231.737 65.588,232.542 65.060,233.264 64.400 C 234.298 63.456,234.423 63.200,233.852 63.200 C 233.452 63.200,233.036 63.539,232.928 63.954 M192.800 64.800 C 192.800 65.020,193.160 65.200,193.600 65.200 C 194.040 65.200,194.400 65.020,194.400 64.800 C 194.400 64.580,194.040 64.400,193.600 64.400 C 193.160 64.400,192.800 64.580,192.800 64.800 M373.396 70.000 C 373.767 71.225,373.847 71.320,374.345 71.142 C 374.562 71.064,374.369 70.550,373.916 70.000 L 373.093 69.000 373.396 70.000 M227.030 70.452 C 226.607 70.863,226.449 71.200,226.681 71.200 C 227.143 71.200,228.209 70.065,227.957 69.842 C 227.871 69.766,227.454 70.040,227.030 70.452 M161.039 75.138 C 160.900 75.361,160.982 75.665,161.220 75.812 C 161.835 76.193,162.232 75.672,161.718 75.158 C 161.431 74.871,161.207 74.864,161.039 75.138 M380.428 78.676 C 380.413 79.158,380.580 79.664,380.800 79.800 C 381.273 80.092,381.273 79.701,380.800 78.600 C 380.469 77.829,380.455 77.831,380.428 78.676 M221.782 79.628 C 221.632 79.871,221.686 80.246,221.902 80.462 C 222.158 80.718,222.376 80.641,222.529 80.240 C 222.809 79.510,222.176 78.992,221.782 79.628 M220.942 81.906 C 221.088 82.142,220.934 82.609,220.601 82.942 C 220.267 83.276,220.149 83.645,220.338 83.762 C 220.528 83.879,220.883 83.537,221.126 83.002 C 221.452 82.288,221.451 81.955,221.123 81.752 C 220.864 81.592,220.788 81.656,220.942 81.906 M389.200 93.757 C 389.200 94.064,389.474 94.420,389.809 94.548 C 390.306 94.739,390.341 94.636,389.995 93.991 C 389.499 93.064,389.200 92.976,389.200 93.757 M390.645 97.012 C 391.413 98.185,391.666 98.138,391.337 96.883 C 391.211 96.397,390.854 96.000,390.544 96.000 C 390.087 96.000,390.106 96.190,390.645 97.012 M210.000 108.400 C 210.000 109.147,210.107 109.253,210.480 108.880 C 210.853 108.507,210.853 108.293,210.480 107.920 C 210.107 107.547,210.000 107.653,210.000 108.400 M398.610 122.783 C 398.445 123.051,398.507 123.467,398.748 123.708 C 399.363 124.323,399.752 123.800,399.292 122.979 C 399.012 122.479,398.831 122.427,398.610 122.783 M399.484 128.800 C 399.369 129.239,399.438 129.700,399.638 129.823 C 399.837 129.946,400.000 129.587,400.000 129.024 C 400.000 127.798,399.772 127.699,399.484 128.800 M203.423 137.767 C 204.261 138.380,204.640 138.313,204.216 137.627 C 204.071 137.392,203.659 137.200,203.300 137.200 C 202.754 137.200,202.774 137.293,203.423 137.767 M206.000 139.102 C 206.000 139.322,206.270 139.726,206.600 140.000 C 206.935 140.278,207.200 140.321,207.200 140.098 C 207.200 139.878,206.930 139.474,206.600 139.200 C 206.265 138.922,206.000 138.879,206.000 139.102 M208.400 141.200 C 208.400 141.420,208.694 141.600,209.053 141.600 C 209.412 141.600,210.046 141.992,210.462 142.471 C 211.042 143.140,211.327 143.233,211.689 142.871 C 212.050 142.510,212.016 142.400,211.542 142.400 C 211.202 142.400,210.598 142.040,210.200 141.600 C 209.436 140.755,208.400 140.525,208.400 141.200 M226.400 152.922 C 226.400 153.265,226.759 153.660,227.198 153.799 C 227.636 153.938,228.295 154.352,228.662 154.719 C 229.129 155.186,229.273 155.219,229.142 154.827 C 228.823 153.870,226.400 152.186,226.400 152.922 M236.190 159.848 C 236.547 160.204,236.959 160.374,237.107 160.226 C 237.256 160.078,237.112 159.789,236.788 159.584 C 235.843 158.987,235.487 159.144,236.190 159.848 M167.800 160.400 C 167.936 160.620,168.317 160.800,168.647 160.800 C 168.977 160.800,169.136 160.620,169.000 160.400 C 168.864 160.180,168.483 160.000,168.153 160.000 C 167.823 160.000,167.664 160.180,167.800 160.400 M398.165 161.500 C 398.320 161.775,398.295 162.000,398.109 162.000 C 397.923 162.000,397.742 162.372,397.708 162.826 C 397.672 163.306,397.845 163.585,398.123 163.493 C 398.805 163.266,398.964 161.997,398.379 161.458 C 398.002 161.110,397.951 161.121,398.165 161.500 M172.626 163.558 C 172.504 163.755,172.674 164.019,173.002 164.146 C 173.365 164.285,173.600 164.144,173.600 163.787 C 173.600 163.140,172.975 162.993,172.626 163.558 M245.359 165.533 C 246.064 166.675,249.600 168.731,249.600 168.000 C 249.600 167.780,249.407 167.600,249.172 167.600 C 248.937 167.600,247.919 167.032,246.910 166.338 C 245.902 165.644,245.203 165.282,245.359 165.533 M393.084 180.800 C 392.953 181.300,393.072 181.600,393.400 181.600 C 393.728 181.600,393.847 181.300,393.716 180.800 C 393.601 180.360,393.459 180.000,393.400 180.000 C 393.341 180.000,393.199 180.360,393.084 180.800 M203.511 185.496 C 203.374 186.023,203.501 186.430,203.844 186.562 C 204.457 186.797,204.494 186.583,204.039 185.421 C 203.746 184.672,203.726 184.674,203.511 185.496 M244.546 190.998 C 244.419 191.326,244.155 191.496,243.958 191.374 C 243.761 191.252,243.600 191.444,243.600 191.800 C 243.600 192.156,243.779 192.337,243.998 192.201 C 244.482 191.902,245.319 190.400,245.002 190.400 C 244.877 190.400,244.672 190.669,244.546 190.998 M378.934 213.068 C 379.081 213.215,378.903 213.665,378.539 214.068 C 378.174 214.470,378.039 214.794,378.238 214.787 C 379.016 214.760,380.114 212.800,379.352 212.800 C 378.975 212.800,378.787 212.920,378.934 213.068 M353.000 249.906 C 352.780 250.068,352.335 250.560,352.012 251.000 C 351.574 251.596,351.727 251.545,352.612 250.800 C 353.265 250.250,353.875 249.755,353.967 249.700 C 354.058 249.645,353.968 249.603,353.767 249.606 C 353.565 249.609,353.220 249.744,353.000 249.906 M348.600 255.200 C 347.968 255.860,347.624 256.400,347.836 256.400 C 348.048 256.400,348.696 255.860,349.275 255.200 C 349.854 254.540,350.198 254.000,350.039 254.000 C 349.880 254.000,349.232 254.540,348.600 255.200 M186.254 263.002 C 186.115 263.365,186.256 263.600,186.613 263.600 C 187.260 263.600,187.407 262.975,186.842 262.626 C 186.645 262.504,186.381 262.674,186.254 263.002 M340.064 264.406 C 339.550 264.835,339.193 265.380,339.272 265.616 C 339.351 265.853,339.822 265.496,340.320 264.823 C 341.371 263.402,341.337 263.346,340.064 264.406 M315.200 288.000 C 315.200 288.220,314.949 288.400,314.643 288.400 C 314.336 288.400,313.982 288.670,313.855 289.000 C 313.527 289.857,313.879 289.745,315.113 288.600 C 315.707 288.050,315.969 287.600,315.696 287.600 C 315.423 287.600,315.200 287.780,315.200 288.000 M310.794 291.618 C 310.247 292.039,309.980 292.380,310.200 292.378 C 310.729 292.373,312.191 291.258,311.965 291.031 C 311.868 290.934,311.341 291.198,310.794 291.618 M306.334 295.300 L 305.414 296.600 306.685 295.600 C 307.966 294.592,308.315 294.000,307.627 294.000 C 307.422 294.000,306.840 294.585,306.334 295.300 M295.055 303.800 C 294.929 304.130,294.977 304.400,295.164 304.400 C 295.350 304.400,295.726 304.130,296.000 303.800 C 296.405 303.312,296.385 303.200,295.892 303.200 C 295.558 303.200,295.182 303.470,295.055 303.800 M277.400 316.857 L 276.600 317.667 277.700 317.169 C 278.305 316.896,278.800 316.520,278.800 316.336 C 278.800 315.789,278.254 315.993,277.400 316.857 M269.600 322.300 C 269.600 322.704,269.788 322.728,270.400 322.400 C 270.840 322.165,271.200 321.927,271.200 321.872 C 271.200 321.817,270.840 321.771,270.400 321.771 C 269.960 321.771,269.600 322.009,269.600 322.300 M223.092 391.042 C 222.931 391.202,222.800 391.609,222.800 391.947 C 222.800 392.397,222.918 392.442,223.245 392.115 C 223.490 391.870,223.621 391.463,223.537 391.210 C 223.452 390.957,223.252 390.881,223.092 391.042 M216.030 394.964 C 215.651 395.421,215.825 395.520,217.011 395.520 C 218.139 395.520,218.763 395.019,217.667 394.994 C 217.520 394.991,217.195 394.857,216.945 394.698 C 216.695 394.539,216.283 394.659,216.030 394.964 " stroke="none" fill="#fc647c" fill-rule="evenodd"></path></g></svg>