<?xml version="1.0" encoding="UTF-8"?>
<svg xmlns="http://www.w3.org/2000/svg" viewBox="0 0 311.19 93.49">
  <defs>
    <style>
      .cls-1 {
        fill: none;
        stroke: #525352;
        stroke-miterlimit: 10;
        stroke-width: 3px;
      }

      .cls-2 {
        fill: #fbfaf5;
      }

      .cls-3 {
        fill: #476db4;
      }

      .cls-4 {
        font-family: Inter-Medium, Inter;
        font-size: 30px;
        font-variation-settings: 'wght' 500, 'slnt' 0;
        font-weight: 500;
        letter-spacing: 0em;
      }

      .cls-4, .cls-5 {
        fill: #525352;
      }

      .cls-6 {
        letter-spacing: .13em;
      }

      .cls-5 {
        font-family: Inter-Light, Inter;
        font-size: 75.98px;
        font-variation-settings: 'wght' 300, 'slnt' 0;
        font-weight: 300;
      }

      .cls-7 {
        letter-spacing: 0em;
      }

      .cls-8 {
        letter-spacing: 0em;
      }
    </style>
  </defs>
  <g id="Colors">
    <path class="cls-3" d="m57.43,14.15c.02.69-.07,1.37.17,2.04.21.57.48,1.11.95,1.52.18.16.45.39.7.5.56.26.82.36,1.45.38.14,0,.33-.04.44-.05.19-.03.31-.03.47-.09.53-.19.84-.38,1.27-.75.24-.2.42-.47.61-.72.2-.26.4-.5.53-.8.25-.57.5-1.17.42-1.82l-4.66,1.26c.38.75.8,1.49,1.25,2.21l3.42-3.42c-.16-.08-.32-.15-.47-.23-.29-.18-.6-.28-.93-.3-.33-.07-.66-.06-1,.04-.33.08-.61.23-.85.45-.27.18-.49.41-.64.7-.31.58-.46,1.28-.25,1.93.19.59.57,1.22,1.15,1.49.16.08.32.15.47.23l.6.25c.33.1.66.12,1,.04.23,0,.44-.06.63-.17.31-.1.58-.27.8-.52.29-.32.51-.69.64-1.1.1-.33.12-.66.04-1-.02-.33-.11-.64-.3-.93-.45-.72-.87-1.45-1.25-2.21l-.39-.51c-.23-.24-.49-.42-.8-.52-.19-.11-.41-.17-.63-.17-.33-.07-.66-.06-1,.04-.41.13-.78.35-1.1.64-.24.23-.42.49-.52.8-.16.3-.23.62-.22.96.01.09.01.17,0,.26l.09-.66c-.02.1-.04.2-.08.3l.25-.6c-.09.2-.21.38-.34.55l.39-.51c-.13.16-.26.33-.41.46l.51-.39c-.05.04-.11.08-.17.1l.6-.25s-.09.03-.14.04l.66-.09c-.06,0-.12,0-.18,0l.66.09s-.08-.02-.13-.03l.6.25c-.07-.03-.13-.07-.19-.11l.51.39c-.06-.05-.11-.11-.16-.17l.39.51c-.06-.08-.1-.16-.14-.25l.25.6c-.04-.1-.06-.2-.08-.31l.09.66c-.04-.36,0-.71,0-1.07-.02-.66-.26-1.3-.73-1.77-.23-.24-.49-.42-.8-.52-.3-.16-.62-.23-.96-.22-.65.03-1.32.24-1.77.73s-.76,1.1-.73,1.77h0Z"/>
    <path class="cls-3" d="m64.55,15.67c.21-1.09.17-2.14-.2-3.2-.25-.72-.6-1.39-.8-2.12-.05-.19-.09-.37-.13-.56-.02-.09-.04-.19-.05-.28.04.35.05.38.01.09-.04-.38-.07-.77-.11-1.15-.09-.99-.18-1.99-.45-2.94s-1.11-1.66-2.08-1.79-2.05.3-2.49,1.19c-.86,1.74-1.39,3.57-1.88,5.44-.22.84-.45,1.68-.72,2.51-.07.21-.14.41-.22.61-.02.07-.31.74-.15.39s-.16.32-.18.38c-.13.22-.09.18.13-.12-.56.53,0,.4,1.7-.39-1.24-.43-2.79.49-3.08,1.75-.33,1.44.44,2.56,1.75,3.08.85.34,1.72.57,2.62.7.69.1,1.3.12,1.93-.25.52-.3,1.01-.9,1.15-1.49.27-1.19-.36-2.87-1.75-3.08-.9-.13-1.77-.37-2.62-.7l-1.33,4.82c1.74.61,3.33-.7,4.01-2.2.5-1.11.9-2.24,1.23-3.4.28-.99.52-1.99.8-2.98.14-.48.28-.95.45-1.42.05-.15.1-.29.16-.44.02-.06.19-.45.05-.13s.03-.07.06-.13c.06-.14.13-.28.2-.42l-4.57-.6c.05.19.1.37.14.56.02.09.04.19.05.28.03.19.02.13-.02-.19.14.14.1.96.11,1.15.08.89.15,1.79.34,2.67.15.7.43,1.34.7,1.99.13.33.23.67.35,1.01.15.43.01-.36,0-.07,0,.2-.1.78.04.11-.25,1.28.36,2.76,1.75,3.08,1.24.28,2.81-.37,3.08-1.75h0Z"/>
    <path class="cls-3" d="m52.2,37.5c-.29-.49-.57-.99-.81-1.51-.06-.12-.11-.24-.17-.37-.16-.33.14.38.02.04-.1-.28-.21-.56-.31-.85l-4.57,1.93c.05.11.11.23.16.34.25.55-.09-.32,0,.01.03.12.08.24.12.36.03.1.05.46.05.12,0-.4,0,.1,0,.19.02.33,0,0,.02-.15-.04.3,0,.03.07-.12-.17.38.22-.17.02-.05-1.02.61-1.7,1.8-2.22,2.82l4.66,1.26c0-.13.02-.25.03-.38-.05.35-.05.39,0,.1.06-.25.11-.49.18-.73.04-.12.08-.24.12-.36-.14.3-.15.33-.03.07.12-.22.23-.45.36-.66l-4.66-1.26c-.08.65.07-.33,0,.04-.03.17-.06.33-.09.5-.06.33-.14.66-.22.99-.16.62-.35,1.24-.57,1.84s-.46,1.21-.7,1.81c-.18.45.1-.22-.02.06-.07.16-.13.31-.2.47-.05.12-.11.25-.16.37-.51,1.18.34-1.08,2.05-.49l1.1.64-.09-.07.64,1.1-.04-.1-3.08,3.08c.4.12.8.23,1.2.35,1.25.37,2.78-.44,3.08-1.75s-.4-2.68-1.75-3.08c-.4-.12-.8-.23-1.2-.35-1.7-.5-3.78,1.26-3.08,3.08.45,1.15,1.33,2.06,2.65,2.05.86,0,1.62-.34,2.21-.97.42-.45.61-.97.85-1.52.26-.6.52-1.21.76-1.82.82-2.02,1.4-4.04,1.65-6.21.12-1.03-.86-2.19-1.84-2.41-1.1-.25-2.23.17-2.82,1.15-.83,1.37-1.25,2.89-1.35,4.48-.15,2.46,3.53,3.42,4.66,1.26.16-.3.32-.61.5-.9.28-.45-.04-.07-.02-.02-.02-.04.36-.38.38-.4.63-.58,1.2-1.09,1.54-1.9.78-1.85.19-3.62-.62-5.34-.53-1.12-2.07-1.47-3.12-1.02s-1.85,1.76-1.45,2.95c.46,1.34,1.04,2.65,1.77,3.87.67,1.12,2.28,1.63,3.42.9s1.62-2.22.9-3.42h0Z"/>
    <path class="cls-3" d="m50.44,39.68c4,.2,7.86.83,11.87.48,3.8-.34,7.88.18,10.96-2.5,1.02-.89.91-2.63,0-3.54-1.01-1.01-2.51-.89-3.54,0-.87.76-2.28.77-3.4.81-1.76.06-3.5.21-5.25.34-3.57.26-7.09-.4-10.65-.58-1.35-.07-2.5,1.2-2.5,2.5,0,1.41,1.15,2.43,2.5,2.5h0Z"/>
    <path class="cls-3" d="m51.2,43.03c7.19.4,14.4-.14,21.46-1.52,1.33-.26,2.08-1.84,1.75-3.08-.38-1.39-1.75-2-3.08-1.75-6.63,1.29-13.39,1.71-20.13,1.34-1.35-.07-2.5,1.2-2.5,2.5,0,1.42,1.15,2.43,2.5,2.5h0Z"/>
    <path class="cls-3" d="m48.77,45.05c3.96.07,8.22.37,12.12-.54,1.73-.4,3.29-1.3,4.97-1.86.86-.29,1.74-.51,2.62-.71.52-.11,1.04-.22,1.56-.31.19-.03,1.52-.15.88-.26l-1.1-.64c.49.43.73,1.73.9,2.31.93,3.07,5.76,1.76,4.82-1.33-.7-2.33-1.63-5.45-4.6-5.27-2.46.15-5.18.87-7.47,1.78-1.08.43-2.13.96-3.25,1.29s-2.3.42-3.48.48c-2.65.14-5.31.1-7.97.05-3.22-.05-3.22,4.95,0,5h0Z"/>
    <path class="cls-3" d="m48.97,47.87c4.58.18,9.16-.01,13.73-.32s8.93-.34,13.12-1.68c3.05-.97,1.75-5.8-1.33-4.82-3.93,1.25-8.2,1.27-12.28,1.53-4.41.29-8.82.46-13.24.29-3.22-.13-3.21,4.87,0,5h0Z"/>
    <path class="cls-3" d="m74.61,43.23c-4.16,1.38-8.31,3-12.59,3.97-1.98.45-4.05.69-6.07.78s-3.55-.89-5.26-1.81c-2.83-1.53-5.36,2.79-2.52,4.32,2.17,1.17,4.34,2.41,6.87,2.51,2.28.09,4.75-.32,6.99-.71,4.75-.83,9.36-2.72,13.92-4.23,3.04-1.01,1.74-5.84-1.33-4.82h0Z"/>
    <path class="cls-3" d="m48.02,50.44c5.42.51,10.85,1.03,16.3,1.06,2.72.01,5.33-.3,8-.8,1.11-.21,2.37-.28,3.38-.82,1.45-.77,1.97-2.26,1.65-3.8-.27-1.32-1.83-2.09-3.08-1.75-1.37.38-2.02,1.75-1.75,3.08l.06.29v-1.33l-.09.29.64-1.1c.44-.18.45-.21.03-.1-.29.05-.58.11-.87.16-.44.08-.87.16-1.31.24-1.03.19-2.06.41-3.1.5-2.15.21-4.34.13-6.49.05-4.47-.15-8.92-.58-13.37-1-1.35-.13-2.5,1.24-2.5,2.5,0,1.46,1.15,2.37,2.5,2.5h0Z"/>
    <path class="cls-3" d="m33.68,52.2c-.76,1.05-1.49,2.11-2.27,3.14l.39-.51c-.59.76-1.41,1.26-2.06,1.97s-1.18,1.44-1.92,2.01c-.47.37-.73,1.2-.73,1.77,0,.61.27,1.35.73,1.77s1.1.76,1.77.73l.66-.09c.42-.12.79-.33,1.1-.64.6-.47,1.08-1.04,1.57-1.61s1.06-1.08,1.66-1.58c.73-.61,1.25-1.43,1.8-2.19l1.62-2.24c.36-.5.41-1.36.25-1.93s-.61-1.21-1.15-1.49c-.58-.31-1.28-.46-1.93-.25s-1.09.59-1.49,1.15h0Z"/>
    <path class="cls-3" d="m26.74,62c.15,0,.3,0,.44.02-.3-.04-.3-.03,0,.03.21.07.43.12.64.19.51.17,1,.39,1.5.6,1.01.42,2.03.84,3.04,1.26,2.06.86,4.13,1.72,6.19,2.57,1.21.5,2.8-.54,3.08-1.75.33-1.46-.45-2.54-1.75-3.08-2.14-.89-4.28-1.78-6.42-2.67s-4.36-2.14-6.72-2.18c-1.31-.02-2.56,1.17-2.5,2.5s1.1,2.48,2.5,2.5h0Z"/>
    <path class="cls-3" d="m31.48,61.95c1.56.67,2.7,1.7,4.01,2.69s2.76,1.8,4.26,2.51c3.36,1.57,6.8,3.01,10.2,4.5,1.24.54,2.68.36,3.42-.9.62-1.06.35-2.87-.9-3.42-3.4-1.49-6.83-2.93-10.2-4.5-1.38-.64-2.86-1.44-3.99-2.3-1.38-1.04-2.67-2.2-4.27-2.9-1.24-.53-2.68-.37-3.42.9-.62,1.05-.35,2.88.9,3.42h0Z"/>
    <path class="cls-3" d="m29.14,64.15c2.06.66,3.92,1.8,5.81,2.84,2.01,1.1,4.01,2.2,6.02,3.3,1.82,1,3.73,1.94,5.39,3.19s3.01,2.78,4.4,4.27c2.19,2.36,5.72-1.18,3.54-3.54-1.52-1.64-3.06-3.25-4.84-4.62s-3.92-2.51-5.97-3.63-4.27-2.34-6.41-3.51-4.28-2.38-6.62-3.13c-3.07-.98-4.39,3.85-1.33,4.82h0Z"/>
    <path class="cls-3" d="m53.58,79.41c3.22,0,3.22-5,0-5s-3.22,5,0,5h0Z"/>
    <path class="cls-3" d="m54.12,74.58c-1.04-.45-2.08-.8-3.17-1.13-.48-.15-.96-.29-1.43-.47-.09-.03-.18-.08-.28-.11.64.21.29.12.13.05-.22-.1-.43-.22-.64-.34-.08-.05-.16-.1-.24-.16-.37-.25.05-.04.1.09-.06-.15-.42-.39-.54-.52-.07-.07-.13-.2-.21-.25.2.27.25.32.14.18-.03-.04-.07-.09-.1-.13-.26-.35-.52-.7-.81-1.03-.81-.96-1.85-1.7-2.85-2.46-.48-.37-1.38-.4-1.93-.25-.58.16-1.21.61-1.49,1.15-.31.58-.46,1.28-.25,1.93s.6,1.07,1.15,1.49c.37.28-.28-.22-.04-.03.11.09.22.17.33.26.2.16.39.32.58.49.21.19.42.38.61.58.17.17.31.42.5.57-.2-.26-.25-.32-.14-.18.03.04.07.09.1.13.18.24.36.47.54.7.17.21.34.42.53.61.44.44.96.82,1.48,1.14.94.57,2.01.94,3.05,1.27.46.14.92.28,1.38.42.24.08.48.15.72.24.2.07.95.39.24.08.64.28,1.23.44,1.93.25.58-.16,1.21-.61,1.49-1.15.57-1.08.38-2.86-.9-3.42h0Z"/>
    <path class="cls-3" d="m58.12,75.84c3.22,0,3.22-5,0-5s-3.22,5,0,5h0Z"/>
    <path class="cls-3" d="m48.78,70.33c2.18-.18,4.16.68,6.26,1.11,2.44.5,4.89.45,7.37.31,2.22-.12,4.49.13,6.7-.07,2.49-.23,4.7-1.32,6.87-2.49.97-.52,1.43-1.78,1.15-2.82-.31-1.13-1.3-1.73-2.41-1.84-1.34-.12-2.67.21-3.93.65-.89.31-2.01.92-2.96.71-3.14-.68-4.48,4.14-1.33,4.82,1.56.34,3.04.17,4.54-.33,1.22-.4,2.37-.98,3.67-.85l-1.26-4.66c-1.71.93-3.41,1.87-5.41,1.85-2.21-.01-4.37-.03-6.57.07s-4.13.09-6.18-.44-4.27-1.22-6.51-1.03c-1.35.11-2.5,1.07-2.5,2.5,0,1.27,1.15,2.61,2.5,2.5h0Z"/>
    <path class="cls-3" d="m66.64,68.74c-2.82.13-5.64.16-8.46.09-1.38-.04-2.76-.09-4.14-.18-.66-.04-1.32-.08-1.99-.14-.01,0-.88-.12-.42-.03-.17-.03-.33-.07-.49-.13.11.02.21.06.3.11-2.03-2.09-5.23.56-3.93,3.03,2.06,3.9,4.94,7.37,8.43,10.07.89.69,1.98,1,3.03.39.89-.52,1.54-1.8,1.15-2.82-.98-2.55-2.23-4.93-3.9-7.1-.82-1.07-2.15-1.64-3.42-.9-1.05.62-1.72,2.34-.9,3.42,1.38,1.8,2.63,3.94,3.39,5.91l4.18-2.43c-3.3-2.56-5.73-5.44-7.64-9.06l-3.93,3.03c1.22,1.26,2.82,1.41,4.47,1.53s3.2.21,4.81.26c3.15.11,6.31.08,9.46-.06,1.35-.06,2.5-1.11,2.5-2.5,0-1.31-1.14-2.56-2.5-2.5h0Z"/>
    <path class="cls-3" d="m61.23,82.76c.36-.35.73-.69,1.12-1.01.11-.09.22-.17.33-.26.26-.21-.38.28-.11.08.2-.15.4-.3.61-.45.85-.6,1.72-1.16,2.6-1.72,1.84-1.18,3.69-2.41,5.26-3.96.89-.88.95-2.31.2-3.28-.81-1.05-2.07-1.16-3.23-.64l-8.81,3.96,3.67,1.49c.06.27.04.54-.08.8-.15.43-.17.54-.07.35.23-.26.05-.18-.06.04.12-.24.39-.48.57-.69.37-.43.76-.85,1.16-1.25s.82-.79,1.25-1.16c.12-.1.65-.42.69-.57-.02.09-.37.28-.08.06.14-.11.29-.21.43-.32.54-.39.97-.83,1.15-1.49.16-.6.09-1.4-.25-1.93-.76-1.18-2.18-1.55-3.42-.9-2.15,1.13-4.3,2.27-6.46,3.4-1.16.61-1.61,2.32-.9,3.42.76,1.18,2.18,1.55,3.42.9,2.15-1.13,4.3-2.27,6.46-3.4l-2.52-4.32c-1.31.95-2.56,1.98-3.68,3.15-1.3,1.36-3.13,3.17-2.43,5.23.25.76.71,1.31,1.45,1.62.79.33,1.47.21,2.22-.13l8.81-3.96-3.03-3.93c-.36.35-.73.69-1.11,1.01-.11.09-.22.17-.32.26-.26.21.38-.28.11-.08-.2.15-.4.3-.61.45-.84.6-1.72,1.16-2.59,1.72-1.85,1.18-3.7,2.41-5.27,3.95-.93.92-.99,2.63,0,3.54s2.54.98,3.54,0h0Z"/>
    <path class="cls-3" d="m83.69,60.1c-1.18,1.1-2.72,1.99-4.3,2.89-1.71.98-3.41,2-4.88,3.33-1.38,1.25-2.37,2.86-3.67,4.19s-3.21,2.17-4.67,3.53c-.99.92-.93,2.6,0,3.54.98.98,2.55.92,3.54,0,1.24-1.15,3.21-2.08,4.57-3.43s2.35-3,3.77-4.29c1.1-1,2.73-1.9,4.23-2.76,1.75-1.01,3.47-2.08,4.95-3.47.99-.92.93-2.6,0-3.54-.98-.98-2.55-.93-3.54,0h0Z"/>
    <path class="cls-3" d="m67.36,78.47c2.99-1.6,5.78-3.52,8.39-5.69,1.22-1.01,2.35-2.12,3.53-3.17.68-.61.92-.82,1.62-1.27.78-.51,1.59-.97,2.25-1.65,1.03-1.07.99-3.22-.51-3.93-2.35-1.11-5.08.13-7.31,1.08-2,.85-3.24,1.55-5.35,2.08l1.33,4.82c2.22-.94,4.48-1.79,6.76-2.56,1.24-.42,2.18-1.74,1.75-3.08-.4-1.23-1.75-2.19-3.08-1.75-2.29.77-4.54,1.62-6.76,2.56-1.2.51-2.2,1.67-1.75,3.08.43,1.32,1.71,2.08,3.08,1.75,1.86-.46,3.6-1.28,5.35-2.06.2-.09.4-.18.6-.27.05-.02.62-.26.42-.18-.17.07.43-.17.43-.17.2-.08.4-.15.61-.22.41-.14.82-.27,1.24-.38.21-.05.42-.09.63-.15l.25-.05c-.25.05-.49-.01-.72-.19l-.51-3.93c-.12.12-.23.24-.36.35.28-.22-.17.08-.22.11-.29.18-.59.36-.88.56-.77.52-1.5,1.11-2.2,1.73-1.19,1.04-2.31,2.16-3.53,3.18-1.14.96-2.06,1.65-3.4,2.56s-2.75,1.75-4.19,2.53c-1.15.62-1.61,2.31-.9,3.42.76,1.17,2.19,1.56,3.42.9h0Z"/>
    <path class="cls-3" d="m84.56,57.64c-.53.25-1.06.48-1.59.71l.6-.25c-1.37.58-2.77,1.08-4.2,1.52-.61.19-1.17.59-1.49,1.15s-.45,1.33-.25,1.93.57,1.19,1.15,1.49,1.28.45,1.93.25c2.19-.67,4.32-1.51,6.39-2.48.54-.25,1-.94,1.15-1.49.16-.6.09-1.4-.25-1.93s-.86-1-1.49-1.15l-.66-.09c-.45,0-.87.12-1.26.34h0Z"/>
    <path class="cls-3" d="m75,73.34c3.79-2.46,7.74-4.67,11.81-6.63,1.12-.54,1.47-2.06,1.02-3.12s-1.77-1.86-2.95-1.45c-2.77.98-5.27,2.37-7.58,4.19-1,.79-1.91,1.69-2.83,2.57-.46.44-.94.84-1.41,1.26-.27.25.31-.22.01,0-.14.1-.28.2-.43.3-.29.19-.59.37-.9.53-1.16.61-1.61,2.32-.9,3.42.76,1.18,2.18,1.55,3.42.9,2.36-1.25,4.04-3.35,6.05-5.04.11-.09.22-.18.33-.27.04-.03.4-.3.17-.14-.26.19.22-.15.26-.19.12-.08.23-.17.35-.25.53-.37,1.08-.71,1.64-1.03.53-.3,1.07-.58,1.62-.84.16-.08.33-.15.49-.22-.21.1-.23.09,0,0,.33-.13.67-.26,1.01-.38l-1.93-4.57c-4.07,1.96-8.02,4.17-11.81,6.63-1.1.71-1.65,2.25-.9,3.42.71,1.09,2.25,1.66,3.42.9h0Z"/>
    <path class="cls-3" d="m93.5,58.59c-.99-.07-1.98.04-2.96-.07l.66.09c-.32-.04-.61-.12-.92-.21-.19-.07-.17-.06.05.03.21.09.23.1.06.01-.08-.04-.15-.09-.23-.14l.29.23c-.26-.12-.48-.51-.67-.73-.21-.24-.45-.47-.7-.67-.38-.31-.77-.61-1.16-.9-.44-.33.44.37.03.02-.12-.11-.25-.21-.37-.32s-.22-.23-.33-.34c-.31-.31.29.49.06.08-.05-.1-.12-.27-.2-.35.16.4.19.47.11.23-.02-.09-.04-.17-.06-.26-.25-1.29-1.86-2.14-3.08-1.75-1.37.44-2.02,1.7-1.75,3.08.23,1.2,1.04,2.29,1.96,3.07.32.27.65.51.98.77.1.08.2.15.3.23.25.18-.49-.41-.09-.07s.71.67,1.03,1.05c.79.91,1.97,1.53,3.15,1.73,1.28.21,2.54.09,3.82.19s2.56-1.22,2.5-2.5c-.06-1.44-1.1-2.4-2.5-2.5h0Z"/>
    <path class="cls-3" d="m81.22,55.18c1.22,1.36,2.65,2.55,4.19,3.54.69.44,1.41.83,2.14,1.18.39.18.78.37,1.16.57.19.1.38.21.56.32.08.05.16.1.24.16.44.28-.45-.38-.05-.05.53.43,1.06.73,1.77.73.61,0,1.35-.27,1.77-.73.84-.92,1.08-2.65,0-3.54-.81-.67-1.65-1.18-2.59-1.62-.76-.36-1.51-.74-2.23-1.18-.33-.21-.66-.43-.98-.66-.09-.07-.19-.14-.28-.21-.27-.2.11.1.17.14-.17-.11-.33-.26-.49-.39-.66-.55-1.27-1.15-1.84-1.79-.88-.98-2.66-.96-3.54,0-.96,1.04-.93,2.49,0,3.54h0Z"/>
    <path class="cls-3" d="m81.43,54.43c1.3,1.38,2.64,2.7,4.04,3.98.49.45,1.1.73,1.77.73.61,0,1.35-.27,1.77-.73s.76-1.1.73-1.77-.24-1.32-.73-1.77c-1.39-1.28-2.74-2.6-4.04-3.98-.43-.46-1.15-.73-1.77-.73s-1.35.27-1.77.73-.76,1.1-.73,1.77.26,1.27.73,1.77h0Z"/>
    <path class="cls-3" d="m75.38,43.36h-1.21c-.34-.01-.67.06-.96.22-.31.1-.58.27-.8.52-.24.23-.42.49-.52.8-.16.3-.23.62-.22.96l.09.66c.12.42.33.79.64,1.1l.51.39c.39.23.81.34,1.26.34h1.21c.34.01.67-.06.96-.22.31-.1.58-.27.8-.52.24-.23.42-.49.52-.8.16-.3.23-.62.22-.96l-.09-.66c-.12-.42-.33-.79-.64-1.1l-.51-.39c-.39-.23-.81-.34-1.26-.34h0Z"/>
    <path class="cls-2" d="m38.43,53.56c-.08.62-.1,1.25-.07,1.88.05,1.05.2,2.1.42,3.12.15.65.45,1.22.89,1.7.35.54.82.97,1.4,1.29.57.37,1.19.56,1.86.59.66.15,1.33.12,1.99-.09l1.19-.5c.75-.44,1.35-1.04,1.79-1.79l.5-1.19c.24-.89.24-1.77,0-2.66-.07-.3-.12-.59-.16-.89l.18,1.33c-.12-.92-.13-1.86-.01-2.78.03-.69-.12-1.33-.43-1.93-.2-.62-.55-1.16-1.03-1.61-.45-.49-.99-.83-1.61-1.03-.6-.31-1.24-.46-1.93-.43l-1.33.18c-.85.24-1.58.67-2.21,1.29l-.78,1.01c-.45.78-.68,1.62-.68,2.52h0Z"/>
    <path class="cls-2" d="m42.7,61.76c.29.03.58.07.87.11l-1.33-.18c1.22.16,2.43.38,3.63.64.66.21,1.33.24,1.99.09.67-.03,1.29-.23,1.86-.59.58-.31,1.05-.74,1.4-1.29.44-.48.74-1.05.89-1.7l.18-1.33c0-.9-.23-1.74-.68-2.52l-.78-1.01c-.62-.62-1.36-1.05-2.21-1.29-1.92-.42-3.87-.7-5.83-.93-.69-.03-1.33.12-1.93.43-.62.2-1.16.55-1.61,1.03-.49.45-.83.99-1.03,1.61-.31.6-.46,1.24-.43,1.93l.18,1.33c.24.85.67,1.58,1.29,2.21l1.01.78c.78.45,1.62.68,2.52.68h0Z"/>
    <path class="cls-2" d="m49.05,62.51c-1.24-.16.58.14.8.19.56.13,1.12.28,1.67.45s1.1.37,1.63.59c-1.06-.44.58.32.76.41l1.19-9.14c-.24.05-.57.19-.82.17,1.04.09.17-.05-.13-.05-.28,0-.56,0-.84,0-.14,0-.28-.01-.42-.03-.38-.03-.28-.02.29.04-.32.14-1.29-.32-1.62-.42-.88-.26.31.24-.16-.06-.29-.18-.62-.33-.91-.51l-3.85,9.14c5.3,1.25,10.99,3.27,16.44,1.85,4.16-1.08,4.9-7.01,1.19-9.14-2.71-1.55-5.51-2.32-8.58-2.7-2.46-.3-4.61,2.13-4.91,4.34-.35,2.62,1.23,4.57,3.58,5.49,4.75,1.86,10.37,1.88,15.14.1l-5.65-7.34c-.26.47-.17.39.25-.21.62-.42.7-.48.25-.2.71-.26.81-.32.29-.18.46-.15.92-.17,1.39-.04-2.55-.54-5.53.75-6.15,3.49-.57,2.51.76,5.57,3.49,6.15s5.64.62,8.39-.18c1.3-.38,2.6-.92,3.76-1.61.47-.28.91-.6,1.36-.9.23-.15.47-.28.7-.43.38-.24-.62.27-.82.27,3.65.06,6.42-4.34,4.32-7.52-.23-.38-.25-.39-.08-.01.15.28.21.59.18.92-.06-.98-.3.95.06-.03,1.31-3.52-2.71-7.32-6.15-6.15-1.96.66-3.39,1.71-4.99,2.99-.29.23-.18.15.32-.25-.14.1-.28.2-.42.3-.08.05-.64.48-.74.43.63-.24.76-.31.4-.2-.33.08-.22.08.34-.02-.26.12-.96.08-1.25.11-1.99.24-3.82.87-5.47,2.05-.55.39-1.08.82-1.61,1.23-.2.15-.65.63-.89.7l.42-.32c-.2.15-.4.3-.61.44-1.49,1.03-.18-.63,2.16.09l2.21,1.29-.13-.13,1.29,4.86.04-.18c.52-2.56-.73-5.52-3.49-6.15-2.49-.57-5.6.75-6.15,3.49s.45,5.14,2.99,6.21c1.86.78,3.79.59,5.52-.44,1.01-.6,1.92-1.37,2.84-2.1.43-.34.74-.73.17-.15.34-.35.84-.54,1.22-.82.82-.61-.85.46.3-.14.36-.09.23-.09-.38,0,.28-.02.56-.04.84-.06,1.61-.15,2.87-.4,4.31-1.14.99-.51,1.85-1.25,2.73-1.94.18-.15.37-.29.55-.44-.55.42-.61.47-.17.16.33-.19,1.62-.69.34-.25l-6.15-6.15c-.81,2.18-.43,4.91.84,6.83l4.32-7.52c-1.7-.03-3.32.51-4.75,1.41-.46.29-.89.63-1.36.91-.12.07-1.44.77-.82.48s-.75.24-.91.28c-.26.07-.52.13-.78.18-.57.1-.52.1.14,0-.43.18-1.14.02-1.6.04-.58-.05-.53-.03.14.06-.26-.04-.53-.09-.79-.15l-2.66,9.64c3.53.75,7.42-.59,9.12-3.96.92-1.83.9-3.89-.39-5.55-1.13-1.47-3.4-2.49-5.26-1.79-.94.35-1.89.6-2.86.82-.58.1-.56.1.07.02-.21.03-.42.05-.64.06-.5.04-.99.06-1.49.05-.43,0-.85-.04-1.28-.06-.59-.06-.57-.05.06.03-.28-.04-.56-.1-.84-.15-.98-.2-1.92-.5-2.85-.87l-1.33,9.82c-1.17-.14.1.04.36.1.49.11.97.25,1.44.4.2.07.41.14.61.21-.47-.21-.54-.24-.21-.09.44.23.89.45,1.33.7l1.19-9.14c-.29.08-.57.15-.87.2.6-.08.6-.09.01-.04-.45,0-.89-.01-1.33-.03-.59-.06-.59-.05,0,.03-.22-.03-.45-.07-.67-.11-.52-.09-1.04-.2-1.55-.32-2.24-.5-4.47-1.05-6.71-1.57-2.44-.57-4.91.56-5.9,2.89s-.11,4.96,2.05,6.24c3.74,2.23,8.08,2.8,12.31,1.87s4.95-7.19,1.19-9.14c-3.18-1.65-6.37-2.54-9.91-3.01-2.6-.34-5.11,2.54-5,5,.13,3,2.21,4.63,5,5h0Z"/>
    <path class="cls-2" d="m51.27,27.38c.15.17.29.34.44.52l-.78-1.01c.56.72,1.02,1.5,1.39,2.33l-.5-1.19c.11.27.22.53.28.81l-.18-1.33v.2c.05-.44.11-.89.17-1.33l-.07.19.5-1.19-.12.17.78-1.01c-.15.16-.31.29-.48.43l1.01-.78c-.25.18-.49.34-.77.46l1.19-.5c-.13.05-.27.08-.41.09l1.33-.18h-.21c.44.05.89.11,1.33.17l-.2-.06,1.19.5c-.12-.05-.23-.12-.33-.2l1.01.78c-.93-.83-1.81-1.61-3.05-1.96-1.87-.52-4.06-.14-5.45,1.3-1.05,1.09-1.67,2.49-1.65,4.02.03,1.93,1.11,3.7,2.81,4.62,1.53.83,3.19,1.18,4.93,1.15,1.13-.02,2.22-.16,3.35-.02l-1.33-.18c1.22.18,2.43.46,3.65.7l2.66-9.64c-1.91-.28-3.81-.56-5.72-.84l-1.33,9.82c3.18.15,6.37.3,9.55.45,1.98.09,3.83-1.33,4.57-3.07.82-1.94.31-3.9-1.03-5.46-.1-.11-.19-.22-.28-.34l.78,1.01c-.31-.42-.55-.86-.76-1.33l.5,1.19c-.16-.42-.27-.83-.35-1.27l.18,1.33c-.11-.84-.14-1.71-.36-2.53-.26-.94-.7-1.35-1.07-2.14l.5,1.19-.03-.15.18,1.33v-.16c-.05.44-.11.89-.17,1.33l.04-.15-.5,1.19.08-.13-.78,1.01.11-.09-2.21,1.29.14-.04c2.42-.62,3.9-3.09,3.58-5.49s-2.42-4.53-4.91-4.34c-3.04.24-6.08.48-9.12.73-1.34.11-2.56.49-3.54,1.46-.87.87-1.52,2.29-1.46,3.54s.48,2.63,1.46,3.54,2.22,1.57,3.54,1.46c3.04-.24,6.08-.48,9.12-.73l-1.33-9.82c-2.3.59-4.11,2.89-4.03,5.3.03,1.03.25,2.02.79,2.92.16.27.36.5.49.79l-.5-1.19c.04.13.07.25.09.38l-.18-1.33c.15,1.15.2,2.32.62,3.41.58,1.51,1.26,2.65,2.32,3.88l3.54-8.54c-3.18-.15-6.37-.3-9.55-.45-2.48-.12-4.6,1.99-4.91,4.34-.14,1.07,0,2.26.59,3.19.66,1.02,1.73,2.11,2.99,2.3,1.91.28,3.81.56,5.72.84,1.38.2,2.59.23,3.85-.5,1.04-.61,2.03-1.8,2.3-2.99.29-1.28.23-2.72-.5-3.85-.68-1.05-1.72-2.05-2.99-2.3-1.81-.36-3.63-.79-5.48-.94-1.3-.1-2.59.17-3.89.03l1.33.18c-.34-.05-.66-.13-.99-.24l1.19.5c-.19-.09-.37-.18-.55-.29l1.01.78-.1-.08.78,1.01-.05-.11.68,2.52v-.13c-.07.44-.13.89-.19,1.33l.03-.13-.5,1.19.07-.12-.78,1.01.1-.1-1.01.78.12-.06-2.52.68.19-.02-1.33-.18c.13,0,.25.04.37.11l-1.19-.5.17.11-1.01-.78c.61.5,1.15,1.05,1.84,1.47,1.31.79,3.09,1.01,4.55.59,2.03-.59,3.98-2.05,4.81-4.02,1.44-3.42-.85-7-3.06-9.52-.81-.93-2.34-1.46-3.54-1.46s-2.69.54-3.54,1.46-1.52,2.2-1.46,3.54.55,2.5,1.46,3.54h0Z"/>
    <path class="cls-3" d="m84.51,61.85c.02.27.01.55-.02.82l.09-.66c-.05.33-.14.65-.26.96l.25-.6c-.08.18-.17.35-.27.52l-.25.6-.09.66.09.66c.08.33.23.61.45.85.11.19.26.34.45.45.16.15.34.26.55.32.19.11.41.17.63.17.33.07.66.06,1-.04.82-.21,1.6-.53,2.36-.88.59-.27,1.15-.6,1.67-.98.29-.16.53-.37.7-.64.22-.24.37-.52.45-.85.1-.33.12-.66.04-1-.02-.33-.11-.64-.3-.93-.34-.53-.86-1-1.49-1.15s-1.39-.14-1.93.25c-.62.45-1.3.83-2,1.13l.6-.25c-.47.2-.95.36-1.43.48l2.82,3.67c.32-.52.57-1.11.72-1.7.1-.4.14-.81.18-1.21.02-.21.02-.43,0-.64.01-.34-.06-.67-.22-.96-.1-.31-.27-.58-.52-.8-.23-.24-.49-.42-.8-.52-.3-.16-.62-.23-.96-.22-.65.03-1.32.24-1.77.73s-.78,1.11-.73,1.77h0Z"/>
    <path class="cls-3" d="m86.75,60.57c.87.45,1.72.96,2.52,1.53.38.27.74.57,1.13.83.33.22.72.39,1.1.51.61.19,1.21.14,1.83.03.58-.1,1.21-.66,1.49-1.15.31-.54.45-1.33.25-1.93s-.57-1.19-1.15-1.49l-.6-.25c-.44-.12-.89-.12-1.33,0h-.07c.22-.02.44-.05.66-.08-.07,0-.14,0-.22,0l.66.09c-.12-.02-.23-.05-.35-.1l.6.25c-.33-.15-.62-.39-.91-.61-.33-.25-.67-.49-1.01-.72-.68-.45-1.38-.86-2.1-1.24-.59-.31-1.27-.43-1.93-.25-.58.16-1.21.61-1.49,1.15-.31.58-.46,1.28-.25,1.93.2.6.57,1.19,1.15,1.49h0Z"/>
    <path class="cls-3" d="m92.73,58.56c-1.15-.14-2.34.35-3.32.91-.72.41-1.4.88-2.05,1.39-.77.59-1.52,1.2-2.21,1.88-.26.26-.52.53-.8.77-.02.01-.19.17-.2.17,0,0,.56-.4.15-.12-.16.11-.32.19-.49.27l.6-.25c-.19.08-.39.14-.59.17l.66-.09h-.13c-.68.08-1.27.25-1.77.75-.43.43-.76,1.15-.73,1.77.06,1.24,1.11,2.64,2.5,2.5.76-.08,1.29-.2,1.98-.52.46-.22.86-.53,1.25-.85.56-.45,1.04-.99,1.57-1.48.29-.26.58-.52.88-.76.08-.06.15-.12.23-.18-.31.24-.37.28-.16.12.16-.11.31-.23.47-.34.63-.45,1.3-.88,2-1.2l-.6.25c.27-.11.54-.19.83-.24l-.66.09c.19-.02.38-.02.57,0,.59.07,1.37-.33,1.77-.73.43-.43.76-1.15.73-1.77s-.24-1.32-.73-1.77c-.52-.48-1.07-.65-1.77-.73h0Z"/>
    <path class="cls-3" d="m69.22,44.84c.77.03,1.55.05,2.33.05.34.01.67-.06.96-.22.31-.1.58-.27.8-.52.24-.23.42-.49.52-.8.16-.3.23-.62.22-.96l-.09-.66c-.12-.42-.33-.79-.64-1.1l-.51-.39c-.39-.23-.81-.34-1.26-.34-.78,0-1.55-.02-2.33-.05-.34-.01-.67.06-.96.22-.31.1-.58.27-.8.52-.24.23-.42.49-.52.8-.16.3-.23.62-.22.96l.09.66c.12.42.33.79.64,1.1l.51.39c.39.23.81.34,1.26.34h0Z"/>
    <path class="cls-3" d="m71.62,39.95c-1.3.02-2.59-.06-3.88-.23l.66.09c-.08-.01-.16-.02-.24-.03-.33-.1-.66-.12-1-.04-.33.02-.64.11-.93.3-.52.3-1.01.9-1.15,1.49-.15.64-.11,1.36.25,1.93l.39.51c.31.31.68.52,1.1.64,1.59.23,3.18.37,4.78.35.65,0,1.31-.27,1.77-.73.43-.43.76-1.15.73-1.77s-.24-1.32-.73-1.77-1.09-.74-1.77-.73h0Z"/>
    <path class="cls-3" d="m67.67,44.14c.84.03,1.69,0,2.53-.06.34.01.67-.06.96-.22.31-.1.58-.27.8-.52.24-.23.42-.49.52-.8.16-.3.23-.62.22-.96l-.09-.66c-.12-.42-.33-.79-.64-1.1l-.51-.39c-.39-.23-.81-.34-1.26-.34-.84.07-1.68.09-2.53.06-.34-.01-.67.06-.96.22-.31.1-.58.27-.8.52-.24.23-.42.49-.52.8-.16.3-.23.62-.22.96l.09.66c.12.42.33.79.64,1.1l.51.39c.39.23.81.34,1.26.34h0Z"/>
  </g>
  <g id="Lines">
    <g id="cone_line" data-name="cone line">
      <path class="cls-1" d="m41.78,48.09c19.22,9.98,31.62,2.55,36.05,0"/>
      <path class="cls-1" d="m47.89,31.89c12.45,6.64,21.3,1.74,24.43,0"/>
      <path class="cls-1" d="m53.16,17.95c7.31,3.28,12.22.85,13.95,0"/>
      <path class="cls-1" d="m59.8,1.5c-.88,0-23.32,56.9-23.32,56.9,15.93,9.88,31.51,10.63,46.65,0,0,0-22.45-56.9-23.33-56.9Z"/>
      <polyline class="cls-1" points="40.64 48.09 22.72 60.27 60.13 84.57 97.36 61.02 78.88 47.55"/>
    </g>
    <text class="cls-5" transform="translate(0 69.2) scale(.95 1)"><tspan class="cls-8" x="0" y="0" xml:space="preserve">{  </tspan><tspan class="cls-6" x="67.94" y="0"> </tspan><tspan class="cls-7" x="98.88" y="0">}</tspan></text>
    <text class="cls-4" transform="translate(126.19 37.83)"><tspan x="0" y="0">Competency</tspan><tspan x="0" y="36">Constructor</tspan></text>
  </g>
</svg>