<?xml version="1.0" encoding="utf-8"?>
<!-- Generator: Adobe Illustrator 27.3.1, SVG Export Plug-In . SVG Version: 6.00 Build 0)  -->
<svg version="1.1" xmlns="http://www.w3.org/2000/svg" xmlns:xlink="http://www.w3.org/1999/xlink" x="0px" y="0px"
	 viewBox="0 0 311.2 93.5" style="enable-background:new 0 0 311.2 93.5;" xml:space="preserve">
<style type="text/css">
	.st0{display:none;}
	.st1{display:inline;fill:#696969;}
	.st2{fill:#FFFFFF;}
	.st3{fill:none;stroke:#FFFFFF;stroke-width:3;stroke-miterlimit:10;}
	.st4{enable-background:new    ;}
</style>
<g id="colored_parts" class="st0">
	<path class="st1" d="M57.4,14.1c0,0.7-0.1,1.4,0.2,2c0.2,0.6,0.5,1.1,1,1.5c0.2,0.2,0.5,0.4,0.7,0.5c0.6,0.3,0.8,0.4,1.5,0.4
		c0.1,0,0.3,0,0.4,0c0.2,0,0.3,0,0.5-0.1c0.5-0.2,0.8-0.4,1.3-0.8c0.2-0.2,0.4-0.5,0.6-0.7c0.2-0.3,0.4-0.5,0.5-0.8
		c0.2-0.6,0.5-1.2,0.4-1.8l-4.7,1.3c0.4,0.8,0.8,1.5,1.2,2.2l3.4-3.4c-0.2-0.1-0.3-0.1-0.5-0.2c-0.3-0.2-0.6-0.3-0.9-0.3
		c-0.3-0.1-0.7-0.1-1,0c-0.3,0.1-0.6,0.2-0.8,0.4c-0.3,0.2-0.5,0.4-0.6,0.7c-0.3,0.6-0.5,1.3-0.2,1.9c0.2,0.6,0.6,1.2,1.2,1.5
		c0.2,0.1,0.3,0.1,0.5,0.2l0.6,0.2c0.3,0.1,0.7,0.1,1,0c0.2,0,0.4-0.1,0.6-0.2c0.3-0.1,0.6-0.3,0.8-0.5c0.3-0.3,0.5-0.7,0.6-1.1
		c0.1-0.3,0.1-0.7,0-1c0-0.3-0.1-0.6-0.3-0.9c-0.4-0.7-0.9-1.4-1.2-2.2l-0.4-0.5c-0.2-0.2-0.5-0.4-0.8-0.5c-0.2-0.1-0.4-0.2-0.6-0.2
		c-0.3-0.1-0.7-0.1-1,0c-0.4,0.1-0.8,0.4-1.1,0.6c-0.2,0.2-0.4,0.5-0.5,0.8c-0.2,0.3-0.2,0.6-0.2,1c0,0.1,0,0.2,0,0.3l0.1-0.7
		c0,0.1,0,0.2-0.1,0.3l0.2-0.6c-0.1,0.2-0.2,0.4-0.3,0.6l0.4-0.5c-0.1,0.2-0.3,0.3-0.4,0.5l0.5-0.4c0,0-0.1,0.1-0.2,0.1l0.6-0.2
		c0,0-0.1,0-0.1,0l0.7-0.1c-0.1,0-0.1,0-0.2,0l0.7,0.1c0,0-0.1,0-0.1,0l0.6,0.2c-0.1,0-0.1-0.1-0.2-0.1l0.5,0.4
		C62,14.1,61.9,14,61.9,14l0.4,0.5c-0.1-0.1-0.1-0.2-0.1-0.2l0.2,0.6c0-0.1-0.1-0.2-0.1-0.3l0.1,0.7c0-0.4,0-0.7,0-1.1
		c0-0.7-0.3-1.3-0.7-1.8c-0.2-0.2-0.5-0.4-0.8-0.5c-0.3-0.2-0.6-0.2-1-0.2c-0.7,0-1.3,0.2-1.8,0.7S57.4,13.4,57.4,14.1L57.4,14.1
		L57.4,14.1z"/>
	<path class="st1" d="M64.6,15.7c0.2-1.1,0.2-2.1-0.2-3.2c-0.2-0.7-0.6-1.4-0.8-2.1c0-0.2-0.1-0.4-0.1-0.6c0-0.1,0-0.2,0-0.3
		c0,0.4,0,0.4,0,0.1c0-0.4-0.1-0.8-0.1-1.1c-0.1-1-0.2-2-0.5-2.9s-1.1-1.7-2.1-1.8s-2,0.3-2.5,1.2c-0.9,1.7-1.4,3.6-1.9,5.4
		c-0.2,0.8-0.5,1.7-0.7,2.5c-0.1,0.2-0.1,0.4-0.2,0.6c0,0.1-0.3,0.7-0.2,0.4s-0.2,0.3-0.2,0.4c-0.1,0.2-0.1,0.2,0.1-0.1
		c-0.6,0.5,0,0.4,1.7-0.4c-1.2-0.4-2.8,0.5-3.1,1.8c-0.3,1.4,0.4,2.6,1.8,3.1c0.8,0.3,1.7,0.6,2.6,0.7c0.7,0.1,1.3,0.1,1.9-0.2
		c0.5-0.3,1-0.9,1.2-1.5c0.3-1.2-0.4-2.9-1.8-3.1c-0.9-0.1-1.8-0.4-2.6-0.7l-1.3,4.8c1.7,0.6,3.3-0.7,4-2.2c0.5-1.1,0.9-2.2,1.2-3.4
		c0.3-1,0.5-2,0.8-3c0.1-0.5,0.3-0.9,0.5-1.4c0-0.1,0.1-0.3,0.2-0.4c0-0.1,0.2-0.4,0-0.1s0-0.1,0.1-0.1c0.1-0.1,0.1-0.3,0.2-0.4
		L58,6.8c0,0.2,0.1,0.4,0.1,0.6c0,0.1,0,0.2,0,0.3c0,0.2,0,0.1,0-0.2c0.1,0.1,0.1,1,0.1,1.1c0.1,0.9,0.2,1.8,0.3,2.7
		c0.2,0.7,0.4,1.3,0.7,2c0.1,0.3,0.2,0.7,0.3,1c0.2,0.4,0-0.4,0-0.1c0,0.2-0.1,0.8,0,0.1c-0.2,1.3,0.4,2.8,1.8,3.1
		C62.7,17.7,64.3,17.1,64.6,15.7L64.6,15.7L64.6,15.7z"/>
	<path class="st1" d="M52.2,37.5c-0.3-0.5-0.6-1-0.8-1.5c-0.1-0.1-0.1-0.2-0.2-0.4c-0.2-0.3,0.1,0.4,0,0c-0.1-0.3-0.2-0.6-0.3-0.8
		l-4.6,1.9c0,0.1,0.1,0.2,0.2,0.3c0.2,0.5-0.1-0.3,0,0c0,0.1,0.1,0.2,0.1,0.4c0,0.1,0,0.5,0,0.1c0-0.4,0,0.1,0,0.2c0,0.3,0,0,0-0.2
		c0,0.3,0,0,0.1-0.1c-0.2,0.4,0.2-0.2,0,0c-1,0.6-1.7,1.8-2.2,2.8l4.7,1.3c0-0.1,0-0.2,0-0.4c0,0.3,0,0.4,0,0.1
		c0.1-0.2,0.1-0.5,0.2-0.7c0-0.1,0.1-0.2,0.1-0.4c-0.1,0.3-0.2,0.3,0,0.1c0.1-0.2,0.2-0.5,0.4-0.7l-4.7-1.3c-0.1,0.7,0.1-0.3,0,0
		c0,0.2-0.1,0.3-0.1,0.5c-0.1,0.3-0.1,0.7-0.2,1c-0.2,0.6-0.3,1.2-0.6,1.8s-0.5,1.2-0.7,1.8c-0.2,0.5,0.1-0.2,0,0.1
		c-0.1,0.2-0.1,0.3-0.2,0.5c0,0.1-0.1,0.2-0.2,0.4c-0.5,1.2,0.3-1.1,2-0.5l1.1,0.6l-0.1-0.1l0.6,1.1l0-0.1l-3.1,3.1
		c0.4,0.1,0.8,0.2,1.2,0.3c1.2,0.4,2.8-0.4,3.1-1.8s-0.4-2.7-1.8-3.1c-0.4-0.1-0.8-0.2-1.2-0.3c-1.7-0.5-3.8,1.3-3.1,3.1
		c0.5,1.2,1.3,2.1,2.7,2c0.9,0,1.6-0.3,2.2-1c0.4-0.5,0.6-1,0.8-1.5c0.3-0.6,0.5-1.2,0.8-1.8c0.8-2,1.4-4,1.7-6.2
		c0.1-1-0.9-2.2-1.8-2.4c-1.1-0.2-2.2,0.2-2.8,1.2c-0.8,1.4-1.2,2.9-1.3,4.5c-0.2,2.5,3.5,3.4,4.7,1.3c0.2-0.3,0.3-0.6,0.5-0.9
		c0.3-0.5,0-0.1,0,0c0,0,0.4-0.4,0.4-0.4c0.6-0.6,1.2-1.1,1.5-1.9c0.8-1.8,0.2-3.6-0.6-5.3c-0.5-1.1-2.1-1.5-3.1-1s-1.8,1.8-1.5,3
		c0.5,1.3,1,2.7,1.8,3.9c0.7,1.1,2.3,1.6,3.4,0.9S52.9,38.7,52.2,37.5L52.2,37.5L52.2,37.5z"/>
	<path class="st1" d="M50.4,39.7c4,0.2,7.9,0.8,11.9,0.5c3.8-0.3,7.9,0.2,11-2.5c1-0.9,0.9-2.6,0-3.5c-1-1-2.5-0.9-3.5,0
		c-0.9,0.8-2.3,0.8-3.4,0.8c-1.8,0.1-3.5,0.2-5.2,0.3c-3.6,0.3-7.1-0.4-10.7-0.6c-1.3-0.1-2.5,1.2-2.5,2.5
		C47.9,38.6,49.1,39.6,50.4,39.7L50.4,39.7L50.4,39.7z"/>
	<path class="st1" d="M51.2,43c7.2,0.4,14.4-0.1,21.5-1.5c1.3-0.3,2.1-1.8,1.8-3.1c-0.4-1.4-1.8-2-3.1-1.8
		C64.7,38,57.9,38.4,51.2,38c-1.3-0.1-2.5,1.2-2.5,2.5C48.7,41.9,49.9,43,51.2,43L51.2,43L51.2,43z"/>
	<path class="st1" d="M48.8,45c4,0.1,8.2,0.4,12.1-0.5c1.7-0.4,3.3-1.3,5-1.9c0.9-0.3,1.7-0.5,2.6-0.7c0.5-0.1,1-0.2,1.6-0.3
		c0.2,0,1.5-0.2,0.9-0.3l-1.1-0.6c0.5,0.4,0.7,1.7,0.9,2.3c0.9,3.1,5.8,1.8,4.8-1.3c-0.7-2.3-1.6-5.5-4.6-5.3
		c-2.5,0.2-5.2,0.9-7.5,1.8c-1.1,0.4-2.1,1-3.2,1.3s-2.3,0.4-3.5,0.5c-2.7,0.1-5.3,0.1-8,0C45.5,40,45.5,45,48.8,45L48.8,45L48.8,45
		z"/>
	<path class="st1" d="M49,47.9c4.6,0.2,9.2,0,13.7-0.3s8.9-0.3,13.1-1.7c3.1-1,1.8-5.8-1.3-4.8c-3.9,1.2-8.2,1.3-12.3,1.5
		c-4.4,0.3-8.8,0.5-13.2,0.3C45.8,42.7,45.8,47.7,49,47.9L49,47.9z"/>
	<path class="st1" d="M74.6,43.2c-4.2,1.4-8.3,3-12.6,4c-2,0.5-4,0.7-6.1,0.8s-3.5-0.9-5.3-1.8c-2.8-1.5-5.4,2.8-2.5,4.3
		c2.2,1.2,4.3,2.4,6.9,2.5c2.3,0.1,4.8-0.3,7-0.7c4.8-0.8,9.4-2.7,13.9-4.2C79,47,77.7,42.2,74.6,43.2L74.6,43.2L74.6,43.2z"/>
	<path class="st1" d="M48,50.4c5.4,0.5,10.9,1,16.3,1.1c2.7,0,5.3-0.3,8-0.8c1.1-0.2,2.4-0.3,3.4-0.8c1.4-0.8,2-2.3,1.7-3.8
		c-0.3-1.3-1.8-2.1-3.1-1.8c-1.4,0.4-2,1.8-1.8,3.1l0.1,0.3v-1.3l-0.1,0.3l0.6-1.1c0.4-0.2,0.4-0.2,0-0.1c-0.3,0-0.6,0.1-0.9,0.2
		c-0.4,0.1-0.9,0.2-1.3,0.2c-1,0.2-2.1,0.4-3.1,0.5c-2.2,0.2-4.3,0.1-6.5,0c-4.5-0.2-8.9-0.6-13.4-1c-1.3-0.1-2.5,1.2-2.5,2.5
		C45.5,49.4,46.7,50.3,48,50.4L48,50.4L48,50.4z"/>
	<path class="st1" d="M33.7,52.2c-0.8,1-1.5,2.1-2.3,3.1l0.4-0.5c-0.6,0.8-1.4,1.3-2.1,2s-1.2,1.4-1.9,2c-0.5,0.4-0.7,1.2-0.7,1.8
		c0,0.6,0.3,1.3,0.7,1.8s1.1,0.8,1.8,0.7l0.7-0.1c0.4-0.1,0.8-0.3,1.1-0.6c0.6-0.5,1.1-1,1.6-1.6s1.1-1.1,1.7-1.6
		c0.7-0.6,1.2-1.4,1.8-2.2l1.6-2.2c0.4-0.5,0.4-1.4,0.2-1.9s-0.6-1.2-1.2-1.5c-0.6-0.3-1.3-0.5-1.9-0.2S34.1,51.6,33.7,52.2
		L33.7,52.2L33.7,52.2z"/>
	<path class="st1" d="M26.7,62c0.1,0,0.3,0,0.4,0c-0.3,0-0.3,0,0,0c0.2,0.1,0.4,0.1,0.6,0.2c0.5,0.2,1,0.4,1.5,0.6
		c1,0.4,2,0.8,3,1.3c2.1,0.9,4.1,1.7,6.2,2.6c1.2,0.5,2.8-0.5,3.1-1.8c0.3-1.5-0.5-2.5-1.8-3.1c-2.1-0.9-4.3-1.8-6.4-2.7
		S29.1,57,26.7,57c-1.3,0-2.6,1.2-2.5,2.5S25.3,62,26.7,62L26.7,62L26.7,62z"/>
	<path class="st1" d="M31.5,62c1.6,0.7,2.7,1.7,4,2.7s2.8,1.8,4.3,2.5c3.4,1.6,6.8,3,10.2,4.5c1.2,0.5,2.7,0.4,3.4-0.9
		c0.6-1.1,0.3-2.9-0.9-3.4c-3.4-1.5-6.8-2.9-10.2-4.5c-1.4-0.6-2.9-1.4-4-2.3c-1.4-1-2.7-2.2-4.3-2.9c-1.2-0.5-2.7-0.4-3.4,0.9
		C30,59.6,30.2,61.4,31.5,62L31.5,62L31.5,62z"/>
	<path class="st1" d="M29.1,64.2c2.1,0.7,3.9,1.8,5.8,2.8c2,1.1,4,2.2,6,3.3c1.8,1,3.7,1.9,5.4,3.2s3,2.8,4.4,4.3
		c2.2,2.4,5.7-1.2,3.5-3.5c-1.5-1.6-3.1-3.2-4.8-4.6s-3.9-2.5-6-3.6s-4.3-2.3-6.4-3.5s-4.3-2.4-6.6-3.1
		C27.4,58.3,26.1,63.2,29.1,64.2L29.1,64.2L29.1,64.2z"/>
	<path class="st1" d="M53.6,79.4c3.2,0,3.2-5,0-5S50.4,79.4,53.6,79.4L53.6,79.4z"/>
	<path class="st1" d="M54.1,74.6c-1-0.4-2.1-0.8-3.2-1.1c-0.5-0.2-1-0.3-1.4-0.5c-0.1,0-0.2-0.1-0.3-0.1c0.6,0.2,0.3,0.1,0.1,0.1
		c-0.2-0.1-0.4-0.2-0.6-0.3c-0.1-0.1-0.2-0.1-0.2-0.2c-0.4-0.2,0,0,0.1,0.1c-0.1-0.2-0.4-0.4-0.5-0.5c-0.1-0.1-0.1-0.2-0.2-0.2
		c0.2,0.3,0.2,0.3,0.1,0.2c0,0-0.1-0.1-0.1-0.1c-0.3-0.3-0.5-0.7-0.8-1c-0.8-1-1.8-1.7-2.8-2.5c-0.5-0.4-1.4-0.4-1.9-0.2
		c-0.6,0.2-1.2,0.6-1.5,1.2c-0.3,0.6-0.5,1.3-0.2,1.9s0.6,1.1,1.2,1.5c0.4,0.3-0.3-0.2,0,0c0.1,0.1,0.2,0.2,0.3,0.3
		c0.2,0.2,0.4,0.3,0.6,0.5c0.2,0.2,0.4,0.4,0.6,0.6c0.2,0.2,0.3,0.4,0.5,0.6c-0.2-0.3-0.2-0.3-0.1-0.2c0,0,0.1,0.1,0.1,0.1
		c0.2,0.2,0.4,0.5,0.5,0.7c0.2,0.2,0.3,0.4,0.5,0.6c0.4,0.4,1,0.8,1.5,1.1c0.9,0.6,2,0.9,3,1.3c0.5,0.1,0.9,0.3,1.4,0.4
		c0.2,0.1,0.5,0.2,0.7,0.2c0.2,0.1,1,0.4,0.2,0.1c0.6,0.3,1.2,0.4,1.9,0.2c0.6-0.2,1.2-0.6,1.5-1.2C55.6,76.9,55.4,75.1,54.1,74.6
		L54.1,74.6L54.1,74.6z"/>
	<path class="st1" d="M58.1,75.8c3.2,0,3.2-5,0-5S54.9,75.8,58.1,75.8L58.1,75.8z"/>
	<path class="st1" d="M48.8,70.3c2.2-0.2,4.2,0.7,6.3,1.1c2.4,0.5,4.9,0.4,7.4,0.3c2.2-0.1,4.5,0.1,6.7-0.1c2.5-0.2,4.7-1.3,6.9-2.5
		c1-0.5,1.4-1.8,1.2-2.8c-0.3-1.1-1.3-1.7-2.4-1.8c-1.3-0.1-2.7,0.2-3.9,0.7c-0.9,0.3-2,0.9-3,0.7c-3.1-0.7-4.5,4.1-1.3,4.8
		c1.6,0.3,3,0.2,4.5-0.3c1.2-0.4,2.4-1,3.7-0.8l-1.3-4.7c-1.7,0.9-3.4,1.9-5.4,1.8c-2.2,0-4.4,0-6.6,0.1s-4.1,0.1-6.2-0.4
		s-4.3-1.2-6.5-1c-1.3,0.1-2.5,1.1-2.5,2.5C46.3,69.1,47.4,70.4,48.8,70.3L48.8,70.3L48.8,70.3z"/>
	<path class="st1" d="M66.6,68.7c-2.8,0.1-5.6,0.2-8.5,0.1c-1.4,0-2.8-0.1-4.1-0.2c-0.7,0-1.3-0.1-2-0.1c0,0-0.9-0.1-0.4,0
		c-0.2,0-0.3-0.1-0.5-0.1c0.1,0,0.2,0.1,0.3,0.1c-2-2.1-5.2,0.6-3.9,3c2.1,3.9,4.9,7.4,8.4,10.1c0.9,0.7,2,1,3,0.4
		c0.9-0.5,1.5-1.8,1.2-2.8c-1-2.6-2.2-4.9-3.9-7.1c-0.8-1.1-2.2-1.6-3.4-0.9c-1,0.6-1.7,2.3-0.9,3.4c1.4,1.8,2.6,3.9,3.4,5.9
		l4.2-2.4c-3.3-2.6-5.7-5.4-7.6-9.1l-3.9,3c1.2,1.3,2.8,1.4,4.5,1.5s3.2,0.2,4.8,0.3c3.2,0.1,6.3,0.1,9.5-0.1
		c1.3-0.1,2.5-1.1,2.5-2.5C69.1,69.9,68,68.7,66.6,68.7L66.6,68.7L66.6,68.7z"/>
	<path class="st1" d="M61.2,82.8c0.4-0.3,0.7-0.7,1.1-1c0.1-0.1,0.2-0.2,0.3-0.3c0.3-0.2-0.4,0.3-0.1,0.1c0.2-0.2,0.4-0.3,0.6-0.4
		c0.8-0.6,1.7-1.2,2.6-1.7c1.8-1.2,3.7-2.4,5.3-4c0.9-0.9,0.9-2.3,0.2-3.3c-0.8-1.1-2.1-1.2-3.2-0.6l-8.8,4l3.7,1.5
		c0.1,0.3,0,0.5-0.1,0.8c-0.2,0.4-0.2,0.5-0.1,0.3c0.2-0.3,0-0.2-0.1,0c0.1-0.2,0.4-0.5,0.6-0.7c0.4-0.4,0.8-0.8,1.2-1.2
		s0.8-0.8,1.2-1.2c0.1-0.1,0.7-0.4,0.7-0.6c0,0.1-0.4,0.3-0.1,0.1c0.1-0.1,0.3-0.2,0.4-0.3c0.5-0.4,1-0.8,1.2-1.5
		c0.2-0.6,0.1-1.4-0.2-1.9c-0.8-1.2-2.2-1.6-3.4-0.9c-2.2,1.1-4.3,2.3-6.5,3.4c-1.2,0.6-1.6,2.3-0.9,3.4c0.8,1.2,2.2,1.6,3.4,0.9
		c2.2-1.1,4.3-2.3,6.5-3.4l-2.5-4.3c-1.3,0.9-2.6,2-3.7,3.2c-1.3,1.4-3.1,3.2-2.4,5.2c0.2,0.8,0.7,1.3,1.5,1.6
		c0.8,0.3,1.5,0.2,2.2-0.1l8.8-4l-3-3.9c-0.4,0.3-0.7,0.7-1.1,1c-0.1,0.1-0.2,0.2-0.3,0.3c-0.3,0.2,0.4-0.3,0.1-0.1
		c-0.2,0.2-0.4,0.3-0.6,0.4c-0.8,0.6-1.7,1.2-2.6,1.7c-1.8,1.2-3.7,2.4-5.3,3.9c-0.9,0.9-1,2.6,0,3.5S60.2,83.7,61.2,82.8L61.2,82.8
		L61.2,82.8z"/>
	<path class="st1" d="M83.7,60.1c-1.2,1.1-2.7,2-4.3,2.9c-1.7,1-3.4,2-4.9,3.3c-1.4,1.2-2.4,2.9-3.7,4.2s-3.2,2.2-4.7,3.5
		c-1,0.9-0.9,2.6,0,3.5c1,1,2.6,0.9,3.5,0c1.2-1.2,3.2-2.1,4.6-3.4s2.3-3,3.8-4.3c1.1-1,2.7-1.9,4.2-2.8c1.8-1,3.5-2.1,4.9-3.5
		c1-0.9,0.9-2.6,0-3.5C86.2,59.1,84.7,59.2,83.7,60.1L83.7,60.1L83.7,60.1z"/>
	<path class="st1" d="M67.4,78.5c3-1.6,5.8-3.5,8.4-5.7c1.2-1,2.3-2.1,3.5-3.2c0.7-0.6,0.9-0.8,1.6-1.3c0.8-0.5,1.6-1,2.2-1.7
		c1-1.1,1-3.2-0.5-3.9c-2.3-1.1-5.1,0.1-7.3,1.1c-2,0.8-3.2,1.6-5.3,2.1l1.3,4.8c2.2-0.9,4.5-1.8,6.8-2.6c1.2-0.4,2.2-1.7,1.8-3.1
		c-0.4-1.2-1.8-2.2-3.1-1.8c-2.3,0.8-4.5,1.6-6.8,2.6c-1.2,0.5-2.2,1.7-1.8,3.1c0.4,1.3,1.7,2.1,3.1,1.8c1.9-0.5,3.6-1.3,5.3-2.1
		c0.2-0.1,0.4-0.2,0.6-0.3c0.1,0,0.6-0.3,0.4-0.2c-0.2,0.1,0.4-0.2,0.4-0.2c0.2-0.1,0.4-0.2,0.6-0.2c0.4-0.1,0.8-0.3,1.2-0.4
		c0.2-0.1,0.4-0.1,0.6-0.2l0.2-0.1c-0.2,0.1-0.5,0-0.7-0.2l-0.5-3.9c-0.1,0.1-0.2,0.2-0.4,0.3c0.3-0.2-0.2,0.1-0.2,0.1
		c-0.3,0.2-0.6,0.4-0.9,0.6c-0.8,0.5-1.5,1.1-2.2,1.7c-1.2,1-2.3,2.2-3.5,3.2c-1.1,1-2.1,1.7-3.4,2.6s-2.8,1.8-4.2,2.5
		c-1.2,0.6-1.6,2.3-0.9,3.4C64.7,78.8,66.1,79.1,67.4,78.5L67.4,78.5L67.4,78.5z"/>
	<path class="st1" d="M84.6,57.6c-0.5,0.2-1.1,0.5-1.6,0.7l0.6-0.2c-1.4,0.6-2.8,1.1-4.2,1.5c-0.6,0.2-1.2,0.6-1.5,1.2
		s-0.4,1.3-0.2,1.9s0.6,1.2,1.2,1.5s1.3,0.4,1.9,0.2c2.2-0.7,4.3-1.5,6.4-2.5c0.5-0.2,1-0.9,1.2-1.5c0.2-0.6,0.1-1.4-0.2-1.9
		s-0.9-1-1.5-1.2l-0.7-0.1C85.4,57.3,85,57.4,84.6,57.6L84.6,57.6L84.6,57.6z"/>
	<path class="st1" d="M75,73.3c3.8-2.5,7.7-4.7,11.8-6.6c1.1-0.5,1.5-2.1,1-3.1s-1.8-1.9-2.9-1.5c-2.8,1-5.3,2.4-7.6,4.2
		c-1,0.8-1.9,1.7-2.8,2.6c-0.5,0.4-0.9,0.8-1.4,1.3c-0.3,0.2,0.3-0.2,0,0c-0.1,0.1-0.3,0.2-0.4,0.3c-0.3,0.2-0.6,0.4-0.9,0.5
		c-1.2,0.6-1.6,2.3-0.9,3.4c0.8,1.2,2.2,1.6,3.4,0.9c2.4-1.2,4-3.3,6.1-5c0.1-0.1,0.2-0.2,0.3-0.3c0,0,0.4-0.3,0.2-0.1
		c-0.3,0.2,0.2-0.2,0.3-0.2c0.1-0.1,0.2-0.2,0.3-0.2c0.5-0.4,1.1-0.7,1.6-1c0.5-0.3,1.1-0.6,1.6-0.8c0.2-0.1,0.3-0.2,0.5-0.2
		c-0.2,0.1-0.2,0.1,0,0c0.3-0.1,0.7-0.3,1-0.4l-1.9-4.6c-4.1,2-8,4.2-11.8,6.6c-1.1,0.7-1.7,2.2-0.9,3.4
		C72.2,73.5,73.8,74.1,75,73.3L75,73.3L75,73.3z"/>
	<path class="st1" d="M93.5,58.6c-1-0.1-2,0-3-0.1l0.7,0.1c-0.3,0-0.6-0.1-0.9-0.2c-0.2-0.1-0.2-0.1,0.1,0c0.2,0.1,0.2,0.1,0.1,0
		c-0.1,0-0.2-0.1-0.2-0.1l0.3,0.2c-0.3-0.1-0.5-0.5-0.7-0.7c-0.2-0.2-0.4-0.5-0.7-0.7c-0.4-0.3-0.8-0.6-1.2-0.9
		c-0.4-0.3,0.4,0.4,0,0c-0.1-0.1-0.2-0.2-0.4-0.3s-0.2-0.2-0.3-0.3c-0.3-0.3,0.3,0.5,0.1,0.1c-0.1-0.1-0.1-0.3-0.2-0.3
		c0.2,0.4,0.2,0.5,0.1,0.2c0-0.1,0-0.2-0.1-0.3c-0.2-1.3-1.9-2.1-3.1-1.8c-1.4,0.4-2,1.7-1.8,3.1c0.2,1.2,1,2.3,2,3.1
		c0.3,0.3,0.7,0.5,1,0.8c0.1,0.1,0.2,0.2,0.3,0.2c0.2,0.2-0.5-0.4-0.1-0.1s0.7,0.7,1,1c0.8,0.9,2,1.5,3.2,1.7
		c1.3,0.2,2.5,0.1,3.8,0.2s2.6-1.2,2.5-2.5C95.9,59.7,94.9,58.7,93.5,58.6L93.5,58.6L93.5,58.6z"/>
	<path class="st1" d="M81.2,55.2c1.2,1.4,2.7,2.5,4.2,3.5c0.7,0.4,1.4,0.8,2.1,1.2c0.4,0.2,0.8,0.4,1.2,0.6c0.2,0.1,0.4,0.2,0.6,0.3
		c0.1,0,0.2,0.1,0.2,0.2c0.4,0.3-0.4-0.4-0.1,0c0.5,0.4,1.1,0.7,1.8,0.7c0.6,0,1.3-0.3,1.8-0.7c0.8-0.9,1.1-2.7,0-3.5
		c-0.8-0.7-1.7-1.2-2.6-1.6c-0.8-0.4-1.5-0.7-2.2-1.2c-0.3-0.2-0.7-0.4-1-0.7c-0.1-0.1-0.2-0.1-0.3-0.2c-0.3-0.2,0.1,0.1,0.2,0.1
		c-0.2-0.1-0.3-0.3-0.5-0.4c-0.7-0.5-1.3-1.2-1.8-1.8c-0.9-1-2.7-1-3.5,0C80.3,52.7,80.3,54.1,81.2,55.2L81.2,55.2L81.2,55.2z"/>
	<path class="st1" d="M81.4,54.4c1.3,1.4,2.6,2.7,4,4c0.5,0.5,1.1,0.7,1.8,0.7c0.6,0,1.3-0.3,1.8-0.7s0.8-1.1,0.7-1.8
		s-0.2-1.3-0.7-1.8c-1.4-1.3-2.7-2.6-4-4c-0.4-0.5-1.2-0.7-1.8-0.7s-1.3,0.3-1.8,0.7s-0.8,1.1-0.7,1.8S81,53.9,81.4,54.4L81.4,54.4z
		"/>
	<path class="st1" d="M75.4,43.4h-1.2c-0.3,0-0.7,0.1-1,0.2c-0.3,0.1-0.6,0.3-0.8,0.5c-0.2,0.2-0.4,0.5-0.5,0.8
		c-0.2,0.3-0.2,0.6-0.2,1l0.1,0.7c0.1,0.4,0.3,0.8,0.6,1.1l0.5,0.4c0.4,0.2,0.8,0.3,1.3,0.3h1.2c0.3,0,0.7-0.1,1-0.2
		c0.3-0.1,0.6-0.3,0.8-0.5c0.2-0.2,0.4-0.5,0.5-0.8c0.2-0.3,0.2-0.6,0.2-1l-0.1-0.7c-0.1-0.4-0.3-0.8-0.6-1.1l-0.5-0.4
		C76.2,43.5,75.8,43.4,75.4,43.4L75.4,43.4z"/>
	<path class="st1" d="M84.5,61.8c0,0.3,0,0.5,0,0.8l0.1-0.7c-0.1,0.3-0.1,0.7-0.3,1l0.2-0.6c-0.1,0.2-0.2,0.3-0.3,0.5l-0.2,0.6
		L84,64.2l0.1,0.7c0.1,0.3,0.2,0.6,0.4,0.8c0.1,0.2,0.3,0.3,0.4,0.4c0.2,0.2,0.3,0.3,0.6,0.3c0.2,0.1,0.4,0.2,0.6,0.2
		c0.3,0.1,0.7,0.1,1,0c0.8-0.2,1.6-0.5,2.4-0.9c0.6-0.3,1.2-0.6,1.7-1c0.3-0.2,0.5-0.4,0.7-0.6c0.2-0.2,0.4-0.5,0.4-0.8
		c0.1-0.3,0.1-0.7,0-1c0-0.3-0.1-0.6-0.3-0.9c-0.3-0.5-0.9-1-1.5-1.2s-1.4-0.1-1.9,0.2c-0.6,0.5-1.3,0.8-2,1.1l0.6-0.2
		c-0.5,0.2-0.9,0.4-1.4,0.5l2.8,3.7c0.3-0.5,0.6-1.1,0.7-1.7c0.1-0.4,0.1-0.8,0.2-1.2c0-0.2,0-0.4,0-0.6c0-0.3-0.1-0.7-0.2-1
		c-0.1-0.3-0.3-0.6-0.5-0.8c-0.2-0.2-0.5-0.4-0.8-0.5c-0.3-0.2-0.6-0.2-1-0.2c-0.7,0-1.3,0.2-1.8,0.7S84.5,61.2,84.5,61.8L84.5,61.8
		L84.5,61.8z"/>
	<path class="st1" d="M86.8,60.6c0.9,0.5,1.7,1,2.5,1.5c0.4,0.3,0.7,0.6,1.1,0.8c0.3,0.2,0.7,0.4,1.1,0.5c0.6,0.2,1.2,0.1,1.8,0
		c0.6-0.1,1.2-0.7,1.5-1.2c0.3-0.5,0.4-1.3,0.2-1.9s-0.6-1.2-1.2-1.5l-0.6-0.2c-0.4-0.1-0.9-0.1-1.3,0h-0.1c0.2,0,0.4,0,0.7-0.1
		c-0.1,0-0.1,0-0.2,0l0.7,0.1c-0.1,0-0.2,0-0.3-0.1l0.6,0.2c-0.3-0.2-0.6-0.4-0.9-0.6c-0.3-0.2-0.7-0.5-1-0.7
		c-0.7-0.5-1.4-0.9-2.1-1.2c-0.6-0.3-1.3-0.4-1.9-0.2c-0.6,0.2-1.2,0.6-1.5,1.2c-0.3,0.6-0.5,1.3-0.2,1.9
		C85.8,59.7,86.1,60.3,86.8,60.6L86.8,60.6L86.8,60.6z"/>
	<path class="st1" d="M92.7,58.6c-1.2-0.1-2.3,0.3-3.3,0.9c-0.7,0.4-1.4,0.9-2.1,1.4c-0.8,0.6-1.5,1.2-2.2,1.9
		c-0.3,0.3-0.5,0.5-0.8,0.8c0,0-0.2,0.2-0.2,0.2c0,0,0.6-0.4,0.2-0.1c-0.2,0.1-0.3,0.2-0.5,0.3l0.6-0.2c-0.2,0.1-0.4,0.1-0.6,0.2
		l0.7-0.1h-0.1c-0.7,0.1-1.3,0.2-1.8,0.8c-0.4,0.4-0.8,1.2-0.7,1.8c0.1,1.2,1.1,2.6,2.5,2.5c0.8-0.1,1.3-0.2,2-0.5
		c0.5-0.2,0.9-0.5,1.2-0.8c0.6-0.4,1-1,1.6-1.5c0.3-0.3,0.6-0.5,0.9-0.8c0.1-0.1,0.2-0.1,0.2-0.2c-0.3,0.2-0.4,0.3-0.2,0.1
		c0.2-0.1,0.3-0.2,0.5-0.3c0.6-0.4,1.3-0.9,2-1.2L92,63.7c0.3-0.1,0.5-0.2,0.8-0.2l-0.7,0.1c0.2,0,0.4,0,0.6,0
		c0.6,0.1,1.4-0.3,1.8-0.7c0.4-0.4,0.8-1.2,0.7-1.8s-0.2-1.3-0.7-1.8C94,58.8,93.4,58.7,92.7,58.6L92.7,58.6L92.7,58.6z"/>
	<path class="st1" d="M69.2,44.8c0.8,0,1.6,0,2.3,0c0.3,0,0.7-0.1,1-0.2c0.3-0.1,0.6-0.3,0.8-0.5c0.2-0.2,0.4-0.5,0.5-0.8
		c0.2-0.3,0.2-0.6,0.2-1L74,41.7c-0.1-0.4-0.3-0.8-0.6-1.1l-0.5-0.4c-0.4-0.2-0.8-0.3-1.3-0.3c-0.8,0-1.6,0-2.3,0
		c-0.3,0-0.7,0.1-1,0.2c-0.3,0.1-0.6,0.3-0.8,0.5c-0.2,0.2-0.4,0.5-0.5,0.8c-0.2,0.3-0.2,0.6-0.2,1l0.1,0.7c0.1,0.4,0.3,0.8,0.6,1.1
		l0.5,0.4C68.3,44.7,68.8,44.8,69.2,44.8L69.2,44.8z"/>
	<path class="st1" d="M71.6,40c-1.3,0-2.6-0.1-3.9-0.2l0.7,0.1c-0.1,0-0.2,0-0.2,0c-0.3-0.1-0.7-0.1-1,0c-0.3,0-0.6,0.1-0.9,0.3
		c-0.5,0.3-1,0.9-1.2,1.5c-0.2,0.6-0.1,1.4,0.2,1.9l0.4,0.5c0.3,0.3,0.7,0.5,1.1,0.6c1.6,0.2,3.2,0.4,4.8,0.3c0.7,0,1.3-0.3,1.8-0.7
		c0.4-0.4,0.8-1.2,0.7-1.8s-0.2-1.3-0.7-1.8S72.3,39.9,71.6,40L71.6,40L71.6,40z"/>
	<path class="st1" d="M67.7,44.1c0.8,0,1.7,0,2.5-0.1c0.3,0,0.7-0.1,1-0.2c0.3-0.1,0.6-0.3,0.8-0.5c0.2-0.2,0.4-0.5,0.5-0.8
		c0.2-0.3,0.2-0.6,0.2-1l-0.1-0.7c-0.1-0.4-0.3-0.8-0.6-1.1l-0.5-0.4c-0.4-0.2-0.8-0.3-1.3-0.3c-0.8,0.1-1.7,0.1-2.5,0.1
		c-0.3,0-0.7,0.1-1,0.2c-0.3,0.1-0.6,0.3-0.8,0.5c-0.2,0.2-0.4,0.5-0.5,0.8c-0.2,0.3-0.2,0.6-0.2,1l0.1,0.7c0.1,0.4,0.3,0.8,0.6,1.1
		l0.5,0.4C66.8,44,67.2,44.1,67.7,44.1L67.7,44.1z"/>
</g>
<g id="Layer_1">
	<g id="Colors">
		<path class="st2" d="M38.4,53.6c-0.1,0.6-0.1,1.2-0.1,1.9c0,1,0.2,2.1,0.4,3.1c0.2,0.7,0.5,1.2,0.9,1.7c0.3,0.5,0.8,1,1.4,1.3
			c0.6,0.4,1.2,0.6,1.9,0.6c0.7,0.2,1.3,0.1,2-0.1l1.2-0.5c0.8-0.4,1.3-1,1.8-1.8l0.5-1.2c0.2-0.9,0.2-1.8,0-2.7
			c-0.1-0.3-0.1-0.6-0.2-0.9l0.2,1.3c-0.1-0.9-0.1-1.9,0-2.8c0-0.7-0.1-1.3-0.4-1.9c-0.2-0.6-0.5-1.2-1-1.6c-0.5-0.5-1-0.8-1.6-1
			c-0.6-0.3-1.2-0.5-1.9-0.4l-1.3,0.2c-0.8,0.2-1.6,0.7-2.2,1.3l-0.8,1C38.6,51.8,38.4,52.7,38.4,53.6L38.4,53.6L38.4,53.6z"/>
		<path class="st2" d="M42.7,61.8c0.3,0,0.6,0.1,0.9,0.1l-1.3-0.2c1.2,0.2,2.4,0.4,3.6,0.6c0.7,0.2,1.3,0.2,2,0.1
			c0.7,0,1.3-0.2,1.9-0.6c0.6-0.3,1-0.7,1.4-1.3c0.4-0.5,0.7-1,0.9-1.7l0.2-1.3c0-0.9-0.2-1.7-0.7-2.5l-0.8-1
			c-0.6-0.6-1.4-1-2.2-1.3c-1.9-0.4-3.9-0.7-5.8-0.9c-0.7,0-1.3,0.1-1.9,0.4c-0.6,0.2-1.2,0.5-1.6,1c-0.5,0.5-0.8,1-1,1.6
			c-0.3,0.6-0.5,1.2-0.4,1.9l0.2,1.3c0.2,0.8,0.7,1.6,1.3,2.2l1,0.8C41,61.5,41.8,61.8,42.7,61.8L42.7,61.8L42.7,61.8z"/>
		<path class="st2" d="M51.3,27.4c0.2,0.2,0.3,0.3,0.4,0.5l-0.8-1c0.6,0.7,1,1.5,1.4,2.3L51.8,28c0.1,0.3,0.2,0.5,0.3,0.8l-0.2-1.3
			v0.2c0-0.4,0.1-0.9,0.2-1.3L52,26.6l0.5-1.2l-0.1,0.2l0.8-1c-0.2,0.2-0.3,0.3-0.5,0.4l1-0.8c-0.2,0.2-0.5,0.3-0.8,0.5l1.2-0.5
			c-0.1,0-0.3,0.1-0.4,0.1l1.3-0.2h-0.2c0.4,0,0.9,0.1,1.3,0.2L56,24.2l1.2,0.5c-0.1,0-0.2-0.1-0.3-0.2l1,0.8c-0.9-0.8-1.8-1.6-3-2
			c-1.9-0.5-4.1-0.1-5.5,1.3c-1,1.1-1.7,2.5-1.7,4c0,1.9,1.1,3.7,2.8,4.6c1.5,0.8,3.2,1.2,4.9,1.2c1.1,0,2.2-0.2,3.3,0l-1.3-0.2
			c1.2,0.2,2.4,0.5,3.7,0.7l2.7-9.6c-1.9-0.3-3.8-0.6-5.7-0.8l-1.3,9.8c3.2,0.2,6.4,0.3,9.5,0.5c2,0.1,3.8-1.3,4.6-3.1
			c0.8-1.9,0.3-3.9-1-5.5c-0.1-0.1-0.2-0.2-0.3-0.3l0.8,1c-0.3-0.4-0.6-0.9-0.8-1.3l0.5,1.2c-0.2-0.4-0.3-0.8-0.3-1.3l0.2,1.3
			c-0.1-0.8-0.1-1.7-0.4-2.5c-0.3-0.9-0.7-1.4-1.1-2.1l0.5,1.2l0-0.1l0.2,1.3v-0.2c-0.1,0.4-0.1,0.9-0.2,1.3l0-0.1l-0.5,1.2l0.1-0.1
			l-0.8,1l0.1-0.1l-2.2,1.3l0.1,0c2.4-0.6,3.9-3.1,3.6-5.5s-2.4-4.5-4.9-4.3c-3,0.2-6.1,0.5-9.1,0.7c-1.3,0.1-2.6,0.5-3.5,1.5
			c-0.9,0.9-1.5,2.3-1.5,3.5s0.5,2.6,1.5,3.5s2.2,1.6,3.5,1.5c3-0.2,6.1-0.5,9.1-0.7L63.1,19c-2.3,0.6-4.1,2.9-4,5.3
			c0,1,0.2,2,0.8,2.9c0.2,0.3,0.4,0.5,0.5,0.8l-0.5-1.2c0,0.1,0.1,0.2,0.1,0.4l-0.2-1.3c0.2,1.1,0.2,2.3,0.6,3.4
			c0.6,1.5,1.3,2.6,2.3,3.9l3.5-8.5c-3.2-0.1-6.4-0.3-9.5-0.5c-2.5-0.1-4.6,2-4.9,4.3c-0.1,1.1,0,2.3,0.6,3.2c0.7,1,1.7,2.1,3,2.3
			c1.9,0.3,3.8,0.6,5.7,0.8c1.4,0.2,2.6,0.2,3.8-0.5c1-0.6,2-1.8,2.3-3c0.3-1.3,0.2-2.7-0.5-3.9c-0.7-1-1.7-2-3-2.3
			c-1.8-0.4-3.6-0.8-5.5-0.9c-1.3-0.1-2.6,0.2-3.9,0l1.3,0.2c-0.3,0-0.7-0.1-1-0.2l1.2,0.5c-0.2-0.1-0.4-0.2-0.5-0.3l1,0.8l-0.1-0.1
			l0.8,1l0-0.1l0.7,2.5v-0.1c-0.1,0.4-0.1,0.9-0.2,1.3l0-0.1l-0.5,1.2l0.1-0.1l-0.8,1l0.1-0.1l-1,0.8l0.1-0.1L53,33l0.2,0l-1.3-0.2
			c0.1,0,0.2,0,0.4,0.1l-1.2-0.5l0.2,0.1l-1-0.8c0.6,0.5,1.2,1.1,1.8,1.5c1.3,0.8,3.1,1,4.5,0.6c2-0.6,4-2,4.8-4
			c1.4-3.4-0.8-7-3.1-9.5c-0.8-0.9-2.3-1.5-3.5-1.5s-2.7,0.5-3.5,1.5s-1.5,2.2-1.5,3.5S50.4,26.3,51.3,27.4L51.3,27.4L51.3,27.4z"/>
		<path class="st2" d="M49,62.5c-1.2-0.2,0.6,0.1,0.8,0.2c0.6,0.1,1.1,0.3,1.7,0.5s1.1,0.4,1.6,0.6c-1.1-0.4,0.6,0.3,0.8,0.4
			l1.2-9.1c-0.2,0-0.6,0.2-0.8,0.2c1,0.1,0.2,0-0.1,0c-0.3,0-0.6,0-0.8,0c-0.1,0-0.3,0-0.4,0c-0.4,0-0.3,0,0.3,0
			c-0.3,0.1-1.3-0.3-1.6-0.4c-0.9-0.3,0.3,0.2-0.2-0.1c-0.3-0.2-0.6-0.3-0.9-0.5l-3.8,9.1c5.3,1.3,11,3.3,16.4,1.9
			c4.2-1.1,4.9-7,1.2-9.1c-2.7-1.5-5.5-2.3-8.6-2.7c-2.5-0.3-4.6,2.1-4.9,4.3c-0.3,2.6,1.2,4.6,3.6,5.5c4.8,1.9,10.4,1.9,15.1,0.1
			l-5.7-7.3c-0.3,0.5-0.2,0.4,0.2-0.2c0.6-0.4,0.7-0.5,0.2-0.2c0.7-0.3,0.8-0.3,0.3-0.2c0.5-0.2,0.9-0.2,1.4,0
			c-2.5-0.5-5.5,0.8-6.2,3.5c-0.6,2.5,0.8,5.6,3.5,6.1c2.7,0.6,5.6,0.6,8.4-0.2c1.3-0.4,2.6-0.9,3.8-1.6c0.5-0.3,0.9-0.6,1.4-0.9
			c0.2-0.2,0.5-0.3,0.7-0.4C78,61.5,77,62,76.8,62c3.7,0.1,6.4-4.3,4.3-7.5c-0.2-0.4-0.2-0.4-0.1,0c0.2,0.3,0.2,0.6,0.2,0.9
			c-0.1-1-0.3,1,0.1,0c1.3-3.5-2.7-7.3-6.2-6.2c-2,0.7-3.4,1.7-5,3c-0.3,0.2-0.2,0.2,0.3-0.2c-0.1,0.1-0.3,0.2-0.4,0.3
			c-0.1,0-0.6,0.5-0.7,0.4c0.6-0.2,0.8-0.3,0.4-0.2c-0.3,0.1-0.2,0.1,0.3,0c-0.3,0.1-1,0.1-1.2,0.1c-2,0.2-3.8,0.9-5.5,2
			c-0.5,0.4-1.1,0.8-1.6,1.2c-0.2,0.2-0.7,0.6-0.9,0.7l0.4-0.3c-0.2,0.2-0.4,0.3-0.6,0.4c-1.5,1-0.2-0.6,2.2,0.1l2.2,1.3L64.8,58
			l1.3,4.9l0-0.2c0.5-2.6-0.7-5.5-3.5-6.2c-2.5-0.6-5.6,0.8-6.2,3.5s0.5,5.1,3,6.2c1.9,0.8,3.8,0.6,5.5-0.4c1-0.6,1.9-1.4,2.8-2.1
			c0.4-0.3,0.7-0.7,0.2-0.2c0.3-0.3,0.8-0.5,1.2-0.8c0.8-0.6-0.8,0.5,0.3-0.1c0.4-0.1,0.2-0.1-0.4,0c0.3,0,0.6,0,0.8-0.1
			c1.6-0.2,2.9-0.4,4.3-1.1c1-0.5,1.8-1.2,2.7-1.9c0.2-0.2,0.4-0.3,0.6-0.4c-0.6,0.4-0.6,0.5-0.2,0.2c0.3-0.2,1.6-0.7,0.3-0.2
			l-6.2-6.2c-0.8,2.2-0.4,4.9,0.8,6.8l4.3-7.5c-1.7,0-3.3,0.5-4.8,1.4c-0.5,0.3-0.9,0.6-1.4,0.9c-0.1,0.1-1.4,0.8-0.8,0.5
			s-0.8,0.2-0.9,0.3c-0.3,0.1-0.5,0.1-0.8,0.2c-0.6,0.1-0.5,0.1,0.1,0c-0.4,0.2-1.1,0-1.6,0c-0.6,0-0.5,0,0.1,0.1
			c-0.3,0-0.5-0.1-0.8-0.2l-2.7,9.6c3.5,0.8,7.4-0.6,9.1-4c0.9-1.8,0.9-3.9-0.4-5.5c-1.1-1.5-3.4-2.5-5.3-1.8
			c-0.9,0.3-1.9,0.6-2.9,0.8c-0.6,0.1-0.6,0.1,0.1,0c-0.2,0-0.4,0-0.6,0.1c-0.5,0-1,0.1-1.5,0c-0.4,0-0.8,0-1.3-0.1
			c-0.6-0.1-0.6,0,0.1,0c-0.3,0-0.6-0.1-0.8-0.2c-1-0.2-1.9-0.5-2.8-0.9l-1.3,9.8c-1.2-0.1,0.1,0,0.4,0.1c0.5,0.1,1,0.2,1.4,0.4
			c0.2,0.1,0.4,0.1,0.6,0.2c-0.5-0.2-0.5-0.2-0.2-0.1c0.4,0.2,0.9,0.5,1.3,0.7l1.2-9.1c-0.3,0.1-0.6,0.2-0.9,0.2
			c0.6-0.1,0.6-0.1,0,0c-0.5,0-0.9,0-1.3,0c-0.6-0.1-0.6,0,0,0c-0.2,0-0.5-0.1-0.7-0.1c-0.5-0.1-1-0.2-1.5-0.3
			c-2.2-0.5-4.5-1-6.7-1.6c-2.4-0.6-4.9,0.6-5.9,2.9s-0.1,5,2,6.2c3.7,2.2,8.1,2.8,12.3,1.9s5-7.2,1.2-9.1c-3.2-1.7-6.4-2.5-9.9-3
			c-2.6-0.3-5.1,2.5-5,5C44.2,60.5,46.3,62.1,49,62.5L49,62.5L49,62.5z"/>
	</g>
	<g id="Lines">
		<g id="cone_line">
			<path class="st3" d="M41.8,48.1c19.2,10,31.6,2.5,36.1,0"/>
			<path class="st3" d="M47.9,31.9c12.5,6.6,21.3,1.7,24.4,0"/>
			<path class="st3" d="M53.2,18c7.3,3.3,12.2,0.9,14,0"/>
			<path class="st3" d="M59.8,1.5c-0.9,0-23.3,56.9-23.3,56.9c15.9,9.9,31.5,10.6,46.7,0C83.1,58.4,60.7,1.5,59.8,1.5z"/>
			<polyline class="st3" points="40.6,48.1 22.7,60.3 60.1,84.6 97.4,61 78.9,47.5 			"/>
		</g>
		<g>
			<g class="st4">
				<path class="st2" d="M2.7,46v-3.3c2.9,0,4.8-0.6,6-1.9c1.1-1.3,1.7-3.4,1.7-6.3v-8.6c0-2.5,0.2-4.6,0.7-6.4
					c0.5-1.8,1.2-3.3,2.2-4.5s2.4-2.1,4.1-2.6c1.7-0.6,3.8-0.9,6.3-0.9v5.3c-2,0-3.5,0.3-4.7,1c-1.1,0.6-1.9,1.7-2.4,3
					c-0.5,1.4-0.7,3.1-0.7,5.2v10.8c0,1.4-0.2,2.7-0.5,3.8c-0.4,1.2-1,2.1-1.9,3c-0.9,0.8-2.3,1.5-4,1.9S5.4,46,2.7,46z M2.7,49.1
					v-6.5h6v6.5H2.7z M23.7,80.4c-2.5,0-4.6-0.3-6.3-0.9c-1.7-0.6-3.1-1.5-4.1-2.6c-1-1.2-1.8-2.7-2.2-4.5c-0.5-1.8-0.7-4-0.7-6.4
					v-8.6c0-2.9-0.6-5.1-1.7-6.3c-1.1-1.3-3.1-1.9-6-1.9v-3.3c2.8,0,5,0.2,6.8,0.7c1.7,0.5,3.1,1.1,4,1.9c0.9,0.8,1.6,1.8,1.9,3
					c0.4,1.2,0.5,2.4,0.5,3.8V66c0,2.1,0.2,3.8,0.7,5.2c0.5,1.3,1.3,2.4,2.4,3c1.1,0.7,2.7,1,4.7,1V80.4z"/>
			</g>
		</g>
		<g>
			<g class="st4">
			</g>
		</g>
		<g>
			<g class="st4">
				<path class="st2" d="M96.4,11.4c2.5,0,4.6,0.3,6.3,0.9c1.7,0.6,3.1,1.5,4.1,2.6s1.8,2.7,2.2,4.5c0.5,1.8,0.7,4,0.7,6.4v8.6
					c0,3,0.6,5.1,1.7,6.3c1.1,1.3,3.1,1.9,6,1.9V46c-2.8,0-5-0.2-6.8-0.7s-3.1-1.1-4-1.9c-0.9-0.8-1.6-1.8-1.9-3
					c-0.4-1.2-0.5-2.4-0.5-3.8V25.8c0-2.1-0.2-3.8-0.7-5.2c-0.5-1.4-1.3-2.4-2.4-3c-1.1-0.6-2.7-1-4.7-1V11.4z M117.4,45.8v3.3
					c-2.9,0-4.8,0.6-6,1.9c-1.1,1.3-1.7,3.4-1.7,6.3V66c0,2.5-0.2,4.6-0.7,6.4c-0.5,1.8-1.2,3.3-2.2,4.5c-1,1.2-2.4,2.1-4.1,2.6
					c-1.7,0.6-3.8,0.9-6.3,0.9v-5.3c2,0,3.5-0.3,4.7-1c1.1-0.7,1.9-1.7,2.4-3c0.5-1.3,0.7-3.1,0.7-5.2V55.2c0-1.4,0.2-2.7,0.5-3.8
					c0.4-1.2,1-2.1,1.9-3c0.9-0.8,2.3-1.5,4-1.9C112.4,46,114.6,45.8,117.4,45.8z M117.4,42.7v6.5h-6v-6.5H117.4z"/>
			</g>
		</g>
		<g>
			<g class="st4">
				<path class="st2" d="M146.4,22.8h-2.6c-0.2-0.8-0.4-1.4-0.8-2s-0.9-1.1-1.4-1.5s-1.2-0.7-1.8-0.9c-0.7-0.2-1.4-0.3-2.1-0.3
					c-1.3,0-2.5,0.3-3.6,1c-1.1,0.7-1.9,1.7-2.5,3c-0.6,1.3-0.9,2.9-0.9,4.8c0,1.9,0.3,3.5,0.9,4.8c0.6,1.3,1.5,2.3,2.5,3
					c1.1,0.7,2.3,1,3.6,1c0.7,0,1.4-0.1,2.1-0.3c0.7-0.2,1.3-0.5,1.8-0.9c0.6-0.4,1-0.9,1.4-1.5c0.4-0.6,0.7-1.2,0.8-2h2.6
					c-0.2,1.1-0.6,2.1-1.1,3c-0.5,0.9-1.2,1.6-2,2.2s-1.7,1.1-2.6,1.4c-1,0.3-2,0.5-3.1,0.5c-1.9,0-3.5-0.5-5-1.4s-2.6-2.2-3.4-3.9
					c-0.8-1.7-1.2-3.7-1.2-6s0.4-4.3,1.2-6s2-3,3.4-3.9s3.1-1.4,5-1.4c1.1,0,2.1,0.2,3.1,0.5c1,0.3,1.8,0.8,2.6,1.4s1.4,1.4,2,2.2
					C145.8,20.7,146.2,21.7,146.4,22.8z"/>
				<path class="st2" d="M157,38.2c-1.5,0-2.8-0.4-3.9-1.1c-1.1-0.7-2-1.7-2.6-3c-0.6-1.3-0.9-2.7-0.9-4.4c0-1.7,0.3-3.2,0.9-4.5
					s1.5-2.3,2.6-3c1.1-0.7,2.4-1.1,3.9-1.1s2.8,0.4,3.9,1.1s2,1.7,2.6,3s0.9,2.8,0.9,4.5c0,1.7-0.3,3.2-0.9,4.4
					c-0.6,1.3-1.5,2.2-2.6,3S158.4,38.2,157,38.2z M157,35.9c1.1,0,2-0.3,2.8-0.9s1.3-1.3,1.6-2.3c0.3-0.9,0.5-2,0.5-3
					s-0.2-2.1-0.5-3.1c-0.3-0.9-0.9-1.7-1.6-2.3c-0.7-0.6-1.6-0.9-2.8-0.9c-1.1,0-2,0.3-2.8,0.9c-0.7,0.6-1.3,1.3-1.6,2.3
					c-0.3,0.9-0.5,2-0.5,3.1s0.2,2.1,0.5,3c0.3,0.9,0.9,1.7,1.6,2.3C154.9,35.6,155.8,35.9,157,35.9z"/>
				<path class="st2" d="M168.2,37.8V21.5h2.4V24h0.2c0.3-0.9,0.9-1.6,1.7-2c0.8-0.5,1.7-0.7,2.7-0.7c1.1,0,2,0.2,2.7,0.7
					c0.7,0.5,1.3,1.2,1.7,2h0.2c0.4-0.8,1-1.5,1.9-2c0.8-0.5,1.8-0.8,3-0.8c1.5,0,2.7,0.5,3.6,1.4c0.9,0.9,1.4,2.3,1.4,4.3v11h-2.5
					v-11c0-1.2-0.3-2.1-1-2.6c-0.7-0.5-1.4-0.8-2.3-0.8c-1.2,0-2,0.3-2.7,1c-0.6,0.7-0.9,1.6-0.9,2.6v10.7h-2.6V26.6
					c0-0.9-0.3-1.7-0.9-2.3c-0.6-0.6-1.4-0.9-2.3-0.9c-0.7,0-1.3,0.2-1.8,0.5c-0.6,0.3-1,0.8-1.4,1.4c-0.3,0.6-0.5,1.3-0.5,2.1v10.2
					H168.2z"/>
				<path class="st2" d="M194.3,44V21.5h2.4v2.6h0.3c0.2-0.3,0.4-0.6,0.8-1.1c0.3-0.4,0.8-0.8,1.4-1.2c0.6-0.4,1.5-0.5,2.5-0.5
					c1.4,0,2.6,0.3,3.6,1c1.1,0.7,1.9,1.7,2.5,2.9c0.6,1.3,0.9,2.8,0.9,4.5c0,1.7-0.3,3.2-0.9,4.5c-0.6,1.3-1.4,2.2-2.5,2.9
					c-1,0.7-2.2,1-3.6,1c-1.1,0-1.9-0.2-2.5-0.5c-0.6-0.4-1.1-0.8-1.5-1.2c-0.3-0.5-0.6-0.8-0.8-1.1h-0.2V44H194.3z M196.8,29.6
					c0,1.2,0.2,2.3,0.5,3.3c0.4,0.9,0.9,1.7,1.6,2.2s1.5,0.8,2.6,0.8c1.1,0,1.9-0.3,2.6-0.8s1.2-1.3,1.6-2.3c0.4-0.9,0.5-2,0.5-3.2
					c0-1.2-0.2-2.2-0.5-3.1s-0.9-1.7-1.6-2.2c-0.7-0.5-1.6-0.8-2.7-0.8c-1,0-1.9,0.3-2.6,0.8s-1.2,1.2-1.6,2.2
					C196.9,27.4,196.8,28.4,196.8,29.6z"/>
				<path class="st2" d="M219.4,38.2c-1.6,0-2.9-0.3-4.1-1c-1.1-0.7-2-1.7-2.6-2.9s-0.9-2.7-0.9-4.4c0-1.7,0.3-3.2,0.9-4.4
					s1.5-2.3,2.6-3s2.4-1.1,3.9-1.1c0.9,0,1.7,0.1,2.5,0.4s1.6,0.7,2.3,1.4s1.2,1.5,1.6,2.5c0.4,1,0.6,2.3,0.6,3.9v1.1h-12.6v-2.2
					h10.1c0-0.9-0.2-1.7-0.5-2.5c-0.4-0.7-0.9-1.3-1.6-1.7s-1.5-0.6-2.4-0.6c-1,0-1.9,0.2-2.6,0.7c-0.7,0.5-1.3,1.1-1.7,1.9
					c-0.4,0.8-0.6,1.6-0.6,2.5v1.4c0,1.2,0.2,2.3,0.6,3.1c0.4,0.9,1,1.5,1.8,2c0.8,0.4,1.7,0.7,2.7,0.7c0.7,0,1.3-0.1,1.8-0.3
					c0.5-0.2,1-0.5,1.4-0.9s0.7-0.9,0.9-1.4l2.4,0.7c-0.3,0.8-0.7,1.5-1.3,2.2c-0.6,0.6-1.3,1.1-2.2,1.4S220.5,38.2,219.4,38.2z"/>
				<path class="st2" d="M237.2,21.5v2.1h-8.5v-2.1H237.2z M231.1,17.5h2.5v15.6c0,0.7,0.1,1.2,0.3,1.6c0.2,0.4,0.5,0.6,0.8,0.7
					c0.3,0.1,0.7,0.2,1,0.2c0.3,0,0.5,0,0.7,0s0.3-0.1,0.4-0.1l0.5,2.3c-0.2,0.1-0.4,0.1-0.7,0.2c-0.3,0.1-0.7,0.1-1.2,0.1
					c-0.7,0-1.4-0.2-2.1-0.5c-0.7-0.3-1.2-0.8-1.7-1.4c-0.4-0.6-0.7-1.4-0.7-2.4V17.5z"/>
				<path class="st2" d="M247.8,38.2c-1.6,0-2.9-0.3-4.1-1c-1.1-0.7-2-1.7-2.6-2.9s-0.9-2.7-0.9-4.4c0-1.7,0.3-3.2,0.9-4.4
					s1.5-2.3,2.6-3s2.4-1.1,3.9-1.1c0.9,0,1.7,0.1,2.5,0.4s1.6,0.7,2.3,1.4c0.7,0.6,1.2,1.5,1.6,2.5c0.4,1,0.6,2.3,0.6,3.9v1.1H242
					v-2.2H252c0-0.9-0.2-1.7-0.5-2.5c-0.4-0.7-0.9-1.3-1.6-1.7c-0.7-0.4-1.5-0.6-2.4-0.6c-1,0-1.9,0.2-2.6,0.7
					c-0.7,0.5-1.3,1.1-1.7,1.9c-0.4,0.8-0.6,1.6-0.6,2.5v1.4c0,1.2,0.2,2.3,0.6,3.1c0.4,0.9,1,1.5,1.8,2c0.8,0.4,1.7,0.7,2.7,0.7
					c0.7,0,1.3-0.1,1.8-0.3c0.5-0.2,1-0.5,1.4-0.9s0.7-0.9,0.9-1.4l2.4,0.7c-0.3,0.8-0.7,1.5-1.3,2.2c-0.6,0.6-1.3,1.1-2.2,1.4
					C249.9,38,248.9,38.2,247.8,38.2z"/>
				<path class="st2" d="M260.9,28v9.8h-2.5V21.5h2.4V24h0.2c0.4-0.8,1-1.5,1.7-2c0.8-0.5,1.8-0.8,3-0.8c1.1,0,2.1,0.2,2.9,0.7
					s1.5,1.1,1.9,2c0.5,0.9,0.7,2.1,0.7,3.5v10.4h-2.5V27.6c0-1.3-0.3-2.3-1-3c-0.7-0.7-1.6-1.1-2.7-1.1c-0.8,0-1.5,0.2-2.1,0.5
					c-0.6,0.3-1.1,0.9-1.5,1.5C261.1,26.2,260.9,27,260.9,28z"/>
				<path class="st2" d="M282.6,38.2c-1.5,0-2.9-0.4-4-1.1c-1.1-0.7-2-1.7-2.6-3s-0.9-2.7-0.9-4.4c0-1.7,0.3-3.1,0.9-4.4
					c0.6-1.3,1.5-2.3,2.6-3s2.4-1.1,3.9-1.1c1.2,0,2.2,0.2,3.1,0.6c0.9,0.4,1.7,1,2.3,1.8c0.6,0.8,1,1.7,1.1,2.7h-2.5
					c-0.2-0.7-0.6-1.4-1.3-2c-0.7-0.6-1.5-0.9-2.6-0.9c-1,0-1.8,0.3-2.6,0.8s-1.3,1.2-1.7,2.1c-0.4,0.9-0.6,2-0.6,3.2
					c0,1.3,0.2,2.4,0.6,3.3c0.4,0.9,1,1.7,1.7,2.2s1.6,0.8,2.6,0.8c0.7,0,1.2-0.1,1.8-0.3c0.5-0.2,1-0.6,1.4-1
					c0.4-0.4,0.6-0.9,0.8-1.5h2.5c-0.1,1-0.5,1.8-1,2.6s-1.3,1.4-2.2,1.8C284.9,37.9,283.8,38.2,282.6,38.2z"/>
				<path class="st2" d="M294.3,44c-0.4,0-0.8,0-1.1-0.1s-0.6-0.1-0.7-0.2l0.6-2.2c0.6,0.2,1.2,0.2,1.6,0.2c0.5,0,0.9-0.3,1.3-0.6
					c0.4-0.4,0.7-1,1-1.8l0.5-1.3l-6.1-16.4h2.7l4.5,13h0.2l4.5-13h2.7l-6.9,18.8c-0.3,0.8-0.7,1.5-1.2,2.1s-1,1-1.6,1.2
					S295.1,44,294.3,44z"/>
			</g>
		</g>
		<g>
			<g class="st4">
				<path class="st2" d="M146.4,58.8h-2.6c-0.2-0.8-0.4-1.4-0.8-2s-0.9-1.1-1.4-1.5s-1.2-0.7-1.8-0.9c-0.7-0.2-1.4-0.3-2.1-0.3
					c-1.3,0-2.5,0.3-3.6,1c-1.1,0.7-1.9,1.7-2.5,3c-0.6,1.3-0.9,2.9-0.9,4.8c0,1.9,0.3,3.5,0.9,4.8c0.6,1.3,1.5,2.3,2.5,3
					c1.1,0.7,2.3,1,3.6,1c0.7,0,1.4-0.1,2.1-0.3c0.7-0.2,1.3-0.5,1.8-0.9c0.6-0.4,1-0.9,1.4-1.5c0.4-0.6,0.7-1.2,0.8-2h2.6
					c-0.2,1.1-0.6,2.1-1.1,3c-0.5,0.9-1.2,1.6-2,2.2s-1.7,1.1-2.6,1.4c-1,0.3-2,0.5-3.1,0.5c-1.9,0-3.5-0.5-5-1.4s-2.6-2.2-3.4-3.9
					c-0.8-1.7-1.2-3.7-1.2-6s0.4-4.3,1.2-6s2-3,3.4-3.9s3.1-1.4,5-1.4c1.1,0,2.1,0.2,3.1,0.5c1,0.3,1.8,0.8,2.6,1.4s1.4,1.4,2,2.2
					C145.8,56.7,146.2,57.7,146.4,58.8z"/>
				<path class="st2" d="M157,74.2c-1.5,0-2.8-0.4-3.9-1.1c-1.1-0.7-2-1.7-2.6-3c-0.6-1.3-0.9-2.7-0.9-4.4c0-1.7,0.3-3.2,0.9-4.5
					s1.5-2.3,2.6-3c1.1-0.7,2.4-1.1,3.9-1.1s2.8,0.4,3.9,1.1s2,1.7,2.6,3s0.9,2.8,0.9,4.5c0,1.7-0.3,3.2-0.9,4.4
					c-0.6,1.3-1.5,2.2-2.6,3S158.4,74.2,157,74.2z M157,71.9c1.1,0,2-0.3,2.8-0.9s1.3-1.3,1.6-2.3c0.3-0.9,0.5-2,0.5-3
					s-0.2-2.1-0.5-3.1c-0.3-0.9-0.9-1.7-1.6-2.3c-0.7-0.6-1.6-0.9-2.8-0.9c-1.1,0-2,0.3-2.8,0.9c-0.7,0.6-1.3,1.3-1.6,2.3
					c-0.3,0.9-0.5,2-0.5,3.1s0.2,2.1,0.5,3c0.3,0.9,0.9,1.7,1.6,2.3C154.9,71.6,155.8,71.9,157,71.9z"/>
				<path class="st2" d="M170.7,64v9.8h-2.5V57.5h2.4V60h0.2c0.4-0.8,1-1.5,1.7-2c0.8-0.5,1.8-0.8,3-0.8c1.1,0,2.1,0.2,2.9,0.7
					s1.5,1.1,1.9,2c0.5,0.9,0.7,2.1,0.7,3.5v10.4h-2.5V63.6c0-1.3-0.3-2.3-1-3c-0.7-0.7-1.6-1.1-2.7-1.1c-0.8,0-1.5,0.2-2.1,0.5
					c-0.6,0.3-1.1,0.9-1.5,1.5C170.9,62.2,170.7,63,170.7,64z"/>
				<path class="st2" d="M197.4,61.1l-2.3,0.6c-0.1-0.4-0.3-0.7-0.6-1.1s-0.6-0.7-1.1-0.9s-1.1-0.4-1.8-0.4c-1,0-1.8,0.2-2.5,0.7
					c-0.7,0.5-1,1-1,1.7c0,0.6,0.2,1.1,0.7,1.5c0.5,0.4,1.2,0.7,2.1,0.9l2.4,0.6c1.5,0.4,2.6,0.9,3.3,1.6c0.7,0.7,1.1,1.7,1.1,2.8
					c0,0.9-0.3,1.8-0.8,2.5c-0.5,0.7-1.3,1.3-2.2,1.7c-1,0.4-2.1,0.6-3.3,0.6c-1.7,0-3.1-0.4-4.1-1.1c-1.1-0.7-1.8-1.8-2.1-3.2
					l2.4-0.6c0.2,0.9,0.7,1.5,1.3,2s1.5,0.7,2.5,0.7c1.2,0,2.1-0.2,2.8-0.8s1-1.1,1-1.8c0-0.6-0.2-1-0.6-1.4c-0.4-0.4-1-0.7-1.8-0.9
					l-2.7-0.6c-1.5-0.4-2.6-0.9-3.3-1.7c-0.7-0.8-1-1.7-1-2.8c0-0.9,0.3-1.7,0.8-2.5c0.5-0.7,1.2-1.3,2.1-1.7
					c0.9-0.4,1.9-0.6,3.1-0.6c1.6,0,2.9,0.4,3.8,1.1C196.3,59,197,60,197.4,61.1z"/>
				<path class="st2" d="M208.6,57.5v2.1h-8.5v-2.1H208.6z M202.6,53.5h2.5v15.6c0,0.7,0.1,1.2,0.3,1.6c0.2,0.4,0.5,0.6,0.8,0.7
					c0.3,0.1,0.7,0.2,1,0.2c0.3,0,0.5,0,0.7,0s0.3-0.1,0.4-0.1l0.5,2.3c-0.2,0.1-0.4,0.1-0.7,0.2c-0.3,0.1-0.7,0.1-1.2,0.1
					c-0.7,0-1.4-0.2-2.1-0.5c-0.7-0.3-1.2-0.8-1.7-1.4c-0.4-0.6-0.7-1.4-0.7-2.4V53.5z"/>
				<path class="st2" d="M212.4,73.8V57.5h2.4v2.5h0.2c0.3-0.8,0.8-1.5,1.6-2c0.8-0.5,1.7-0.8,2.6-0.8c0.2,0,0.4,0,0.7,0
					c0.3,0,0.5,0,0.6,0v2.6c-0.1,0-0.3-0.1-0.6-0.1s-0.6-0.1-1-0.1c-0.8,0-1.5,0.2-2.1,0.5c-0.6,0.3-1.1,0.8-1.5,1.4s-0.5,1.2-0.5,2
					v10.4H212.4z"/>
				<path class="st2" d="M233.8,67.1v-9.7h2.5v16.4h-2.5v-2.8h-0.2c-0.4,0.8-1,1.5-1.8,2.1S230,74,228.8,74c-1,0-1.9-0.2-2.7-0.7
					c-0.8-0.5-1.4-1.1-1.9-2c-0.5-0.9-0.7-2.1-0.7-3.5V57.5h2.5v10.2c0,1.2,0.3,2.1,1,2.9c0.7,0.7,1.5,1.1,2.6,1.1
					c0.6,0,1.3-0.2,1.9-0.5c0.7-0.3,1.2-0.8,1.6-1.5C233.6,69,233.8,68.2,233.8,67.1z"/>
				<path class="st2" d="M247.6,74.2c-1.5,0-2.9-0.4-4-1.1c-1.1-0.7-2-1.7-2.6-3s-0.9-2.7-0.9-4.4c0-1.7,0.3-3.1,0.9-4.4
					c0.6-1.3,1.5-2.3,2.6-3s2.4-1.1,3.9-1.1c1.2,0,2.2,0.2,3.1,0.6c0.9,0.4,1.7,1,2.3,1.8c0.6,0.8,1,1.7,1.1,2.7h-2.5
					c-0.2-0.7-0.6-1.4-1.3-2c-0.7-0.6-1.5-0.9-2.6-0.9c-1,0-1.8,0.3-2.6,0.8s-1.3,1.2-1.7,2.1c-0.4,0.9-0.6,2-0.6,3.2
					c0,1.3,0.2,2.4,0.6,3.3c0.4,0.9,1,1.7,1.7,2.2s1.6,0.8,2.6,0.8c0.7,0,1.2-0.1,1.8-0.3c0.5-0.2,1-0.6,1.4-1
					c0.4-0.4,0.6-0.9,0.8-1.5h2.5c-0.1,1-0.5,1.8-1,2.6s-1.3,1.4-2.2,1.8C249.9,73.9,248.8,74.2,247.6,74.2z"/>
				<path class="st2" d="M264.8,57.5v2.1h-8.5v-2.1H264.8z M258.8,53.5h2.5v15.6c0,0.7,0.1,1.2,0.3,1.6c0.2,0.4,0.5,0.6,0.8,0.7
					s0.7,0.2,1,0.2c0.3,0,0.5,0,0.7,0s0.3-0.1,0.4-0.1l0.5,2.3c-0.2,0.1-0.4,0.1-0.7,0.2c-0.3,0.1-0.7,0.1-1.2,0.1
					c-0.7,0-1.4-0.2-2.1-0.5c-0.7-0.3-1.2-0.8-1.7-1.4c-0.4-0.6-0.7-1.4-0.7-2.4V53.5z"/>
				<path class="st2" d="M275.3,74.2c-1.5,0-2.8-0.4-3.9-1.1c-1.1-0.7-2-1.7-2.6-3c-0.6-1.3-0.9-2.7-0.9-4.4c0-1.7,0.3-3.2,0.9-4.5
					c0.6-1.3,1.5-2.3,2.6-3c1.1-0.7,2.4-1.1,3.9-1.1c1.5,0,2.8,0.4,3.9,1.1s2,1.7,2.6,3s0.9,2.8,0.9,4.5c0,1.7-0.3,3.2-0.9,4.4
					c-0.6,1.3-1.5,2.2-2.6,3S276.7,74.2,275.3,74.2z M275.3,71.9c1.1,0,2-0.3,2.8-0.9s1.3-1.3,1.6-2.3c0.3-0.9,0.5-2,0.5-3
					s-0.2-2.1-0.5-3.1c-0.3-0.9-0.9-1.7-1.6-2.3c-0.7-0.6-1.6-0.9-2.8-0.9s-2,0.3-2.8,0.9c-0.7,0.6-1.3,1.3-1.6,2.3
					c-0.3,0.9-0.5,2-0.5,3.1s0.2,2.1,0.5,3s0.9,1.7,1.6,2.3C273.2,71.6,274.1,71.9,275.3,71.9z"/>
				<path class="st2" d="M286.5,73.8V57.5h2.4v2.5h0.2c0.3-0.8,0.8-1.5,1.6-2c0.8-0.5,1.7-0.8,2.6-0.8c0.2,0,0.4,0,0.7,0
					c0.3,0,0.5,0,0.6,0v2.6c-0.1,0-0.3-0.1-0.6-0.1s-0.6-0.1-1-0.1c-0.8,0-1.5,0.2-2.1,0.5c-0.6,0.3-1.1,0.8-1.5,1.4s-0.5,1.2-0.5,2
					v10.4H286.5z"/>
			</g>
		</g>
	</g>
</g>
</svg>
